<?xml version="1.0" encoding="UTF-8" standalone="yes"?>
<!-- Created with sK1/UniConvertor (http://sk1project.org/) -->
<svg xmlns="http://www.w3.org/2000/svg" xmlns:xlink="http://www.w3.org/1999/xlink"
  width="300pt" height="250pt" viewBox="0 0 379.2 379.2"
  fill-rule="evenodd">
<g>
<path style="stroke:none; fill:none" d="M 0 0L 0 379.2L 379.2 379.2L 379.2 0L 0 0z"/>
<path style="stroke:none; fill:#dbf3fc" d="M 74.4 99.2L 74.4 199.2L 75.2 199.2L 75.2 127.2C 75.2 120.158 72.4905 105.688 76.8 100C 75.8012 99.452 75.5614 99.4008 74.4 99.2z"/>
<path style="stroke:none; fill:#c0e9fb" d="M 246.134 99.4664C 245.778 99.8224 246.622 99.7776 246.666 99.7336C 247.022 99.3776 246.178 99.4224 246.134 99.4664z"/>
<path style="stroke:none; fill:#dbf3fc" d="M 247.2 99.2L 247.2 199.2L 248 199.2L 248 124C 248 118.998 250.623 101.908 247.2 99.2z"/>
<path style="stroke:none; fill:#83c3ef" d="M 75.7334 100.266C 75.3778 100.622 76.2222 100.578 76.2666 100.534C 76.6223 100.178 75.7778 100.222 75.7334 100.266z"/>
<path style="stroke:none; fill:#89b0d9" d="M 244.8 100L 244.8 100.8C 249.11 106.488 246.4 120.958 246.4 128L 246.4 199.2L 247.2 199.2L 247.2 100L 244.8 100z"/>
<path style="stroke:none; fill:#3383c8" d="M 302.4 100C 295.71 106.098 281.89 108.363 276.822 115.707C 275.238 118.002 276 122.159 276 124.8L 276 148C 283.631 145.223 290.514 140.306 297.028 135.582C 298.747 134.336 301.748 133.765 302.718 131.75C 306.67 123.532 302.298 109.169 304 100L 302.4 100z"/>
<path style="stroke:none; fill:#dbf3fc" d="M 304 100L 304 132.8L 304.8 132.8C 304.8 123.443 307.609 108.6 304 100z"/>
<path style="stroke:none; fill:#53a9df" d="M 75.2 100.8L 75.2 101.6C 76.6404 102.05 77.6975 102.259 79.2 102.4C 77.7996 101.396 76.9142 101.109 75.2 100.8z"/>
<path style="stroke:none; fill:#c0e9fb" d="M 78.1334 101.066C 77.7778 101.422 78.6222 101.378 78.6666 101.334C 79.0223 100.978 78.1778 101.022 78.1334 101.066z"/>
<path style="stroke:none; fill:#acdcfc" d="M 243.2 100.8L 244 101.6L 243.2 100.8z"/>
<path style="stroke:none; fill:#6ba2d3" d="M 244 100.8L 244.8 101.6L 244 100.8z"/>
<path style="stroke:none; fill:#3383c8" d="M 161.6 180.8L 168 178.4C 168.36 175.648 172.028 175.486 174.4 174.4L 173.6 172.8C 185.838 170.392 197.324 161.167 207.985 154.953C 212.327 152.422 213.782 148.962 219.2 148.8C 219.2 157.486 222.174 172.676 218.718 180.63C 216.082 186.694 206.136 189.65 200.8 192.303C 187.713 198.81 173.284 206.402 161.6 215.2C 168.472 219.97 180.478 229.43 188.8 230.52C 193.388 231.121 198.596 226.259 202.4 224.185C 214.39 217.646 227.333 211.229 237.964 202.716C 240.154 200.962 244.627 200.646 245.918 198.056C 249.129 191.61 246.4 177.605 246.4 170.4L 246.4 100.8C 238.603 103.046 231.733 108.589 224.728 112.562C 210.859 120.427 196.882 128 183.2 136.161C 177.597 139.502 165.907 143.527 162.422 149.103C 160.884 151.565 161.6 155.627 161.6 158.4L 161.6 180.8z"/>
<path style="stroke:none; fill:#6ba2d3" d="M 301.334 101.066C 300.978 101.422 301.822 101.378 301.866 101.334C 302.222 100.978 301.378 101.022 301.334 101.066z"/>
<path style="stroke:none; fill:#75b6e8" d="M 75.2 101.6L 75.2 174.4C 75.2 179.907 72.589 195.52 76.8 199.2C 74.873 191.106 76 181.89 76 173.6L 76 127.2C 76 119.742 78.0858 108.477 75.2 101.6z"/>
<path style="stroke:none; fill:#9ab5cc" d="M 242.4 101.6L 243.2 102.4L 242.4 101.6z"/>
<path style="stroke:none; fill:#9fc6eb" d="M 299.2 101.6L 300 102.4L 299.2 101.6z"/>
<path style="stroke:none; fill:#5287b8" d="M 303.2 101.6L 303.2 132.8L 304 132.8C 304 123.862 306.649 109.819 303.2 101.6z"/>
<path style="stroke:none; fill:#49aff9" d="M 76 102.4L 76 172C 76 178.811 73.29 193.07 76.9432 198.926C 80.4664 204.572 96.9528 210.795 103.2 212L 103.2 164.8C 103.2 161.644 101.322 151.342 104.266 149.555C 107.19 147.781 112.084 152.357 115.2 152.8L 115.2 155.2C 119.766 156.245 125.746 158.969 128 163.2C 139.548 164.497 148.697 179.054 160.8 180.8L 160.8 149.6C 148.902 146.54 136.521 130.427 124 133.6C 122.137 126.518 118.11 126.497 112.136 123.256C 104.553 119.142 96.7728 114.14 89.612 109.294C 84.8832 106.093 82.0512 102.579 76 102.4z"/>
<path style="stroke:none; fill:#dbf3fc" d="M 238.4 104C 239.664 103.453 239.822 103.356 240.8 102.4C 239.126 102.725 239.184 102.574 238.4 104z"/>
<path style="stroke:none; fill:#83c3ef" d="M 240.8 102.4L 241.6 103.2L 240.8 102.4z"/>
<path style="stroke:none; fill:#b0d1f0" d="M 297.6 102.4L 298.4 103.2L 297.6 102.4z"/>
<path style="stroke:none; fill:#c0e9fb" d="M 82.1336 103.466C 81.7776 103.822 82.6224 103.778 82.6664 103.734C 83.0224 103.378 82.1776 103.422 82.1336 103.466z"/>
<path style="stroke:none; fill:#89b0d9" d="M 296.534 103.466C 296.178 103.822 297.022 103.778 297.066 103.734C 297.422 103.378 296.578 103.422 296.534 103.466z"/>
<path style="stroke:none; fill:#c0e9fb" d="M 83.7336 104.266C 83.3776 104.622 84.2224 104.578 84.2664 104.534C 84.6224 104.178 83.7776 104.222 83.7336 104.266z"/>
<path style="stroke:none; fill:#83c3ef" d="M 295.2 104L 296 104.8L 295.2 104z"/>
<path style="stroke:none; fill:#dbf3fc" d="M 85.3336 105.066C 84.9776 105.422 85.8224 105.378 85.8664 105.334C 86.2224 104.978 85.3776 105.022 85.3336 105.066z"/>
<path style="stroke:none; fill:#5287b8" d="M 237.334 105.066C 236.978 105.422 237.822 105.378 237.866 105.334C 238.222 104.978 237.378 105.022 237.334 105.066z"/>
<path style="stroke:none; fill:#9fc6eb" d="M 293.6 104.8L 294.4 105.6L 293.6 104.8z"/>
<path style="stroke:none; fill:#53a9df" d="M 85.6 105.6C 87.5696 109.306 91.6336 111.152 95.1688 113.248C 103.358 118.104 112.125 125.374 121.6 127.2L 121.6 126.4C 109.373 119.891 97.8576 112.056 85.6 105.6z"/>
<path style="stroke:none; fill:#9fc6eb" d="M 235.2 105.6L 236 106.4L 235.2 105.6z"/>
<path style="stroke:none; fill:#acdcfc" d="M 292 105.6L 292.8 106.4L 292 105.6z"/>
<path style="stroke:none; fill:#6ba2d3" d="M 292.8 105.6L 293.6 106.4L 292.8 105.6z"/>
<path style="stroke:none; fill:#c0e9fb" d="M 87.7336 106.666C 87.3776 107.022 88.2224 106.978 88.2664 106.934C 88.6224 106.578 87.7776 106.622 87.7336 106.666z"/>
<path style="stroke:none; fill:#b0d1f0" d="M 233.6 106.4L 234.4 107.2L 233.6 106.4z"/>
<path style="stroke:none; fill:#89b0d9" d="M 291.2 106.4L 292 107.2L 291.2 106.4M 232.8 107.2L 233.6 108L 232.8 107.2z"/>
<path style="stroke:none; fill:#5287b8" d="M 290.134 107.466C 289.778 107.822 290.622 107.778 290.666 107.734C 291.022 107.378 290.178 107.422 290.134 107.466z"/>
<path style="stroke:none; fill:#9ab5cc" d="M 231.2 108L 232 108.8L 231.2 108z"/>
<path style="stroke:none; fill:#6ba2d3" d="M 288.534 108.266C 288.178 108.622 289.022 108.578 289.066 108.534C 289.422 108.178 288.578 108.222 288.534 108.266z"/>
<path style="stroke:none; fill:#9fc6eb" d="M 229.6 108.8L 230.4 109.6L 229.6 108.8z"/>
<path style="stroke:none; fill:#acdcfc" d="M 286.4 108.8L 287.2 109.6L 286.4 108.8z"/>
<path style="stroke:none; fill:#89b0d9" d="M 287.2 108.8L 288 109.6L 287.2 108.8z"/>
<path style="stroke:none; fill:#c0e9fb" d="M 93.3336 109.866C 92.9776 110.222 93.8224 110.178 93.8664 110.134C 94.2224 109.778 93.3776 109.822 93.3336 109.866z"/>
<path style="stroke:none; fill:#b0d1f0" d="M 228 109.6L 228.8 110.4L 228 109.6z"/>
<path style="stroke:none; fill:#6ba2d3" d="M 228.8 109.6L 229.6 110.4L 228.8 109.6z"/>
<path style="stroke:none; fill:#89b0d9" d="M 285.6 109.6L 286.4 110.4L 285.6 109.6z"/>
<path style="stroke:none; fill:#9ab5cc" d="M 284 110.4L 284.8 111.2L 284 110.4z"/>
<path style="stroke:none; fill:#5287b8" d="M 226.134 111.466C 225.778 111.822 226.622 111.778 226.666 111.734C 227.022 111.378 226.178 111.422 226.134 111.466z"/>
<path style="stroke:none; fill:#b0d1f0" d="M 282.4 111.2L 283.2 112L 282.4 111.2z"/>
<path style="stroke:none; fill:#c0e9fb" d="M 97.3336 112.266C 96.9776 112.622 97.8224 112.578 97.8664 112.534C 98.2224 112.178 97.3776 112.222 97.3336 112.266z"/>
<path style="stroke:none; fill:#6ba2d3" d="M 224.534 112.266C 224.178 112.622 225.022 112.578 225.066 112.534C 225.422 112.178 224.578 112.222 224.534 112.266z"/>
<path style="stroke:none; fill:#75b6e8" d="M 222.934 113.066C 222.578 113.422 223.422 113.378 223.466 113.334C 223.822 112.978 222.978 113.022 222.934 113.066z"/>
<path style="stroke:none; fill:#89b0d9" d="M 280 112.8L 280.8 113.6L 280 112.8z"/>
<path style="stroke:none; fill:#acdcfc" d="M 99.7336 113.866C 99.3776 114.222 100.222 114.178 100.266 114.134C 100.622 113.778 99.7776 113.822 99.7336 113.866z"/>
<path style="stroke:none; fill:#83c3ef" d="M 221.6 113.6L 222.4 114.4L 221.6 113.6M 278.4 113.6L 279.2 114.4L 278.4 113.6z"/>
<path style="stroke:none; fill:#9fc6eb" d="M 220 114.4L 220.8 115.2L 220 114.4z"/>
<path style="stroke:none; fill:#b0d1f0" d="M 276.8 114.4L 277.6 115.2L 276.8 114.4z"/>
<path style="stroke:none; fill:#c0e9fb" d="M 102.934 115.466C 102.578 115.822 103.422 115.778 103.466 115.734C 103.822 115.378 102.978 115.422 102.934 115.466z"/>
<path style="stroke:none; fill:#9fc6eb" d="M 218.4 115.2L 219.2 116L 218.4 115.2z"/>
<path style="stroke:none; fill:#dbf3fc" d="M 274.4 115.2L 274.4 148.8L 275.2 148.8C 275.2 138.058 273.507 125.672 276 115.2L 274.4 115.2z"/>
<path style="stroke:none; fill:#acdcfc" d="M 104 116C 104.978 116.956 105.136 117.053 106.4 117.6C 105.422 116.644 105.264 116.547 104 116z"/>
<path style="stroke:none; fill:#6ba2d3" d="M 275.2 116L 275.2 147.2L 276 147.2C 276 138.262 278.649 124.219 275.2 116z"/>
<path style="stroke:none; fill:#89b0d9" d="M 216 116.8L 216.8 117.6L 216 116.8z"/>
<path style="stroke:none; fill:#c0e9fb" d="M 106.934 117.866C 106.578 118.222 107.422 118.178 107.466 118.134C 107.822 117.778 106.978 117.822 106.934 117.866z"/>
<path style="stroke:none; fill:#6ba2d3" d="M 214.934 117.866C 214.578 118.222 215.422 118.178 215.466 118.134C 215.822 117.778 214.978 117.822 214.934 117.866z"/>
<path style="stroke:none; fill:#b0d1f0" d="M 212.8 118.4L 213.6 119.2L 212.8 118.4z"/>
<path style="stroke:none; fill:#6ba2d3" d="M 213.6 118.4L 214.4 119.2L 213.6 118.4z"/>
<path style="stroke:none; fill:#89b0d9" d="M 212 119.2L 212.8 120L 212 119.2z"/>
<path style="stroke:none; fill:#acdcfc" d="M 110.934 120.266C 110.578 120.622 111.422 120.578 111.466 120.534C 111.822 120.178 110.978 120.222 110.934 120.266z"/>
<path style="stroke:none; fill:#9fc6eb" d="M 210.134 120.266C 209.778 120.622 210.622 120.578 210.666 120.534C 211.022 120.178 210.178 120.222 210.134 120.266M 208.8 120.8L 209.6 121.6L 208.8 120.8z"/>
<path style="stroke:none; fill:#b0d1f0" d="M 207.2 121.6L 208 122.4L 207.2 121.6z"/>
<path style="stroke:none; fill:#5287b8" d="M 206.934 122.666C 206.578 123.022 207.422 122.978 207.466 122.934C 207.822 122.578 206.978 122.622 206.934 122.666z"/>
<path style="stroke:none; fill:#acdcfc" d="M 116.534 123.466C 116.178 123.822 117.022 123.778 117.066 123.734C 117.422 123.378 116.578 123.422 116.534 123.466M 120.534 125.866C 120.178 126.222 121.022 126.178 121.066 126.134C 121.422 125.778 120.578 125.822 120.534 125.866z"/>
<path style="stroke:none; fill:#89b0d9" d="M 200.8 125.6L 201.6 126.4L 200.8 125.6z"/>
<path style="stroke:none; fill:#c0e9fb" d="M 122.134 126.666C 121.778 127.022 122.622 126.978 122.666 126.934C 123.022 126.578 122.178 126.622 122.134 126.666z"/>
<path style="stroke:none; fill:#9fc6eb" d="M 199.2 126.4L 200 127.2L 199.2 126.4z"/>
<path style="stroke:none; fill:#5287b8" d="M 198.4 127.2L 198.4 128L 201.6 127.2C 200.273 126.875 199.806 126.953 198.4 127.2z"/>
<path style="stroke:none; fill:#53a9df" d="M 122.4 127.2C 122.682 129.49 123.162 131.45 124 133.6C 131.426 132.563 135.48 137.679 142.4 139.2L 142.4 138.4C 135.869 134.548 129.303 130.338 122.4 127.2z"/>
<path style="stroke:none; fill:#dbf3fc" d="M 123.734 127.466C 123.378 127.822 124.222 127.778 124.266 127.734C 124.622 127.378 123.778 127.422 123.734 127.466z"/>
<path style="stroke:none; fill:#acdcfc" d="M 126.134 129.066C 125.778 129.422 126.622 129.378 126.666 129.334C 127.022 128.978 126.178 129.022 126.134 129.066z"/>
<path style="stroke:none; fill:#89b0d9" d="M 195.2 128.8L 196 129.6L 195.2 128.8z"/>
<path style="stroke:none; fill:#6ba2d3" d="M 194.134 129.866C 193.778 130.222 194.622 130.178 194.666 130.134C 195.022 129.778 194.178 129.822 194.134 129.866z"/>
<path style="stroke:none; fill:#9fc6eb" d="M 192 130.4L 192.8 131.2L 192 130.4z"/>
<path style="stroke:none; fill:#75b6e8" d="M 190.934 131.466C 190.578 131.822 191.422 131.778 191.466 131.734C 191.822 131.378 190.978 131.422 190.934 131.466z"/>
<path style="stroke:none; fill:#acdcfc" d="M 131.734 132.266C 131.378 132.622 132.222 132.578 132.266 132.534C 132.622 132.178 131.778 132.222 131.734 132.266z"/>
<path style="stroke:none; fill:#83c3ef" d="M 189.6 132L 190.4 132.8L 189.6 132z"/>
<path style="stroke:none; fill:#c0e9fb" d="M 133.334 133.066C 132.978 133.422 133.822 133.378 133.866 133.334C 134.222 132.978 133.378 133.022 133.334 133.066z"/>
<path style="stroke:none; fill:#9fc6eb" d="M 188 132.8L 188.8 133.6L 188 132.8z"/>
<path style="stroke:none; fill:#89b0d9" d="M 302.4 132.8L 303.2 133.6L 302.4 132.8z"/>
<path style="stroke:none; fill:#acdcfc" d="M 186.4 133.6L 187.2 134.4L 186.4 133.6z"/>
<path style="stroke:none; fill:#5287b8" d="M 296 136.8L 300.8 134.4C 298.424 133.842 297.263 134.791 296 136.8z"/>
<path style="stroke:none; fill:#6ba2d3" d="M 300.8 133.6L 301.6 134.4L 300.8 133.6z"/>
<path style="stroke:none; fill:#b0d1f0" d="M 300 134.4L 300.8 135.2L 300 134.4z"/>
<path style="stroke:none; fill:#c0e9fb" d="M 137.334 135.466C 136.978 135.822 137.822 135.778 137.866 135.734C 138.222 135.378 137.378 135.422 137.334 135.466z"/>
<path style="stroke:none; fill:#83c3ef" d="M 184 135.2L 184.8 136L 184 135.2z"/>
<path style="stroke:none; fill:#9ab5cc" d="M 298.4 135.2L 299.2 136L 298.4 135.2z"/>
<path style="stroke:none; fill:#c0e9fb" d="M 138.934 136.266C 138.578 136.622 139.422 136.578 139.466 136.534C 139.822 136.178 138.978 136.222 138.934 136.266z"/>
<path style="stroke:none; fill:#9fc6eb" d="M 182.4 136L 183.2 136.8L 182.4 136z"/>
<path style="stroke:none; fill:#89b0d9" d="M 296.8 136L 297.6 136.8L 296.8 136z"/>
<path style="stroke:none; fill:#75b6e8" d="M 295.2 136.8L 296 137.6L 295.2 136.8z"/>
<path style="stroke:none; fill:#89b0d9" d="M 180 137.6L 180.8 138.4L 180 137.6z"/>
<path style="stroke:none; fill:#6ba2d3" d="M 293.6 137.6L 294.4 138.4L 293.6 137.6z"/>
<path style="stroke:none; fill:#c0e9fb" d="M 142.934 138.666C 142.578 139.022 143.422 138.978 143.466 138.934C 143.822 138.578 142.978 138.622 142.934 138.666z"/>
<path style="stroke:none; fill:#9fc6eb" d="M 178.4 138.4L 179.2 139.2L 178.4 138.4M 292.8 138.4L 293.6 139.2L 292.8 138.4z"/>
<path style="stroke:none; fill:#53a9df" d="M 143.2 139.2C 146.274 144.663 155.526 149.16 161.6 149.6L 161.6 148.8C 155.012 147.163 149.475 141.83 143.2 139.2z"/>
<path style="stroke:none; fill:#9fc6eb" d="M 176.8 139.2L 177.6 140L 176.8 139.2M 291.2 139.2L 292 140L 291.2 139.2z"/>
<path style="stroke:none; fill:#89b0d9" d="M 176 140L 176.8 140.8L 176 140z"/>
<path style="stroke:none; fill:#6ba2d3" d="M 289.6 140L 290.4 140.8L 289.6 140z"/>
<path style="stroke:none; fill:#89b0d9" d="M 174.4 140.8L 175.2 141.6L 174.4 140.8z"/>
<path style="stroke:none; fill:#9fc6eb" d="M 288.8 140.8L 289.6 141.6L 288.8 140.8z"/>
<path style="stroke:none; fill:#6ba2d3" d="M 173.334 141.866C 172.978 142.222 173.822 142.178 173.866 142.134C 174.222 141.778 173.378 141.822 173.334 141.866z"/>
<path style="stroke:none; fill:#89b0d9" d="M 287.2 141.6L 288 142.4L 287.2 141.6z"/>
<path style="stroke:none; fill:#9fc6eb" d="M 171.2 142.4L 172 143.2L 171.2 142.4z"/>
<path style="stroke:none; fill:#89b0d9" d="M 285.6 142.4L 286.4 143.2L 285.6 142.4z"/>
<path style="stroke:none; fill:#acdcfc" d="M 150.934 143.466C 150.578 143.822 151.422 143.778 151.466 143.734C 151.822 143.378 150.978 143.422 150.934 143.466z"/>
<path style="stroke:none; fill:#89b0d9" d="M 168.8 144L 169.6 144.8L 168.8 144z"/>
<path style="stroke:none; fill:#c0e9fb" d="M 154.134 145.066C 153.778 145.422 154.622 145.378 154.666 145.334C 155.022 144.978 154.178 145.022 154.134 145.066z"/>
<path style="stroke:none; fill:#9fc6eb" d="M 167.2 144.8L 168 145.6L 167.2 144.8z"/>
<path style="stroke:none; fill:#c0e9fb" d="M 282.134 145.066C 281.778 145.422 282.622 145.378 282.666 145.334C 283.022 144.978 282.178 145.022 282.134 145.066z"/>
<path style="stroke:none; fill:#dbf3fc" d="M 155.734 145.866C 155.378 146.222 156.222 146.178 156.266 146.134C 156.622 145.778 155.778 145.822 155.734 145.866z"/>
<path style="stroke:none; fill:#acdcfc" d="M 280.534 145.866C 280.178 146.222 281.022 146.178 281.066 146.134C 281.422 145.778 280.578 145.822 280.534 145.866z"/>
<path style="stroke:none; fill:#89b0d9" d="M 164.8 146.4L 165.6 147.2L 164.8 146.4z"/>
<path style="stroke:none; fill:#6ba2d3" d="M 278.4 146.4L 279.2 147.2L 278.4 146.4z"/>
<path style="stroke:none; fill:#9fc6eb" d="M 163.2 147.2L 164 148L 163.2 147.2z"/>
<path style="stroke:none; fill:#89b0d9" d="M 275.2 147.2L 275.2 148.8L 276.8 148.8C 276.364 147.492 276.508 147.636 275.2 147.2z"/>
<path style="stroke:none; fill:#6ba2d3" d="M 104 148C 105.881 150.249 107.543 151.321 110.4 152C 108.833 149.488 106.826 148.716 104 148z"/>
<path style="stroke:none; fill:#9fc6eb" d="M 158.934 148.266C 158.578 148.622 159.422 148.578 159.466 148.534C 159.822 148.178 158.978 148.222 158.934 148.266z"/>
<path style="stroke:none; fill:#c0e9fb" d="M 160 148L 160 148.8L 162.4 148.8C 161.402 148.252 161.162 148.201 160 148z"/>
<path style="stroke:none; fill:#83c3ef" d="M 103.2 148.8L 103.2 212.8L 104 212.8C 104 192.786 100.168 168.257 104.8 148.8L 103.2 148.8z"/>
<path style="stroke:none; fill:#5287b8" d="M 212 152L 218.4 149.6L 218.4 182.4L 219.2 182.4L 219.2 148.8C 215.927 148.837 213.618 148.914 212 152z"/>
<path style="stroke:none; fill:#53a9df" d="M 102.4 149.6L 102.4 153.6L 103.2 153.6C 103.13 152.029 103.023 151.015 102.4 149.6z"/>
<path style="stroke:none; fill:#c0e9fb" d="M 104 152L 107.2 151.2C 105.493 149.715 104.511 149.662 104 152z"/>
<path style="stroke:none; fill:#3b91db" d="M 160.8 149.6L 160.8 180L 161.6 180C 161.6 171.271 164.169 157.629 160.8 149.6z"/>
<path style="stroke:none; fill:#75b6e8" d="M 216 149.6L 216.8 150.4L 216 149.6z"/>
<path style="stroke:none; fill:#acdcfc" d="M 216.8 149.6C 219.237 159.834 217.6 171.902 217.6 182.4L 218.4 182.4L 218.4 158.4C 218.4 155.434 219.164 151.666 216.8 149.6z"/>
<path style="stroke:none; fill:#53a9df" d="M 110.4 151.2C 111.28 153.775 112.638 154.416 115.2 155.2C 114.667 152.699 112.725 152.043 110.4 151.2z"/>
<path style="stroke:none; fill:#9ab5cc" d="M 213.6 151.2L 214.4 152L 213.6 151.2z"/>
<path style="stroke:none; fill:#dbf3fc" d="M 104 152L 104 196.8C 104 201.938 105.597 210.181 102.4 214.4L 102.4 215.2C 106.64 214.291 104.8 204.462 104.8 200.8L 104.8 166.4C 104.8 162.264 106.036 155.533 104 152z"/>
<path style="stroke:none; fill:#83c3ef" d="M 109.334 152.266C 108.978 152.622 109.822 152.578 109.866 152.534C 110.222 152.178 109.378 152.222 109.334 152.266z"/>
<path style="stroke:none; fill:#89b0d9" d="M 212 152L 212.8 152.8L 212 152z"/>
<path style="stroke:none; fill:#6ba2d3" d="M 210.4 152.8L 211.2 153.6L 210.4 152.8z"/>
<path style="stroke:none; fill:#b0d1f0" d="M 209.6 153.6L 210.4 154.4L 209.6 153.6z"/>
<path style="stroke:none; fill:#83c3ef" d="M 114.934 155.466C 114.578 155.822 115.422 155.778 115.466 155.734C 115.822 155.378 114.978 155.422 114.934 155.466z"/>
<path style="stroke:none; fill:#6ba2d3" d="M 116 155.2C 117.16 156.486 117.641 156.851 119.2 157.6C 118.219 155.972 117.838 155.739 116 155.2z"/>
<path style="stroke:none; fill:#89b0d9" d="M 206.4 155.2L 207.2 156L 206.4 155.2z"/>
<path style="stroke:none; fill:#b0d1f0" d="M 205.334 156.266C 204.978 156.622 205.822 156.578 205.866 156.534C 206.222 156.178 205.378 156.222 205.334 156.266z"/>
<path style="stroke:none; fill:#53a9df" d="M 119.2 156.8L 119.2 157.6C 122.012 159.721 124.659 161.258 128 162.4C 126.12 159.232 122.661 157.816 119.2 156.8z"/>
<path style="stroke:none; fill:#9fc6eb" d="M 203.734 157.066C 203.378 157.422 204.222 157.378 204.266 157.334C 204.622 156.978 203.778 157.022 203.734 157.066z"/>
<path style="stroke:none; fill:#83c3ef" d="M 118.934 157.866C 118.578 158.222 119.422 158.178 119.466 158.134C 119.822 157.778 118.978 157.822 118.934 157.866M 120.534 158.666C 120.178 159.022 121.022 158.978 121.066 158.934C 121.422 158.578 120.578 158.622 120.534 158.666z"/>
<path style="stroke:none; fill:#89b0d9" d="M 200.8 158.4L 201.6 159.2L 200.8 158.4z"/>
<path style="stroke:none; fill:#9ab5cc" d="M 196.8 160.8L 197.6 161.6L 196.8 160.8z"/>
<path style="stroke:none; fill:#75b6e8" d="M 126.134 161.866C 125.778 162.222 126.622 162.178 126.666 162.134C 127.022 161.778 126.178 161.822 126.134 161.866z"/>
<path style="stroke:none; fill:#89b0d9" d="M 195.2 161.6L 196 162.4L 195.2 161.6z"/>
<path style="stroke:none; fill:#53a9df" d="M 128.8 163.2L 128.8 164L 134.4 166.4C 132.882 164.061 131.554 163.512 128.8 163.2z"/>
<path style="stroke:none; fill:#83c3ef" d="M 130.134 164.266C 129.778 164.622 130.622 164.578 130.666 164.534C 131.022 164.178 130.178 164.222 130.134 164.266z"/>
<path style="stroke:none; fill:#89b0d9" d="M 191.2 164L 192 164.8L 191.2 164z"/>
<path style="stroke:none; fill:#dbf3fc" d="M 302.4 164.8L 302.4 165.6C 305.693 169.947 304 178.699 304 184L 304 232L 304.8 232L 304.8 181.6C 304.8 176.965 306.686 167.579 302.4 164.8z"/>
<path style="stroke:none; fill:#9ab5cc" d="M 302.934 165.866C 302.578 166.222 303.422 166.178 303.466 166.134C 303.822 165.778 302.978 165.822 302.934 165.866z"/>
<path style="stroke:none; fill:#75b6e8" d="M 301.6 166.4L 302.4 167.2L 301.6 166.4z"/>
<path style="stroke:none; fill:#5287b8" d="M 302.4 166.4C 304.157 173.778 303.2 182.047 303.2 189.6L 303.2 232L 304 232L 304 183.2C 304 178.902 305.789 169.362 302.4 166.4z"/>
<path style="stroke:none; fill:#c0e9fb" d="M 186.134 167.466C 185.778 167.822 186.622 167.778 186.666 167.734C 187.022 167.378 186.178 167.422 186.134 167.466z"/>
<path style="stroke:none; fill:#9fc6eb" d="M 300 167.2L 300.8 168L 300 167.2z"/>
<path style="stroke:none; fill:#3383c8" d="M 280.8 178.4C 280.258 181.245 278.768 181.975 276 182.4C 276 190.125 279.296 207.902 274.718 214.252C 271.578 218.606 264.64 221.251 260.072 223.822C 250.658 229.119 241.222 234.534 232 240.15C 228.537 242.26 223.042 244.046 220.594 247.379C 218.678 249.986 219.2 253.756 219.2 256.8C 219.199 264.114 217.785 272.056 218.4 279.2C 242.316 269.441 262.22 252.83 285.6 242.4C 286.234 237.546 300.687 236.974 302.934 231.134C 304.874 226.086 303.2 217.408 303.2 212L 303.2 167.2C 294.981 168.667 288.64 175.704 280.8 178.4z"/>
<path style="stroke:none; fill:#9fc6eb" d="M 298.4 168L 299.2 168.8L 298.4 168z"/>
<path style="stroke:none; fill:#75b6e8" d="M 138.934 169.066C 138.578 169.422 139.422 169.378 139.466 169.334C 139.822 168.978 138.978 169.022 138.934 169.066z"/>
<path style="stroke:none; fill:#b0d1f0" d="M 296.8 168.8L 297.6 169.6L 296.8 168.8z"/>
<path style="stroke:none; fill:#9fc6eb" d="M 181.6 169.6L 182.4 170.4L 181.6 169.6z"/>
<path style="stroke:none; fill:#83c3ef" d="M 141.334 170.666C 140.978 171.022 141.822 170.978 141.866 170.934C 142.222 170.578 141.378 170.622 141.334 170.666z"/>
<path style="stroke:none; fill:#9ab5cc" d="M 180 170.4L 180.8 171.2L 180 170.4z"/>
<path style="stroke:none; fill:#6ba2d3" d="M 294.934 170.666C 294.578 171.022 295.422 170.978 295.466 170.934C 295.822 170.578 294.978 170.622 294.934 170.666z"/>
<path style="stroke:none; fill:#75b6e8" d="M 142.934 171.466C 142.578 171.822 143.422 171.778 143.466 171.734C 143.822 171.378 142.978 171.422 142.934 171.466z"/>
<path style="stroke:none; fill:#6ba2d3" d="M 293.334 171.466C 292.978 171.822 293.822 171.778 293.866 171.734C 294.222 171.378 293.378 171.422 293.334 171.466z"/>
<path style="stroke:none; fill:#5287b8" d="M 173.6 172.8L 173.6 173.6L 177.6 172.8C 176.046 172.302 175.241 172.451 173.6 172.8z"/>
<path style="stroke:none; fill:#9fc6eb" d="M 177.6 172L 178.4 172.8L 177.6 172z"/>
<path style="stroke:none; fill:#89b0d9" d="M 290.4 172.8L 291.2 173.6L 290.4 172.8M 174.4 173.6L 175.2 174.4L 174.4 173.6z"/>
<path style="stroke:none; fill:#9fc6eb" d="M 288.8 173.6L 289.6 174.4L 288.8 173.6z"/>
<path style="stroke:none; fill:#b0d1f0" d="M 173.334 174.666C 172.978 175.022 173.822 174.978 173.866 174.934C 174.222 174.578 173.378 174.622 173.334 174.666z"/>
<path style="stroke:none; fill:#acdcfc" d="M 287.2 174.4L 288 175.2L 287.2 174.4z"/>
<path style="stroke:none; fill:#9fc6eb" d="M 149.334 175.466C 148.978 175.822 149.822 175.778 149.866 175.734C 150.222 175.378 149.378 175.422 149.334 175.466z"/>
<path style="stroke:none; fill:#89b0d9" d="M 286.4 175.2L 287.2 176L 286.4 175.2z"/>
<path style="stroke:none; fill:#83c3ef" d="M 150.934 176.266C 150.578 176.622 151.422 176.578 151.466 176.534C 151.822 176.178 150.978 176.222 150.934 176.266z"/>
<path style="stroke:none; fill:#5287b8" d="M 167.2 176.8L 167.2 177.6L 170.4 176.8C 168.953 176.341 168.745 176.428 167.2 176.8z"/>
<path style="stroke:none; fill:#9fc6eb" d="M 170.4 176L 171.2 176.8L 170.4 176z"/>
<path style="stroke:none; fill:#5287b8" d="M 285.334 176.266C 284.978 176.622 285.822 176.578 285.866 176.534C 286.222 176.178 285.378 176.222 285.334 176.266z"/>
<path style="stroke:none; fill:#89b0d9" d="M 168.8 176.8L 169.6 177.6L 168.8 176.8z"/>
<path style="stroke:none; fill:#9fc6eb" d="M 283.2 176.8L 284 177.6L 283.2 176.8z"/>
<path style="stroke:none; fill:#83c3ef" d="M 153.6 177.6C 154.578 178.556 154.736 178.653 156 179.2C 155.022 178.244 154.864 178.147 153.6 177.6z"/>
<path style="stroke:none; fill:#6ba2d3" d="M 282.134 177.866C 281.778 178.222 282.622 178.178 282.666 178.134C 283.022 177.778 282.178 177.822 282.134 177.866z"/>
<path style="stroke:none; fill:#75b6e8" d="M 156.534 179.466C 156.178 179.822 157.022 179.778 157.066 179.734C 157.422 179.378 156.578 179.422 156.534 179.466z"/>
<path style="stroke:none; fill:#9fc6eb" d="M 164.8 179.2L 165.6 180L 164.8 179.2z"/>
<path style="stroke:none; fill:#9ab5cc" d="M 279.2 179.2L 280 180L 279.2 179.2z"/>
<path style="stroke:none; fill:#5287b8" d="M 275.2 183.2C 278.138 182.388 279.855 181.762 281.6 179.2C 278.878 179.988 276.774 180.798 275.2 183.2z"/>
<path style="stroke:none; fill:#6ba2d3" d="M 160 181.6L 162.4 181.6L 161.6 180C 160.292 180.436 160.436 180.292 160 181.6z"/>
<path style="stroke:none; fill:#89b0d9" d="M 163.2 180L 164 180.8L 163.2 180z"/>
<path style="stroke:none; fill:#b0d1f0" d="M 277.6 180L 278.4 180.8L 277.6 180z"/>
<path style="stroke:none; fill:#acdcfc" d="M 158.934 181.066C 158.578 181.422 159.422 181.378 159.466 181.334C 159.822 180.978 158.978 181.022 158.934 181.066M 160.534 181.866C 160.178 182.222 161.022 182.178 161.066 182.134C 161.422 181.778 160.578 181.822 160.534 181.866z"/>
<path style="stroke:none; fill:#dbf3fc" d="M 274.4 181.6L 274.4 215.2L 275.2 215.2C 275.2 205.634 278.089 190.39 274.4 181.6z"/>
<path style="stroke:none; fill:#75b6e8" d="M 216.534 182.666C 216.178 183.022 217.022 182.978 217.066 182.934C 217.422 182.578 216.578 182.622 216.534 182.666z"/>
<path style="stroke:none; fill:#83c3ef" d="M 215.2 183.2L 216 184L 215.2 183.2z"/>
<path style="stroke:none; fill:#6ba2d3" d="M 275.2 183.2L 275.2 214.4L 276 214.4C 276 205.462 278.649 191.419 275.2 183.2z"/>
<path style="stroke:none; fill:#9fc6eb" d="M 213.6 184L 214.4 184.8L 213.6 184z"/>
<path style="stroke:none; fill:#5287b8" d="M 204.8 189.6L 204.8 190.4C 208.554 190.137 210.566 188.57 212.8 185.6C 209.97 186.636 207.458 188.187 204.8 189.6z"/>
<path style="stroke:none; fill:#9fc6eb" d="M 209.6 186.4L 210.4 187.2L 209.6 186.4z"/>
<path style="stroke:none; fill:#b0d1f0" d="M 208 187.2L 208.8 188L 208 187.2z"/>
<path style="stroke:none; fill:#89b0d9" d="M 205.6 188.8L 206.4 189.6L 205.6 188.8z"/>
<path style="stroke:none; fill:#9fc6eb" d="M 204 189.6L 204.8 190.4L 204 189.6z"/>
<path style="stroke:none; fill:#6ba2d3" d="M 203.2 190.4L 204 191.2L 203.2 190.4z"/>
<path style="stroke:none; fill:#89b0d9" d="M 201.6 191.2L 202.4 192L 201.6 191.2M 200 192L 200.8 192.8L 200 192z"/>
<path style="stroke:none; fill:#6ba2d3" d="M 198.934 193.066C 198.578 193.422 199.422 193.378 199.466 193.334C 199.822 192.978 198.978 193.022 198.934 193.066z"/>
<path style="stroke:none; fill:#b0d1f0" d="M 196.8 193.6L 197.6 194.4L 196.8 193.6z"/>
<path style="stroke:none; fill:#89b0d9" d="M 194.4 195.2L 195.2 196L 194.4 195.2z"/>
<path style="stroke:none; fill:#9fc6eb" d="M 192.8 196L 193.6 196.8L 192.8 196z"/>
<path style="stroke:none; fill:#89b0d9" d="M 190.4 197.6L 191.2 198.4L 190.4 197.6M 188.8 198.4L 189.6 199.2L 188.8 198.4z"/>
<path style="stroke:none; fill:#6ba2d3" d="M 187.734 199.466C 187.378 199.822 188.222 199.778 188.266 199.734C 188.622 199.378 187.778 199.422 187.734 199.466z"/>
<path style="stroke:none; fill:#c0e9fb" d="M 245.334 199.466C 244.978 199.822 245.822 199.778 245.866 199.734C 246.222 199.378 245.378 199.422 245.334 199.466z"/>
<path style="stroke:none; fill:#89b0d9" d="M 186.134 200.266C 185.778 200.622 186.622 200.578 186.666 200.534C 187.022 200.178 186.178 200.222 186.134 200.266z"/>
<path style="stroke:none; fill:#5287b8" d="M 236.8 204C 239.03 203.071 241.114 202.018 243.2 200.8C 240.371 200.306 238.25 201.603 236.8 204z"/>
<path style="stroke:none; fill:#acdcfc" d="M 243.734 200.266C 243.378 200.622 244.222 200.578 244.266 200.534C 244.622 200.178 243.778 200.222 243.734 200.266z"/>
<path style="stroke:none; fill:#89b0d9" d="M 184.8 200.8L 185.6 201.6L 184.8 200.8z"/>
<path style="stroke:none; fill:#83c3ef" d="M 80.8 201.6C 81.7784 202.556 81.936 202.653 83.2 203.2C 82.2216 202.244 82.064 202.147 80.8 201.6z"/>
<path style="stroke:none; fill:#9fc6eb" d="M 183.2 201.6L 184 202.4L 183.2 201.6z"/>
<path style="stroke:none; fill:#89b0d9" d="M 239.2 202.4L 240 203.2L 239.2 202.4z"/>
<path style="stroke:none; fill:#83c3ef" d="M 83.7336 203.466C 83.3776 203.822 84.2224 203.778 84.2664 203.734C 84.6224 203.378 83.7776 203.422 83.7336 203.466z"/>
<path style="stroke:none; fill:#89b0d9" d="M 180.8 203.2L 181.6 204L 180.8 203.2M 237.6 203.2L 238.4 204L 237.6 203.2M 179.2 204L 180 204.8L 179.2 204z"/>
<path style="stroke:none; fill:#9fc6eb" d="M 177.6 204.8L 178.4 205.6L 177.6 204.8M 235.2 204.8L 236 205.6L 235.2 204.8M 176 205.6L 176.8 206.4L 176 205.6z"/>
<path style="stroke:none; fill:#53a9df" d="M 89.6 206.4L 89.6 207.2C 94.092 209.683 98.1456 212.399 103.2 213.6C 100.497 209.878 94.1016 206.989 89.6 206.4z"/>
<path style="stroke:none; fill:#89b0d9" d="M 173.6 207.2L 174.4 208L 173.6 207.2z"/>
<path style="stroke:none; fill:#9fc6eb" d="M 91.7336 208.266C 91.3776 208.622 92.2224 208.578 92.2664 208.534C 92.6224 208.178 91.7776 208.222 91.7336 208.266z"/>
<path style="stroke:none; fill:#b0d1f0" d="M 172 208L 172.8 208.8L 172 208z"/>
<path style="stroke:none; fill:#89b0d9" d="M 229.6 208L 230.4 208.8L 229.6 208z"/>
<path style="stroke:none; fill:#b0d1f0" d="M 170.4 208.8L 171.2 209.6L 170.4 208.8z"/>
<path style="stroke:none; fill:#6ba2d3" d="M 228 208.8L 228.8 209.6L 228 208.8z"/>
<path style="stroke:none; fill:#89b0d9" d="M 169.6 209.6L 170.4 210.4L 169.6 209.6z"/>
<path style="stroke:none; fill:#9ab5cc" d="M 168 210.4L 168.8 211.2L 168 210.4z"/>
<path style="stroke:none; fill:#9fc6eb" d="M 166.4 211.2L 167.2 212L 166.4 211.2z"/>
<path style="stroke:none; fill:#9ab5cc" d="M 224 211.2L 224.8 212L 224 211.2z"/>
<path style="stroke:none; fill:#89b0d9" d="M 165.334 212.266C 164.978 212.622 165.822 212.578 165.866 212.534C 166.222 212.178 165.378 212.222 165.334 212.266z"/>
<path style="stroke:none; fill:#b0d1f0" d="M 222.934 212.266C 222.578 212.622 223.422 212.578 223.466 212.534C 223.822 212.178 222.978 212.222 222.934 212.266z"/>
<path style="stroke:none; fill:#83c3ef" d="M 100.534 213.066C 100.178 213.422 101.022 213.378 101.066 213.334C 101.422 212.978 100.578 213.022 100.534 213.066z"/>
<path style="stroke:none; fill:#9ab5cc" d="M 103.2 212.8L 102.4 214.4L 104 214.4C 104 212.918 104.24 213.32 103.2 212.8z"/>
<path style="stroke:none; fill:#89b0d9" d="M 164 212.8L 164.8 213.6L 164 212.8z"/>
<path style="stroke:none; fill:#acdcfc" d="M 101.334 213.866C 100.978 214.222 101.822 214.178 101.866 214.134C 102.222 213.778 101.378 213.822 101.334 213.866z"/>
<path style="stroke:none; fill:#5287b8" d="M 162.934 213.866C 162.578 214.222 163.422 214.178 163.466 214.134C 163.822 213.778 162.978 213.822 162.934 213.866z"/>
<path style="stroke:none; fill:#83c3ef" d="M 220 213.6L 220.8 214.4L 220 213.6z"/>
<path style="stroke:none; fill:#dbf3fc" d="M 160 214.4L 160 248L 160.8 248C 160.8 237.258 159.107 224.872 161.6 214.4L 160 214.4z"/>
<path style="stroke:none; fill:#89b0d9" d="M 218.4 214.4L 219.2 215.2L 218.4 214.4z"/>
<path style="stroke:none; fill:#83c3ef" d="M 160.8 215.2L 160.8 248L 161.6 248C 161.6 238.643 164.409 223.8 160.8 215.2z"/>
<path style="stroke:none; fill:#6ba2d3" d="M 216.8 215.2L 217.6 216L 216.8 215.2z"/>
<path style="stroke:none; fill:#53a9df" d="M 161.6 216C 161.6 225.069 157.268 247.688 167.2 251.2C 166.065 249.334 163.873 248.307 162.994 246.285C 160.106 239.644 161.244 222.505 164 216L 161.6 216z"/>
<path style="stroke:none; fill:#49aff9" d="M 190.4 265.6C 200.957 264.962 207.459 277.672 218.4 278.4C 217.72 268.375 218.4 258.059 218.4 248C 207.377 247.092 199.802 235.533 188.8 234.4L 190.4 231.2C 183.028 228.131 172.782 217.794 164.918 217.462C 161.814 217.331 162.404 222.032 162.4 224C 162.388 229.808 159.994 242.686 163.34 247.563C 169.325 256.288 184.807 256.114 190.4 265.6z"/>
<path style="stroke:none; fill:#83c3ef" d="M 214.4 216.8L 215.2 217.6L 214.4 216.8z"/>
<path style="stroke:none; fill:#9fc6eb" d="M 271.2 216.8L 272 217.6L 271.2 216.8z"/>
<path style="stroke:none; fill:#83c3ef" d="M 212.8 217.6L 213.6 218.4L 212.8 217.6z"/>
<path style="stroke:none; fill:#9fc6eb" d="M 269.6 217.6L 270.4 218.4L 269.6 217.6z"/>
<path style="stroke:none; fill:#b0d1f0" d="M 211.734 218.666C 211.378 219.022 212.222 218.978 212.266 218.934C 212.622 218.578 211.778 218.622 211.734 218.666z"/>
<path style="stroke:none; fill:#6ba2d3" d="M 209.6 219.2L 210.4 220L 209.6 219.2z"/>
<path style="stroke:none; fill:#89b0d9" d="M 267.2 219.2L 268 220L 267.2 219.2z"/>
<path style="stroke:none; fill:#c0e9fb" d="M 209.334 220.266C 208.978 220.622 209.822 220.578 209.866 220.534C 210.222 220.178 209.378 220.222 209.334 220.266z"/>
<path style="stroke:none; fill:#9fc6eb" d="M 265.6 220L 266.4 220.8L 265.6 220z"/>
<path style="stroke:none; fill:#89b0d9" d="M 207.2 220.8L 208 221.6L 207.2 220.8z"/>
<path style="stroke:none; fill:#6ba2d3" d="M 264.8 220.8L 265.6 221.6L 264.8 220.8M 205.6 221.6L 206.4 222.4L 205.6 221.6z"/>
<path style="stroke:none; fill:#89b0d9" d="M 263.2 221.6L 264 222.4L 263.2 221.6z"/>
<path style="stroke:none; fill:#9fc6eb" d="M 261.334 222.666C 260.978 223.022 261.822 222.978 261.866 222.934C 262.222 222.578 261.378 222.622 261.334 222.666z"/>
<path style="stroke:none; fill:#83c3ef" d="M 203.2 223.2L 204 224L 203.2 223.2z"/>
<path style="stroke:none; fill:#9fc6eb" d="M 260 223.2L 260.8 224L 260 223.2z"/>
<path style="stroke:none; fill:#89b0d9" d="M 201.6 224L 202.4 224.8L 201.6 224z"/>
<path style="stroke:none; fill:#b0d1f0" d="M 258.4 224L 259.2 224.8L 258.4 224M 200.534 225.066C 200.178 225.422 201.022 225.378 201.066 225.334C 201.422 224.978 200.578 225.022 200.534 225.066z"/>
<path style="stroke:none; fill:#9fc6eb" d="M 198.934 225.866C 198.578 226.222 199.422 226.178 199.466 226.134C 199.822 225.778 198.978 225.822 198.934 225.866z"/>
<path style="stroke:none; fill:#6ba2d3" d="M 256.534 225.866C 256.178 226.222 257.022 226.178 257.066 226.134C 257.422 225.778 256.578 225.822 256.534 225.866z"/>
<path style="stroke:none; fill:#89b0d9" d="M 197.6 226.4L 198.4 227.2L 197.6 226.4z"/>
<path style="stroke:none; fill:#b0d1f0" d="M 254.4 226.4L 255.2 227.2L 254.4 226.4z"/>
<path style="stroke:none; fill:#6ba2d3" d="M 196 227.2L 196.8 228L 196 227.2z"/>
<path style="stroke:none; fill:#89b0d9" d="M 253.334 227.466C 252.978 227.822 253.822 227.778 253.866 227.734C 254.222 227.378 253.378 227.422 253.334 227.466z"/>
<path style="stroke:none; fill:#83c3ef" d="M 252 228L 252.8 228.8L 252 228z"/>
<path style="stroke:none; fill:#9fc6eb" d="M 250.4 228.8L 251.2 229.6L 250.4 228.8z"/>
<path style="stroke:none; fill:#c0e9fb" d="M 192.534 229.866C 192.178 230.222 193.022 230.178 193.066 230.134C 193.422 229.778 192.578 229.822 192.534 229.866z"/>
<path style="stroke:none; fill:#b0d1f0" d="M 248.8 229.6L 249.6 230.4L 248.8 229.6z"/>
<path style="stroke:none; fill:#acdcfc" d="M 190.4 230.4L 190.4 232.8L 192 232.8L 192 230.4L 190.4 230.4z"/>
<path style="stroke:none; fill:#75b6e8" d="M 248 230.4L 248.8 231.2L 248 230.4z"/>
<path style="stroke:none; fill:#89b0d9" d="M 246.4 231.2L 247.2 232L 246.4 231.2z"/>
<path style="stroke:none; fill:#9fc6eb" d="M 244.8 232L 245.6 232.8L 244.8 232z"/>
<path style="stroke:none; fill:#c0e9fb" d="M 302.934 232.266C 302.578 232.622 303.422 232.578 303.466 232.534C 303.822 232.178 302.978 232.222 302.934 232.266z"/>
<path style="stroke:none; fill:#53a9df" d="M 188.8 232.8L 188.8 234.4C 198.819 236.208 206.139 245.832 216 248C 212.072 242.002 195.902 233.57 188.8 232.8z"/>
<path style="stroke:none; fill:#6ba2d3" d="M 243.734 233.066C 243.378 233.422 244.222 233.378 244.266 233.334C 244.622 232.978 243.778 233.022 243.734 233.066z"/>
<path style="stroke:none; fill:#c0e9fb" d="M 301.334 233.066C 300.978 233.422 301.822 233.378 301.866 233.334C 302.222 232.978 301.378 233.022 301.334 233.066M 193.6 233.6C 194.578 234.556 194.736 234.653 196 235.2C 195.022 234.244 194.864 234.147 193.6 233.6z"/>
<path style="stroke:none; fill:#75b6e8" d="M 242.4 233.6L 243.2 234.4L 242.4 233.6z"/>
<path style="stroke:none; fill:#89b0d9" d="M 299.2 233.6L 300 234.4L 299.2 233.6z"/>
<path style="stroke:none; fill:#83c3ef" d="M 240.8 234.4L 241.6 235.2L 240.8 234.4z"/>
<path style="stroke:none; fill:#c0e9fb" d="M 196.534 235.466C 196.178 235.822 197.022 235.778 197.066 235.734C 197.422 235.378 196.578 235.422 196.534 235.466z"/>
<path style="stroke:none; fill:#9fc6eb" d="M 239.2 235.2L 240 236L 239.2 235.2M 296.8 235.2L 297.6 236L 296.8 235.2z"/>
<path style="stroke:none; fill:#89b0d9" d="M 295.2 236L 296 236.8L 295.2 236z"/>
<path style="stroke:none; fill:#c0e9fb" d="M 200.534 237.866C 200.178 238.222 201.022 238.178 201.066 238.134C 201.422 237.778 200.578 237.822 200.534 237.866z"/>
<path style="stroke:none; fill:#83c3ef" d="M 235.2 237.6L 236 238.4L 235.2 237.6z"/>
<path style="stroke:none; fill:#9fc6eb" d="M 292.8 237.6L 293.6 238.4L 292.8 237.6M 233.6 238.4L 234.4 239.2L 233.6 238.4z"/>
<path style="stroke:none; fill:#89b0d9" d="M 232.534 239.466C 232.178 239.822 233.022 239.778 233.066 239.734C 233.422 239.378 232.578 239.422 232.534 239.466z"/>
<path style="stroke:none; fill:#acdcfc" d="M 290.134 239.466C 289.778 239.822 290.622 239.778 290.666 239.734C 291.022 239.378 290.178 239.422 290.134 239.466z"/>
<path style="stroke:none; fill:#89b0d9" d="M 231.2 240L 232 240.8L 231.2 240z"/>
<path style="stroke:none; fill:#5287b8" d="M 284.8 240.8L 284.8 241.6L 288 240.8C 286.553 240.341 286.345 240.428 284.8 240.8z"/>
<path style="stroke:none; fill:#6ba2d3" d="M 288 240L 288.8 240.8L 288 240z"/>
<path style="stroke:none; fill:#c0e9fb" d="M 206.134 241.066C 205.778 241.422 206.622 241.378 206.666 241.334C 207.022 240.978 206.178 241.022 206.134 241.066z"/>
<path style="stroke:none; fill:#9fc6eb" d="M 229.6 240.8L 230.4 241.6L 229.6 240.8M 287.2 240.8L 288 241.6L 287.2 240.8z"/>
<path style="stroke:none; fill:#c0e9fb" d="M 207.734 241.866C 207.378 242.222 208.222 242.178 208.266 242.134C 208.622 241.778 207.778 241.822 207.734 241.866z"/>
<path style="stroke:none; fill:#6ba2d3" d="M 228.8 241.6L 229.6 242.4L 228.8 241.6z"/>
<path style="stroke:none; fill:#89b0d9" d="M 285.6 241.6L 286.4 242.4L 285.6 241.6M 227.2 242.4L 228 243.2L 227.2 242.4z"/>
<path style="stroke:none; fill:#75b6e8" d="M 284 242.4L 284.8 243.2L 284 242.4z"/>
<path style="stroke:none; fill:#c0e9fb" d="M 210.134 243.466C 209.778 243.822 210.622 243.778 210.666 243.734C 211.022 243.378 210.178 243.422 210.134 243.466z"/>
<path style="stroke:none; fill:#6ba2d3" d="M 282.4 243.2L 283.2 244L 282.4 243.2z"/>
<path style="stroke:none; fill:#c0e9fb" d="M 211.734 244.266C 211.378 244.622 212.222 244.578 212.266 244.534C 212.622 244.178 211.778 244.222 211.734 244.266z"/>
<path style="stroke:none; fill:#6ba2d3" d="M 224.534 244.266C 224.178 244.622 225.022 244.578 225.066 244.534C 225.422 244.178 224.578 244.222 224.534 244.266z"/>
<path style="stroke:none; fill:#5287b8" d="M 269.6 251.2C 273.212 249.643 276.613 247.598 280 245.6C 275.96 244.765 271.594 247.819 269.6 251.2z"/>
<path style="stroke:none; fill:#89b0d9" d="M 280 244.8L 280.8 245.6L 280 244.8M 220 246.4L 220.8 247.2L 220 246.4z"/>
<path style="stroke:none; fill:#9fc6eb" d="M 216.534 247.466C 216.178 247.822 217.022 247.778 217.066 247.734C 217.422 247.378 216.578 247.422 216.534 247.466z"/>
<path style="stroke:none; fill:#83c3ef" d="M 218.4 247.2L 219.2 248L 218.4 247.2z"/>
<path style="stroke:none; fill:#3b91db" d="M 219.2 247.2C 216.777 255.398 218.4 265.864 218.4 274.4L 219.2 274.4C 219.2 266.08 221.11 255.153 219.2 247.2z"/>
<path style="stroke:none; fill:#9fc6eb" d="M 276 247.2L 276.8 248L 276 247.2z"/>
<path style="stroke:none; fill:#89b0d9" d="M 274.4 248L 275.2 248.8L 274.4 248z"/>
<path style="stroke:none; fill:#b0d1f0" d="M 273.6 248.8L 274.4 249.6L 273.6 248.8z"/>
<path style="stroke:none; fill:#9fc6eb" d="M 165.334 250.666C 164.978 251.022 165.822 250.978 165.866 250.934C 166.222 250.578 165.378 250.622 165.334 250.666z"/>
<path style="stroke:none; fill:#c0e9fb" d="M 270.934 250.666C 270.578 251.022 271.422 250.978 271.466 250.934C 271.822 250.578 270.978 250.622 270.934 250.666z"/>
<path style="stroke:none; fill:#83c3ef" d="M 166.934 251.466C 166.578 251.822 167.422 251.778 167.466 251.734C 167.822 251.378 166.978 251.422 166.934 251.466z"/>
<path style="stroke:none; fill:#53a9df" d="M 168 251.2C 171.282 256.314 184.606 262.847 190.4 264.8C 186.454 259.126 174.606 252.798 168 251.2z"/>
<path style="stroke:none; fill:#c0e9fb" d="M 269.334 251.466C 268.978 251.822 269.822 251.778 269.866 251.734C 270.222 251.378 269.378 251.422 269.334 251.466z"/>
<path style="stroke:none; fill:#dbf3fc" d="M 167.2 252C 169.657 255.856 174.79 258.358 179.2 259.2L 179.2 258.4L 167.2 252z"/>
<path style="stroke:none; fill:#9fc6eb" d="M 264.8 253.6L 265.6 254.4L 264.8 253.6z"/>
<path style="stroke:none; fill:#89b0d9" d="M 263.2 254.4L 264 255.2L 263.2 254.4z"/>
<path style="stroke:none; fill:#9fc6eb" d="M 260.8 256L 261.6 256.8L 260.8 256M 176.534 257.066C 176.178 257.422 177.022 257.378 177.066 257.334C 177.422 256.978 176.578 257.022 176.534 257.066z"/>
<path style="stroke:none; fill:#83c3ef" d="M 259.2 256.8L 260 257.6L 259.2 256.8M 178.134 257.866C 177.778 258.222 178.622 258.178 178.666 258.134C 179.022 257.778 178.178 257.822 178.134 257.866z"/>
<path style="stroke:none; fill:#5287b8" d="M 247.2 264C 250.812 262.443 254.213 260.398 257.6 258.4C 253.821 257.396 249.12 260.859 247.2 264z"/>
<path style="stroke:none; fill:#75b6e8" d="M 257.6 257.6L 258.4 258.4L 257.6 257.6M 179.734 258.666C 179.378 259.022 180.222 258.978 180.266 258.934C 180.622 258.578 179.778 258.622 179.734 258.666z"/>
<path style="stroke:none; fill:#9fc6eb" d="M 255.2 259.2L 256 260L 255.2 259.2z"/>
<path style="stroke:none; fill:#83c3ef" d="M 182.134 260.266C 181.778 260.622 182.622 260.578 182.666 260.534C 183.022 260.178 182.178 260.222 182.134 260.266z"/>
<path style="stroke:none; fill:#9ab5cc" d="M 253.6 260L 254.4 260.8L 253.6 260z"/>
<path style="stroke:none; fill:#75b6e8" d="M 183.734 261.066C 183.378 261.422 184.222 261.378 184.266 261.334C 184.622 260.978 183.778 261.022 183.734 261.066z"/>
<path style="stroke:none; fill:#89b0d9" d="M 252 260.8L 252.8 261.6L 252 260.8z"/>
<path style="stroke:none; fill:#9fc6eb" d="M 184.8 261.6L 185.6 262.4L 184.8 261.6z"/>
<path style="stroke:none; fill:#b0d1f0" d="M 251.2 261.6L 252 262.4L 251.2 261.6z"/>
<path style="stroke:none; fill:#9fc6eb" d="M 249.6 262.4L 250.4 263.2L 249.6 262.4z"/>
<path style="stroke:none; fill:#9ab5cc" d="M 248 263.2L 248.8 264L 248 263.2z"/>
<path style="stroke:none; fill:#75b6e8" d="M 246.4 264L 247.2 264.8L 246.4 264z"/>
<path style="stroke:none; fill:#dbf3fc" d="M 245.6 264.8L 245.6 265.6L 248.8 264.8C 247.473 264.475 247.006 264.553 245.6 264.8z"/>
<path style="stroke:none; fill:#53a9df" d="M 192 264.8C 194.461 268.506 200.59 271.538 204.8 272.8C 202.226 268.9 196.526 265.788 192 264.8z"/>
<path style="stroke:none; fill:#9fc6eb" d="M 244 265.6L 244.8 266.4L 244 265.6z"/>
<path style="stroke:none; fill:#89b0d9" d="M 242.4 266.4L 243.2 267.2L 242.4 266.4z"/>
<path style="stroke:none; fill:#75b6e8" d="M 194.934 267.466C 194.578 267.822 195.422 267.778 195.466 267.734C 195.822 267.378 194.978 267.422 194.934 267.466z"/>
<path style="stroke:none; fill:#9fc6eb" d="M 240 268L 240.8 268.8L 240 268M 238.4 268.8L 239.2 269.6L 238.4 268.8z"/>
<path style="stroke:none; fill:#83c3ef" d="M 198.934 269.866C 198.578 270.222 199.422 270.178 199.466 270.134C 199.822 269.778 198.978 269.822 198.934 269.866z"/>
<path style="stroke:none; fill:#b0d1f0" d="M 237.334 269.866C 236.978 270.222 237.822 270.178 237.866 270.134C 238.222 269.778 237.378 269.822 237.334 269.866M 235.734 270.666C 235.378 271.022 236.222 270.978 236.266 270.934C 236.622 270.578 235.778 270.622 235.734 270.666z"/>
<path style="stroke:none; fill:#9fc6eb" d="M 234.4 271.2L 235.2 272L 234.4 271.2M 232.8 272L 233.6 272.8L 232.8 272z"/>
<path style="stroke:none; fill:#acdcfc" d="M 204 272.8L 204.8 273.6L 204 272.8z"/>
<path style="stroke:none; fill:#b0d1f0" d="M 231.734 273.066C 231.378 273.422 232.222 273.378 232.266 273.334C 232.622 272.978 231.778 273.022 231.734 273.066z"/>
<path style="stroke:none; fill:#acdcfc" d="M 205.334 273.866C 204.978 274.222 205.822 274.178 205.866 274.134C 206.222 273.778 205.378 273.822 205.334 273.866z"/>
<path style="stroke:none; fill:#9fc6eb" d="M 230.4 273.6L 231.2 274.4L 230.4 273.6M 228.8 274.4L 229.6 275.2L 228.8 274.4z"/>
<path style="stroke:none; fill:#83c3ef" d="M 208.534 275.466C 208.178 275.822 209.022 275.778 209.066 275.734C 209.422 275.378 208.578 275.422 208.534 275.466z"/>
<path style="stroke:none; fill:#9ab5cc" d="M 227.2 275.2L 228 276L 227.2 275.2z"/>
<path style="stroke:none; fill:#83c3ef" d="M 210.134 276.266C 209.778 276.622 210.622 276.578 210.666 276.534C 211.022 276.178 210.178 276.222 210.134 276.266z"/>
<path style="stroke:none; fill:#b0d1f0" d="M 226.134 276.266C 225.778 276.622 226.622 276.578 226.666 276.534C 227.022 276.178 226.178 276.222 226.134 276.266z"/>
<path style="stroke:none; fill:#6ba2d3" d="M 211.2 276.8L 211.2 277.6L 214.4 278.4C 213.349 277.106 212.898 277.046 211.2 276.8z"/>
<path style="stroke:none; fill:#5287b8" d="M 218.4 279.2L 218.4 280C 220.563 279.506 222.104 278.765 224 277.6C 221.789 277.224 220.358 278.105 218.4 279.2z"/>
<path style="stroke:none; fill:#9fc6eb" d="M 224.534 277.066C 224.178 277.422 225.022 277.378 225.066 277.334C 225.422 276.978 224.578 277.022 224.534 277.066M 223.2 277.6L 224 278.4L 223.2 277.6z"/>
<path style="stroke:none; fill:#6ba2d3" d="M 214.4 278.4L 214.4 279.2C 216.298 280.01 217.959 280.498 220 280.8C 218.27 278.978 216.892 278.573 214.4 278.4z"/>
<path style="stroke:none; fill:#89b0d9" d="M 221.6 278.4L 222.4 279.2L 221.6 278.4z"/>
<path style="stroke:none; fill:#9fc6eb" d="M 216.534 280.266C 216.178 280.622 217.022 280.578 217.066 280.534C 217.422 280.178 216.578 280.222 216.534 280.266z"/>
</g>
</svg>