<?xml version="1.0" encoding="UTF-8" standalone="yes"?>
<!-- Created with sK1/UniConvertor (http://sk1project.org/) -->
<svg xmlns="http://www.w3.org/2000/svg" xmlns:xlink="http://www.w3.org/1999/xlink"
  width="4rem" height="4rem" viewBox="0 0 409.6 409.6"
  fill-rule="evenodd">
<g>
<path style="stroke:none; fill:none" d="M 0 0L 0 409.6L 409.6 409.6L 409.6 0L 0 0z"/>
<path style="stroke:none; fill:#c5daea" d="M 188 21.6L 188 22.4L 207.2 22.4C 201.85 20.1554 193.786 21.6 188 21.6M 174.4 22.4L 174.4 23.2L 176.8 23.2C 175.802 22.6522 175.562 22.601 174.4 22.4z"/>
<path style="stroke:none; fill:#8ab4d3" d="M 176.8 22.4L 176.8 23.2L 180.8 23.2C 179.385 22.5768 178.371 22.4701 176.8 22.4z"/>
<path style="stroke:none; fill:#6c9fc8" d="M 180.8 22.4L 180.8 23.2L 183.2 23.2C 182.202 22.6522 181.962 22.601 180.8 22.4z"/>
<path style="stroke:none; fill:#3579b5" d="M 113.6 86.4L 197.6 86.4L 197.6 112L 99.2 112C 80.688 112 60.9828 111.465 46.4 124.874C 18.2337 150.776 20.5661 201.91 28.2796 236C 31.5451 250.431 36.6241 265.274 48.8 274.655C 63.6162 286.072 84.8808 282.4 102.4 282.4C 102.4 251.365 98.468 219.876 128 200.285C 133.065 196.925 138.884 194.602 144.8 193.202C 154.319 190.95 164.686 192 174.4 192C 196.75 192 220.162 194.016 242.4 191.864C 262.508 189.918 278.694 174.762 280.664 154.4C 282.892 131.379 280.8 107.137 280.8 84C 280.8 67.2915 281.446 51.657 267.988 39.3389C 255.278 27.7045 239.618 25.4529 223.2 23.8642C 201.505 21.7647 179.96 22.0504 158.4 25.3802C 144.854 27.4725 129.466 30.4478 120.263 41.6006C 110.597 53.3162 113.6 72.3018 113.6 86.4z"/>
<path style="stroke:none; fill:#5f96c5" d="M 208.8 22.4L 208.8 23.2L 213.6 23.2C 211.958 22.5006 210.602 22.4378 208.8 22.4z"/>
<path style="stroke:none; fill:#8ab4d3" d="M 213.6 22.4L 213.6 23.2L 216 23.2C 215.002 22.6522 214.762 22.601 213.6 22.4z"/>
<path style="stroke:none; fill:#c5daea" d="M 216 22.4L 216 23.2L 218.4 23.2C 217.402 22.6522 217.162 22.601 216 22.4M 167.2 23.2L 167.2 24L 169.6 24C 168.602 23.4522 168.362 23.401 167.2 23.2z"/>
<path style="stroke:none; fill:#7baacf" d="M 170.134 23.4666C 169.778 23.8223 170.622 23.7777 170.666 23.7334C 171.022 23.3779 170.178 23.4221 170.134 23.4666z"/>
<path style="stroke:none; fill:#5f96c5" d="M 171.734 23.4666C 171.378 23.8223 172.222 23.7777 172.266 23.7334C 172.622 23.3779 171.778 23.4221 171.734 23.4666M 221.334 23.4666C 220.978 23.8222 221.822 23.7778 221.866 23.7334C 222.222 23.3778 221.378 23.4223 221.334 23.4666z"/>
<path style="stroke:none; fill:#8ab4d3" d="M 222.4 23.2L 222.4 24L 224.8 24C 223.802 23.4522 223.562 23.401 222.4 23.2z"/>
<path style="stroke:none; fill:#c5daea" d="M 225.334 23.4666C 224.978 23.8222 225.822 23.7778 225.866 23.7334C 226.222 23.3778 225.378 23.4222 225.334 23.4666z"/>
<path style="stroke:none; fill:#a9c5df" d="M 161.6 24L 161.6 24.8L 164 24.8C 163.002 24.2522 162.762 24.201 161.6 24z"/>
<path style="stroke:none; fill:#8ab4d3" d="M 229.6 24L 229.6 24.8L 232 24.8C 231.002 24.2522 230.762 24.201 229.6 24z"/>
<path style="stroke:none; fill:#dce9f0" d="M 232.534 24.2666C 232.178 24.6222 233.022 24.5778 233.066 24.5334C 233.422 24.1778 232.578 24.2223 232.534 24.2666z"/>
<path style="stroke:none; fill:#a9c5df" d="M 156 24.8L 156 25.6L 158.4 25.6C 157.402 25.0522 157.162 25.001 156 24.8z"/>
<path style="stroke:none; fill:#5f96c5" d="M 158.934 25.0667C 158.578 25.4223 159.422 25.3777 159.466 25.3334C 159.822 24.9779 158.978 25.0222 158.934 25.0667z"/>
<path style="stroke:none; fill:#8ab4d3" d="M 235.734 25.0667C 235.378 25.4222 236.222 25.3778 236.266 25.3334C 236.622 24.9778 235.778 25.0222 235.734 25.0667z"/>
<path style="stroke:none; fill:#c5daea" d="M 236.8 24.8L 236.8 25.6L 239.2 25.6C 238.202 25.0522 237.962 25.001 236.8 24.8z"/>
<path style="stroke:none; fill:#a9c5df" d="M 152 25.6L 152 26.4L 154.4 26.4C 153.402 25.8522 153.162 25.801 152 25.6M 241.334 25.8666C 240.978 26.2222 241.822 26.1778 241.866 26.1334C 242.222 25.7778 241.378 25.8222 241.334 25.8666M 148 26.4L 148 27.2L 150.4 27.2C 149.402 26.6522 149.162 26.601 148 26.4M 244.534 26.6667C 244.178 27.0222 245.022 26.9778 245.066 26.9334C 245.422 26.5779 244.578 26.6223 244.534 26.6667z"/>
<path style="stroke:none; fill:#8ab4d3" d="M 145.334 27.4666C 144.978 27.8223 145.822 27.7778 145.866 27.7334C 146.222 27.3779 145.378 27.4222 145.334 27.4666M 247.2 27.2L 248 28L 247.2 27.2z"/>
<path style="stroke:none; fill:#5f96c5" d="M 142.934 28.2666C 142.578 28.6224 143.422 28.5776 143.466 28.5334C 143.822 28.1779 142.978 28.2222 142.934 28.2666z"/>
<path style="stroke:none; fill:#a9c5df" d="M 249.6 28L 250.4 28.8L 249.6 28z"/>
<path style="stroke:none; fill:#8ab4d3" d="M 140 28.8L 140.8 29.6L 140 28.8z"/>
<path style="stroke:none; fill:#6c9fc8" d="M 251.2 28.8L 252 29.6L 251.2 28.8z"/>
<path style="stroke:none; fill:#8ab4d3" d="M 137.6 29.6L 138.4 30.4L 137.6 29.6z"/>
<path style="stroke:none; fill:#c5daea" d="M 253.6 29.6L 254.4 30.4L 253.6 29.6z"/>
<path style="stroke:none; fill:#a9c5df" d="M 135.2 30.4L 136 31.2L 135.2 30.4M 255.2 30.4L 256 31.2L 255.2 30.4z"/>
<path style="stroke:none; fill:#8ab4d3" d="M 133.6 31.2L 134.4 32L 133.6 31.2z"/>
<path style="stroke:none; fill:#c5daea" d="M 256.8 31.2L 257.6 32L 256.8 31.2z"/>
<path style="stroke:none; fill:#7baacf" d="M 132 32L 132.8 32.8L 132 32M 130.4 32.8L 131.2 33.6L 130.4 32.8M 259.2 32.8L 260 33.6L 259.2 32.8z"/>
<path style="stroke:none; fill:#8ab4d3" d="M 128.8 33.6L 129.6 34.4L 128.8 33.6z"/>
<path style="stroke:none; fill:#c5daea" d="M 260.8 33.6L 261.6 34.4L 260.8 33.6z"/>
<path style="stroke:none; fill:#7baacf" d="M 261.6 34.4L 262.4 35.2L 261.6 34.4M 126.4 35.2L 127.2 36L 126.4 35.2z"/>
<path style="stroke:none; fill:#a9c5df" d="M 264 36L 264.8 36.8L 264 36M 124 36.8L 124.8 37.6L 124 36.8z"/>
<path style="stroke:none; fill:#7baacf" d="M 264.8 36.8L 265.6 37.6L 264.8 36.8z"/>
<path style="stroke:none; fill:#8ab4d3" d="M 123.2 37.6L 124 38.4L 123.2 37.6M 122.4 38.4L 123.2 39.2L 122.4 38.4M 121.6 39.2L 122.4 40L 121.6 39.2M 120.8 40L 121.6 40.8L 120.8 40z"/>
<path style="stroke:none; fill:#a9c5df" d="M 120 40.8L 120.8 41.6L 120 40.8M 146.4 40.8L 146.4 41.6L 148.8 41.6C 147.802 41.0522 147.562 41.001 146.4 40.8z"/>
<path style="stroke:none; fill:#dce9f0" d="M 148.8 40.8L 148.8 41.6L 151.2 41.6C 150.202 41.0522 149.962 41.001 148.8 40.8z"/>
<path style="stroke:none; fill:#a9c5df" d="M 151.2 40.8L 151.2 41.6L 153.6 41.6C 152.602 41.0522 152.362 41.001 151.2 40.8z"/>
<path style="stroke:none; fill:#8ab4d3" d="M 144 41.6L 144.8 42.4L 144 41.6z"/>
<path style="stroke:none; fill:#ffffff" d="M 144.8 42.1223C 126.836 47.7549 136.229 75.9418 154.4 70.6895C 173.285 65.2308 163.741 36.1834 144.8 42.1223z"/>
<path style="stroke:none; fill:#8ab4d3" d="M 155.2 41.6L 156 42.4L 155.2 41.6M 142.4 42.4L 143.2 43.2L 142.4 42.4z"/>
<path style="stroke:none; fill:#7baacf" d="M 156.8 42.4L 157.6 43.2L 156.8 42.4z"/>
<path style="stroke:none; fill:#8ab4d3" d="M 118.4 43.2L 119.2 44L 118.4 43.2M 140 44L 140.8 44.8L 140 44M 272 44L 272.8 44.8L 272 44z"/>
<path style="stroke:none; fill:#a9c5df" d="M 139.2 44.8L 140 45.6L 139.2 44.8z"/>
<path style="stroke:none; fill:#8ab4d3" d="M 160 44.8L 160.8 45.6L 160 44.8z"/>
<path style="stroke:none; fill:#c5daea" d="M 272.8 44.8L 273.6 45.6L 272.8 44.8z"/>
<path style="stroke:none; fill:#a9c5df" d="M 138.4 45.6L 139.2 46.4L 138.4 45.6z"/>
<path style="stroke:none; fill:#7baacf" d="M 160.8 45.6L 161.6 46.4L 160.8 45.6M 137.6 46.4L 138.4 47.2L 137.6 46.4z"/>
<path style="stroke:none; fill:#a9c5df" d="M 274.4 47.2L 275.2 48L 274.4 47.2z"/>
<path style="stroke:none; fill:#7baacf" d="M 116 48L 116.8 48.8L 116 48z"/>
<path style="stroke:none; fill:#a9c5df" d="M 162.4 48L 163.2 48.8L 162.4 48z"/>
<path style="stroke:none; fill:#6c9fc8" d="M 275.2 48.8L 276 49.6L 275.2 48.8z"/>
<path style="stroke:none; fill:#a9c5df" d="M 115.2 49.6L 116 50.4L 115.2 49.6z"/>
<path style="stroke:none; fill:#c5daea" d="M 163.2 49.6L 164 50.4L 163.2 49.6z"/>
<path style="stroke:none; fill:#a9c5df" d="M 135.2 51.2L 136 52L 135.2 51.2z"/>
<path style="stroke:none; fill:#7baacf" d="M 164 51.2L 164.8 52L 164 51.2z"/>
<path style="stroke:none; fill:#8ab4d3" d="M 114.666 52.5334C 114.622 52.5777 114.578 53.4223 114.934 53.0667C 114.978 53.0222 115.022 52.1779 114.666 52.5334z"/>
<path style="stroke:none; fill:#7baacf" d="M 134.666 54.1334C 134.622 54.1777 134.578 55.0223 134.934 54.6667C 134.978 54.6221 135.022 53.7779 134.666 54.1334z"/>
<path style="stroke:none; fill:#6c9fc8" d="M 164.8 54.4L 164.8 57.6L 165.6 57.6C 165.461 56.2518 165.346 55.6048 164.8 54.4z"/>
<path style="stroke:none; fill:#a9c5df" d="M 134.4 55.2L 134.4 57.6L 135.2 57.6C 134.999 56.4388 134.948 56.1986 134.4 55.2M 278.4 55.2L 279.2 56L 278.4 55.2z"/>
<path style="stroke:none; fill:#8ab4d3" d="M 113.866 56.5334C 113.822 56.5777 113.778 57.4223 114.134 57.0667C 114.178 57.0222 114.222 56.1779 113.866 56.5334z"/>
<path style="stroke:none; fill:#5f96c5" d="M 113.866 58.1334C 113.822 58.1777 113.778 59.0223 114.134 58.6667C 114.178 58.6222 114.222 57.7778 113.866 58.1334z"/>
<path style="stroke:none; fill:#6c9fc8" d="M 134.666 58.1334C 134.622 58.1777 134.578 59.0223 134.934 58.6667C 134.978 58.6222 135.022 57.7778 134.666 58.1334z"/>
<path style="stroke:none; fill:#5f96c5" d="M 279.466 58.1334C 279.422 58.1778 279.378 59.0222 279.734 58.6667C 279.778 58.6223 279.822 57.7778 279.466 58.1334z"/>
<path style="stroke:none; fill:#a9c5df" d="M 164 60L 164.8 60.8L 164 60z"/>
<path style="stroke:none; fill:#8ab4d3" d="M 280.266 60.5334C 280.222 60.5778 280.178 61.4222 280.534 61.0667C 280.578 61.0222 280.622 60.1778 280.266 60.5334z"/>
<path style="stroke:none; fill:#dce9f0" d="M 112.8 60.8L 112.8 63.2L 113.6 63.2C 113.399 62.0387 113.348 61.7986 112.8 60.8z"/>
<path style="stroke:none; fill:#8ab4d3" d="M 135.2 60.8L 136 61.6L 135.2 60.8z"/>
<path style="stroke:none; fill:#a9c5df" d="M 163.2 62.4L 164 63.2L 163.2 62.4z"/>
<path style="stroke:none; fill:#8ab4d3" d="M 112.8 63.2L 112.8 86.4L 113.6 86.4C 113.6 79.5594 115.448 69.5107 112.8 63.2z"/>
<path style="stroke:none; fill:#c5daea" d="M 136.8 64L 137.6 64.8L 136.8 64z"/>
<path style="stroke:none; fill:#8ab4d3" d="M 162.4 64L 163.2 64.8L 162.4 64z"/>
<path style="stroke:none; fill:#a9c5df" d="M 280.8 64L 280.8 68L 281.6 68C 281.53 66.4289 281.423 65.4151 280.8 64z"/>
<path style="stroke:none; fill:#8ab4d3" d="M 138.4 66.4L 139.2 67.2L 138.4 66.4M 139.2 67.2L 140 68L 139.2 67.2M 280.8 68L 280.8 152.8L 281.6 152.8L 281.6 93.6C 281.6 86.1424 283.686 74.8771 280.8 68z"/>
<path style="stroke:none; fill:#c5daea" d="M 141.6 68.8L 142.4 69.6L 141.6 68.8z"/>
<path style="stroke:none; fill:#a9c5df" d="M 157.6 68.8L 158.4 69.6L 157.6 68.8z"/>
<path style="stroke:none; fill:#c5daea" d="M 156 69.6L 156.8 70.4L 156 69.6z"/>
<path style="stroke:none; fill:#a9c5df" d="M 144.8 70.4L 145.6 71.2L 144.8 70.4z"/>
<path style="stroke:none; fill:#8ab4d3" d="M 154.4 70.4L 155.2 71.2L 154.4 70.4z"/>
<path style="stroke:none; fill:#6c9fc8" d="M 146.934 71.4666C 146.578 71.8223 147.422 71.7777 147.466 71.7334C 147.822 71.3779 146.978 71.4222 146.934 71.4666z"/>
<path style="stroke:none; fill:#8ab4d3" d="M 148 71.2L 148 72L 151.2 72C 149.995 71.4536 149.348 71.3393 148 71.2z"/>
<path style="stroke:none; fill:#6c9fc8" d="M 151.734 71.4666C 151.378 71.8223 152.222 71.7777 152.266 71.7334C 152.622 71.3779 151.778 71.4222 151.734 71.4666z"/>
<path style="stroke:none; fill:#dce9f0" d="M 113.6 86.4L 113.6 87.2L 196.8 87.2C 189.923 84.3144 178.658 86.4 171.2 86.4L 113.6 86.4z"/>
<path style="stroke:none; fill:#a9c5df" d="M 196.8 86.4L 196.8 112L 197.6 112C 197.6 104.529 199.689 93.2848 196.8 86.4z"/>
<path style="stroke:none; fill:#c5daea" d="M 73.3334 112.266C 72.9778 112.622 73.8222 112.578 73.8666 112.534C 74.2222 112.178 73.3778 112.222 73.3334 112.266z"/>
<path style="stroke:none; fill:#a9c5df" d="M 74.9334 112.266C 74.5778 112.622 75.4222 112.578 75.4666 112.534C 75.8222 112.178 74.9778 112.222 74.9334 112.266z"/>
<path style="stroke:none; fill:#5f96c5" d="M 76 112L 76 112.8L 80 112.8C 78.5848 112.177 77.5712 112.07 76 112z"/>
<path style="stroke:none; fill:#8ab4d3" d="M 70.1334 113.066C 69.7778 113.422 70.6222 113.378 70.6666 113.334C 71.0223 112.978 70.1778 113.022 70.1334 113.066z"/>
<path style="stroke:none; fill:#6c9fc8" d="M 66.9334 113.866C 66.5778 114.222 67.4222 114.178 67.4666 114.134C 67.8222 113.778 66.9778 113.822 66.9334 113.866z"/>
<path style="stroke:none; fill:#8ab4d3" d="M 61.6 115.2L 62.4 116L 61.6 115.2z"/>
<path style="stroke:none; fill:#c5daea" d="M 59.2 116L 60 116.8L 59.2 116z"/>
<path style="stroke:none; fill:#a9c5df" d="M 57.6 116.8L 58.4 117.6L 57.6 116.8M 56 117.6L 56.8 118.4L 56 117.6z"/>
<path style="stroke:none; fill:#c5daea" d="M 54.4 118.4L 55.2 119.2L 54.4 118.4z"/>
<path style="stroke:none; fill:#8ab4d3" d="M 52 120L 52.8 120.8L 52 120M 49.6 121.6L 50.4 122.4L 49.6 121.6z"/>
<path style="stroke:none; fill:#c5daea" d="M 46.4 124L 47.2 124.8L 46.4 124z"/>
<path style="stroke:none; fill:#8ab4d3" d="M 45.6 124.8L 46.4 125.6L 45.6 124.8z"/>
<path style="stroke:none; fill:#ffc91d" d="M 306.4 124.8C 306.4 155.07 310.572 186.422 282.4 206.233C 278.01 209.319 273.152 211.887 268 213.434C 256.788 216.798 245.155 216 233.6 216C 210.801 216 186.659 213.711 164 216.139C 144.543 218.223 130.018 235.575 128.137 254.4C 125.942 276.348 128 299.534 128 321.6C 128 338.469 127.094 353.983 140.801 366.261C 168.52 391.09 216.701 390.573 250.4 381.896C 264.776 378.195 280.705 371.862 289.423 359.2C 297.111 348.035 295.2 334.448 295.2 321.6L 211.2 321.6C 211.2 316.173 208.522 300.443 212.482 296.482C 214.55 294.415 218.955 295.2 221.6 295.2L 244 295.2L 324 295.2C 337.704 295.2 351.711 296.657 362.397 286.368C 370.813 278.265 375.29 266.89 378.934 256C 388.268 228.098 387.782 199.578 380.698 171.2C 377.041 156.544 372.55 141.278 360 131.623C 346.05 120.892 322.881 124.8 306.4 124.8z"/>
<path style="stroke:none; fill:#ffd240" d="M 340 124.8L 340 125.6L 343.2 125.6C 341.995 125.054 341.348 124.939 340 124.8z"/>
<path style="stroke:none; fill:#ffeebb" d="M 343.734 125.066C 343.378 125.422 344.222 125.378 344.266 125.334C 344.622 124.978 343.778 125.022 343.734 125.066z"/>
<path style="stroke:none; fill:#7baacf" d="M 44.8 125.6L 45.6 126.4L 44.8 125.6z"/>
<path style="stroke:none; fill:#ffeebb" d="M 347.734 125.866C 347.378 126.222 348.222 126.178 348.266 126.134C 348.622 125.778 347.778 125.822 347.734 125.866z"/>
<path style="stroke:none; fill:#8ab4d3" d="M 44 126.4L 44.8 127.2L 44 126.4z"/>
<path style="stroke:none; fill:#ffe89d" d="M 350.4 126.4L 351.2 127.2L 350.4 126.4z"/>
<path style="stroke:none; fill:#8ab4d3" d="M 43.2 127.2L 44 128L 43.2 127.2z"/>
<path style="stroke:none; fill:#ffde6c" d="M 352 127.2L 352.8 128L 352 127.2z"/>
<path style="stroke:none; fill:#8ab4d3" d="M 42.4 128L 43.2 128.8L 42.4 128z"/>
<path style="stroke:none; fill:#ffeebb" d="M 354.4 128L 355.2 128.8L 354.4 128z"/>
<path style="stroke:none; fill:#8ab4d3" d="M 41.6 128.8L 42.4 129.6L 41.6 128.8z"/>
<path style="stroke:none; fill:#ffeebb" d="M 356 128.8L 356.8 129.6L 356 128.8z"/>
<path style="stroke:none; fill:#c5daea" d="M 40.8 129.6L 41.6 130.4L 40.8 129.6z"/>
<path style="stroke:none; fill:#ffe89d" d="M 358.4 130.4L 359.2 131.2L 358.4 130.4z"/>
<path style="stroke:none; fill:#8ab4d3" d="M 38.4 132.8L 39.2 133.6L 38.4 132.8z"/>
<path style="stroke:none; fill:#ffe89d" d="M 361.6 132.8L 362.4 133.6L 361.6 132.8z"/>
<path style="stroke:none; fill:#ffe285" d="M 362.4 133.6L 363.2 134.4L 362.4 133.6z"/>
<path style="stroke:none; fill:#ffde6c" d="M 363.2 134.4L 364 135.2L 363.2 134.4z"/>
<path style="stroke:none; fill:#8ab4d3" d="M 36.8 135.2L 37.6 136L 36.8 135.2z"/>
<path style="stroke:none; fill:#ffde6c" d="M 364 135.2L 364.8 136L 364 135.2z"/>
<path style="stroke:none; fill:#ffe285" d="M 364.8 136L 365.6 136.8L 364.8 136M 365.6 136.8L 366.4 137.6L 365.6 136.8z"/>
<path style="stroke:none; fill:#a9c5df" d="M 35.2 137.6L 36 138.4L 35.2 137.6z"/>
<path style="stroke:none; fill:#8ab4d3" d="M 34.4 139.2L 35.2 140L 34.4 139.2z"/>
<path style="stroke:none; fill:#ffde6c" d="M 368 140L 368.8 140.8L 368 140z"/>
<path style="stroke:none; fill:#8ab4d3" d="M 33.6 140.8L 34.4 141.6L 33.6 140.8M 32.8 142.4L 33.6 143.2L 32.8 142.4z"/>
<path style="stroke:none; fill:#ffde6c" d="M 369.6 142.4L 370.4 143.2L 369.6 142.4z"/>
<path style="stroke:none; fill:#a9c5df" d="M 32 144L 32.8 144.8L 32 144z"/>
<path style="stroke:none; fill:#ffe89d" d="M 371.2 144.8L 372 145.6L 371.2 144.8z"/>
<path style="stroke:none; fill:#8ab4d3" d="M 31.2 146.4L 32 147.2L 31.2 146.4z"/>
<path style="stroke:none; fill:#ffe285" d="M 372 146.4L 372.8 147.2L 372 146.4z"/>
<path style="stroke:none; fill:#c5daea" d="M 30.4 148L 31.2 148.8L 30.4 148z"/>
<path style="stroke:none; fill:#ffe285" d="M 372.8 148L 373.6 148.8L 372.8 148M 373.6 149.6L 374.4 150.4L 373.6 149.6z"/>
<path style="stroke:none; fill:#8ab4d3" d="M 29.8666 150.934C 29.8222 150.978 29.7778 151.822 30.1334 151.466C 30.1778 151.422 30.2222 150.578 29.8666 150.934z"/>
<path style="stroke:none; fill:#ffe89d" d="M 374.4 151.2L 375.2 152L 374.4 151.2z"/>
<path style="stroke:none; fill:#c5daea" d="M 281.066 153.334C 281.022 153.378 280.978 154.222 281.334 153.866C 281.378 153.822 281.422 152.978 281.066 153.334z"/>
<path style="stroke:none; fill:#6c9fc8" d="M 29.0666 154.134C 29.0222 154.178 28.9778 155.022 29.3334 154.666C 29.3778 154.622 29.4222 153.778 29.0666 154.134z"/>
<path style="stroke:none; fill:#ffde6c" d="M 375.2 153.6L 376 154.4L 375.2 153.6z"/>
<path style="stroke:none; fill:#ffe89d" d="M 376 155.2L 376.8 156L 376 155.2z"/>
<path style="stroke:none; fill:#6c9fc8" d="M 280 156L 280 158.4L 280.8 158.4C 280.599 157.238 280.548 156.998 280 156z"/>
<path style="stroke:none; fill:#8ab4d3" d="M 28.2666 157.334C 28.2222 157.378 28.1778 158.222 28.5334 157.866C 28.5778 157.822 28.6222 156.978 28.2666 157.334z"/>
<path style="stroke:none; fill:#ffe285" d="M 376.8 157.6L 377.6 158.4L 376.8 157.6z"/>
<path style="stroke:none; fill:#a9c5df" d="M 27.2 160L 27.2 162.4L 28 162.4C 27.799 161.238 27.7478 160.998 27.2 160z"/>
<path style="stroke:none; fill:#ffde6c" d="M 377.866 160.534C 377.822 160.578 377.778 161.422 378.134 161.066C 378.178 161.022 378.222 160.178 377.866 160.534z"/>
<path style="stroke:none; fill:#c5daea" d="M 279.466 161.334C 279.422 161.378 279.378 162.222 279.734 161.866C 279.778 161.822 279.822 160.978 279.466 161.334z"/>
<path style="stroke:none; fill:#8ab4d3" d="M 278.4 163.2L 279.2 164L 278.4 163.2M 26.6666 164.534C 26.6222 164.578 26.5778 165.422 26.9334 165.066C 26.9778 165.022 27.0222 164.178 26.6666 164.534z"/>
<path style="stroke:none; fill:#a9c5df" d="M 277.6 165.6L 278.4 166.4L 277.6 165.6z"/>
<path style="stroke:none; fill:#ffeebb" d="M 305.6 165.6L 305.6 168L 306.4 168C 306.199 166.838 306.148 166.598 305.6 165.6z"/>
<path style="stroke:none; fill:#ffde6c" d="M 379.466 166.134C 379.422 166.178 379.378 167.022 379.734 166.666C 379.778 166.622 379.822 165.778 379.466 166.134z"/>
<path style="stroke:none; fill:#8ab4d3" d="M 276.8 167.2L 277.6 168L 276.8 167.2M 25.6 168L 25.6 170.4L 26.4 170.4C 26.199 169.238 26.1478 168.998 25.6 168z"/>
<path style="stroke:none; fill:#ffde6c" d="M 305.866 168.534C 305.822 168.578 305.778 169.422 306.134 169.066C 306.178 169.022 306.222 168.178 305.866 168.534z"/>
<path style="stroke:none; fill:#7baacf" d="M 276 168.8L 276.8 169.6L 276 168.8z"/>
<path style="stroke:none; fill:#ffde6c" d="M 380.266 169.334C 380.222 169.378 380.178 170.222 380.534 169.866C 380.578 169.822 380.622 168.978 380.266 169.334z"/>
<path style="stroke:none; fill:#8ab4d3" d="M 275.2 170.4L 276 171.2L 275.2 170.4z"/>
<path style="stroke:none; fill:#a9c5df" d="M 25.0666 172.534C 25.0222 172.578 24.9778 173.422 25.3334 173.066C 25.3778 173.022 25.4222 172.178 25.0666 172.534z"/>
<path style="stroke:none; fill:#c5daea" d="M 274.4 172L 275.2 172.8L 274.4 172z"/>
<path style="stroke:none; fill:#ffe285" d="M 305.066 172.534C 305.022 172.578 304.978 173.422 305.334 173.066C 305.378 173.022 305.422 172.178 305.066 172.534M 381.066 172.534C 381.022 172.578 380.978 173.422 381.334 173.066C 381.378 173.022 381.422 172.178 381.066 172.534z"/>
<path style="stroke:none; fill:#6c9fc8" d="M 25.0666 174.134C 25.0222 174.178 24.9778 175.022 25.3334 174.666C 25.3778 174.622 25.4222 173.778 25.0666 174.134z"/>
<path style="stroke:none; fill:#c5daea" d="M 272.8 174.4L 273.6 175.2L 272.8 174.4z"/>
<path style="stroke:none; fill:#8ab4d3" d="M 272 175.2L 272.8 176L 272 175.2z"/>
<path style="stroke:none; fill:#ffde6c" d="M 304.266 175.734C 304.222 175.778 304.178 176.622 304.534 176.266C 304.578 176.222 304.622 175.378 304.266 175.734z"/>
<path style="stroke:none; fill:#ffe285" d="M 381.866 175.734C 381.822 175.778 381.778 176.622 382.134 176.266C 382.178 176.222 382.222 175.378 381.866 175.734z"/>
<path style="stroke:none; fill:#c5daea" d="M 24 176.8L 24 179.2L 24.8 179.2C 24.599 178.038 24.5478 177.798 24 176.8z"/>
<path style="stroke:none; fill:#ffe285" d="M 303.2 178.4L 304 179.2L 303.2 178.4z"/>
<path style="stroke:none; fill:#6c9fc8" d="M 24.2666 179.734C 24.2222 179.778 24.1778 180.622 24.5334 180.266C 24.5778 180.222 24.6222 179.378 24.2666 179.734z"/>
<path style="stroke:none; fill:#c5daea" d="M 268.8 179.2L 269.6 180L 268.8 179.2z"/>
<path style="stroke:none; fill:#ffe285" d="M 382.4 179.2L 382.4 181.6L 383.2 181.6C 382.999 180.438 382.948 180.198 382.4 179.2z"/>
<path style="stroke:none; fill:#ffde6c" d="M 302.4 180.8L 303.2 181.6L 302.4 180.8z"/>
<path style="stroke:none; fill:#ffe89d" d="M 301.6 182.4L 302.4 183.2L 301.6 182.4z"/>
<path style="stroke:none; fill:#c5daea" d="M 23.4666 183.734C 23.4222 183.778 23.3778 184.622 23.7334 184.266C 23.7778 184.222 23.8222 183.378 23.4666 183.734z"/>
<path style="stroke:none; fill:#8ab4d3" d="M 264 183.2L 264.8 184L 264 183.2z"/>
<path style="stroke:none; fill:#ffe89d" d="M 383.2 183.2L 383.2 185.6L 384 185.6C 383.799 184.438 383.748 184.198 383.2 183.2z"/>
<path style="stroke:none; fill:#c5daea" d="M 263.2 184L 264 184.8L 263.2 184z"/>
<path style="stroke:none; fill:#ffe89d" d="M 300.8 184L 301.6 184.8L 300.8 184z"/>
<path style="stroke:none; fill:#a9c5df" d="M 23.4666 185.334C 23.4222 185.378 23.3778 186.222 23.7334 185.866C 23.7778 185.822 23.8222 184.978 23.4666 185.334z"/>
<path style="stroke:none; fill:#6c9fc8" d="M 261.6 184.8L 262.4 185.6L 261.6 184.8z"/>
<path style="stroke:none; fill:#c5daea" d="M 260.8 185.6L 261.6 186.4L 260.8 185.6z"/>
<path style="stroke:none; fill:#ffeebb" d="M 300 185.6L 300.8 186.4L 300 185.6z"/>
<path style="stroke:none; fill:#6c9fc8" d="M 23.2 186.4L 23.2 189.6L 24 189.6C 23.8607 188.252 23.7465 187.605 23.2 186.4z"/>
<path style="stroke:none; fill:#8ab4d3" d="M 259.2 186.4L 260 187.2L 259.2 186.4M 257.6 187.2L 258.4 188L 257.6 187.2z"/>
<path style="stroke:none; fill:#ffe89d" d="M 299.2 187.2L 300 188L 299.2 187.2z"/>
<path style="stroke:none; fill:#8ab4d3" d="M 256 188L 256.8 188.8L 256 188z"/>
<path style="stroke:none; fill:#ffe285" d="M 384 188L 384 190.4L 384.8 190.4C 384.599 189.238 384.548 188.998 384 188z"/>
<path style="stroke:none; fill:#a9c5df" d="M 254.4 188.8L 255.2 189.6L 254.4 188.8z"/>
<path style="stroke:none; fill:#ffde6c" d="M 298.4 188.8L 299.2 189.6L 298.4 188.8z"/>
<path style="stroke:none; fill:#8ab4d3" d="M 252 189.6L 252.8 190.4L 252 189.6z"/>
<path style="stroke:none; fill:#a9c5df" d="M 249.334 190.666C 248.978 191.022 249.822 190.978 249.866 190.934C 250.222 190.578 249.378 190.622 249.334 190.666z"/>
<path style="stroke:none; fill:#7baacf" d="M 244.534 191.466C 244.178 191.822 245.022 191.778 245.066 191.734C 245.422 191.378 244.578 191.422 244.534 191.466z"/>
<path style="stroke:none; fill:#c5daea" d="M 245.6 191.2L 245.6 192L 248 192C 247.002 191.452 246.762 191.401 245.6 191.2z"/>
<path style="stroke:none; fill:#ffe89d" d="M 296.8 191.2L 297.6 192L 296.8 191.2z"/>
<path style="stroke:none; fill:#8ab4d3" d="M 148.8 192L 148.8 192.8L 154.4 192.8C 152.534 192.012 150.834 192.015 148.8 192z"/>
<path style="stroke:none; fill:#c5daea" d="M 154.4 192L 154.4 192.8L 240 192.8C 232.932 189.834 221.268 192 213.6 192L 154.4 192z"/>
<path style="stroke:none; fill:#8ab4d3" d="M 144 192.8L 144 193.6L 146.4 193.6C 145.402 193.052 145.162 193.001 144 192.8z"/>
<path style="stroke:none; fill:#ffe89d" d="M 385.066 193.334C 385.022 193.378 384.978 194.222 385.334 193.866C 385.378 193.822 385.422 192.978 385.066 193.334z"/>
<path style="stroke:none; fill:#c5daea" d="M 142.134 193.866C 141.778 194.222 142.622 194.178 142.666 194.134C 143.022 193.778 142.178 193.822 142.134 193.866z"/>
<path style="stroke:none; fill:#ffde6c" d="M 295.2 193.6L 296 194.4L 295.2 193.6z"/>
<path style="stroke:none; fill:#a9c5df" d="M 139.2 194.4L 140 195.2L 139.2 194.4z"/>
<path style="stroke:none; fill:#ffe89d" d="M 294.4 194.4L 295.2 195.2L 294.4 194.4z"/>
<path style="stroke:none; fill:#ffde6c" d="M 385.066 194.934C 385.022 194.978 384.978 195.822 385.334 195.466C 385.378 195.422 385.422 194.578 385.066 194.934z"/>
<path style="stroke:none; fill:#8ab4d3" d="M 136.8 195.2L 137.6 196L 136.8 195.2z"/>
<path style="stroke:none; fill:#7baacf" d="M 134.4 196L 135.2 196.8L 134.4 196M 132.8 196.8L 133.6 197.6L 132.8 196.8M 131.2 197.6L 132 198.4L 131.2 197.6z"/>
<path style="stroke:none; fill:#6c9fc8" d="M 129.6 198.4L 130.4 199.2L 129.6 198.4z"/>
<path style="stroke:none; fill:#c5daea" d="M 128.8 199.2L 129.6 200L 128.8 199.2z"/>
<path style="stroke:none; fill:#ffde6c" d="M 290.4 199.2L 291.2 200L 290.4 199.2z"/>
<path style="stroke:none; fill:#ffeebb" d="M 385.866 199.734C 385.822 199.778 385.778 200.622 386.134 200.266C 386.178 200.222 386.222 199.378 385.866 199.734z"/>
<path style="stroke:none; fill:#8ab4d3" d="M 127.2 200L 128 200.8L 127.2 200z"/>
<path style="stroke:none; fill:#ffde6c" d="M 289.6 200L 290.4 200.8L 289.6 200z"/>
<path style="stroke:none; fill:#ffe285" d="M 385.6 200.8L 385.6 205.6L 386.4 205.6C 386.362 203.798 386.299 202.442 385.6 200.8z"/>
<path style="stroke:none; fill:#8ab4d3" d="M 124.8 201.6L 125.6 202.4L 124.8 201.6z"/>
<path style="stroke:none; fill:#6c9fc8" d="M 23.2 202.4L 23.2 208L 24 208C 23.985 205.966 23.9876 204.266 23.2 202.4z"/>
<path style="stroke:none; fill:#c5daea" d="M 124 202.4L 124.8 203.2L 124 202.4z"/>
<path style="stroke:none; fill:#8ab4d3" d="M 121.6 204L 122.4 204.8L 121.6 204z"/>
<path style="stroke:none; fill:#ffe285" d="M 284.8 204L 285.6 204.8L 284.8 204z"/>
<path style="stroke:none; fill:#a9c5df" d="M 120.8 204.8L 121.6 205.6L 120.8 204.8M 120 205.6L 120.8 206.4L 120 205.6z"/>
<path style="stroke:none; fill:#c5daea" d="M 119.2 206.4L 120 207.2L 119.2 206.4z"/>
<path style="stroke:none; fill:#ffe285" d="M 281.6 206.4L 282.4 207.2L 281.6 206.4z"/>
<path style="stroke:none; fill:#ffeebb" d="M 280 207.2L 280.8 208L 280 207.2z"/>
<path style="stroke:none; fill:#a9c5df" d="M 23.4666 208.534C 23.4222 208.578 23.3778 209.422 23.7334 209.066C 23.7778 209.022 23.8222 208.178 23.4666 208.534z"/>
<path style="stroke:none; fill:#c5daea" d="M 116.8 208.8L 117.6 209.6L 116.8 208.8z"/>
<path style="stroke:none; fill:#ffe285" d="M 277.6 208.8L 278.4 209.6L 277.6 208.8z"/>
<path style="stroke:none; fill:#dce9f0" d="M 23.2 209.6L 23.2 212L 24 212C 23.799 210.838 23.7478 210.598 23.2 209.6z"/>
<path style="stroke:none; fill:#a9c5df" d="M 116 209.6L 116.8 210.4L 116 209.6z"/>
<path style="stroke:none; fill:#ffe285" d="M 276 209.6L 276.8 210.4L 276 209.6z"/>
<path style="stroke:none; fill:#a9c5df" d="M 115.2 210.4L 116 211.2L 115.2 210.4z"/>
<path style="stroke:none; fill:#ffe285" d="M 274.4 210.4L 275.2 211.2L 274.4 210.4z"/>
<path style="stroke:none; fill:#8ab4d3" d="M 114.4 211.2L 115.2 212L 114.4 211.2z"/>
<path style="stroke:none; fill:#ffde6c" d="M 272.8 211.2L 273.6 212L 272.8 211.2z"/>
<path style="stroke:none; fill:#ffe285" d="M 270.4 212L 271.2 212.8L 270.4 212z"/>
<path style="stroke:none; fill:#ffde6c" d="M 268.534 213.066C 268.178 213.422 269.022 213.378 269.066 213.334C 269.422 212.978 268.578 213.022 268.534 213.066z"/>
<path style="stroke:none; fill:#7baacf" d="M 24.2666 214.134C 24.2222 214.178 24.1778 215.022 24.5334 214.666C 24.5778 214.622 24.6222 213.778 24.2666 214.134z"/>
<path style="stroke:none; fill:#ffde6c" d="M 265.334 213.866C 264.978 214.222 265.822 214.178 265.866 214.134C 266.222 213.778 265.378 213.822 265.334 213.866z"/>
<path style="stroke:none; fill:#8ab4d3" d="M 112 214.4L 112.8 215.2L 112 214.4z"/>
<path style="stroke:none; fill:#ffe89d" d="M 260 214.4L 260 215.2L 262.4 215.2C 261.402 214.652 261.162 214.601 260 214.4z"/>
<path style="stroke:none; fill:#a9c5df" d="M 24 215.2L 24 217.6L 24.8 217.6C 24.599 216.438 24.5478 216.198 24 215.2z"/>
<path style="stroke:none; fill:#ffde6c" d="M 164.8 215.2L 164.8 216L 254.4 216C 247.141 212.954 235.078 215.2 227.2 215.2L 164.8 215.2z"/>
<path style="stroke:none; fill:#ffd240" d="M 254.4 215.2L 254.4 216L 258.4 216C 256.985 215.377 255.971 215.27 254.4 215.2z"/>
<path style="stroke:none; fill:#ffde6c" d="M 161.334 216.266C 160.978 216.622 161.822 216.578 161.866 216.534C 162.222 216.178 161.378 216.222 161.334 216.266z"/>
<path style="stroke:none; fill:#8ab4d3" d="M 110.4 216.8L 111.2 217.6L 110.4 216.8z"/>
<path style="stroke:none; fill:#ffde6c" d="M 158.134 217.066C 157.778 217.422 158.622 217.378 158.666 217.334C 159.022 216.978 158.178 217.022 158.134 217.066z"/>
<path style="stroke:none; fill:#ffeebb" d="M 155.2 217.6L 156 218.4L 155.2 217.6z"/>
<path style="stroke:none; fill:#ffe285" d="M 153.6 218.4L 154.4 219.2L 153.6 218.4z"/>
<path style="stroke:none; fill:#8ab4d3" d="M 24.8 219.2L 24.8 221.6L 25.6 221.6C 25.399 220.438 25.3478 220.198 24.8 219.2z"/>
<path style="stroke:none; fill:#7baacf" d="M 108.8 219.2L 109.6 220L 108.8 219.2z"/>
<path style="stroke:none; fill:#ffde6c" d="M 152 219.2L 152.8 220L 152 219.2M 150.4 220L 151.2 220.8L 150.4 220z"/>
<path style="stroke:none; fill:#7baacf" d="M 108 220.8L 108.8 221.6L 108 220.8z"/>
<path style="stroke:none; fill:#ffe285" d="M 148.8 220.8L 149.6 221.6L 148.8 220.8z"/>
<path style="stroke:none; fill:#ffde6c" d="M 385.6 220.8L 385.6 223.2L 386.4 223.2C 386.199 222.038 386.148 221.798 385.6 220.8z"/>
<path style="stroke:none; fill:#7baacf" d="M 107.2 222.4L 108 223.2L 107.2 222.4z"/>
<path style="stroke:none; fill:#ffde6c" d="M 146.4 222.4L 147.2 223.2L 146.4 222.4z"/>
<path style="stroke:none; fill:#ffe89d" d="M 385.6 223.2L 385.6 225.6L 386.4 225.6C 386.199 224.438 386.148 224.198 385.6 223.2z"/>
<path style="stroke:none; fill:#8ab4d3" d="M 25.6 224L 25.6 226.4L 26.4 226.4C 26.199 225.239 26.1478 224.998 25.6 224z"/>
<path style="stroke:none; fill:#7baacf" d="M 106.4 224L 107.2 224.8L 106.4 224z"/>
<path style="stroke:none; fill:#ffe89d" d="M 144 224L 144.8 224.8L 144 224z"/>
<path style="stroke:none; fill:#ffde6c" d="M 143.2 224.8L 144 225.6L 143.2 224.8z"/>
<path style="stroke:none; fill:#a9c5df" d="M 105.6 226.4L 106.4 227.2L 105.6 226.4M 26.6666 229.334C 26.6222 229.378 26.5778 230.222 26.9334 229.866C 26.9778 229.822 27.0222 228.978 26.6666 229.334z"/>
<path style="stroke:none; fill:#ffde6c" d="M 385.066 229.334C 385.022 229.378 384.978 230.222 385.334 229.866C 385.378 229.822 385.422 228.978 385.066 229.334M 137.6 230.4L 138.4 231.2L 137.6 230.4z"/>
<path style="stroke:none; fill:#ffe89d" d="M 384.8 230.4L 384.8 232.8L 385.6 232.8C 385.399 231.638 385.348 231.398 384.8 230.4z"/>
<path style="stroke:none; fill:#c5daea" d="M 104.266 231.734C 104.222 231.778 104.178 232.622 104.534 232.266C 104.578 232.222 104.622 231.378 104.266 231.734z"/>
<path style="stroke:none; fill:#ffe285" d="M 136.8 231.2L 137.6 232L 136.8 231.2z"/>
<path style="stroke:none; fill:#a9c5df" d="M 27.4666 233.334C 27.4222 233.378 27.3778 234.222 27.7334 233.866C 27.7778 233.822 27.8222 232.978 27.4666 233.334z"/>
<path style="stroke:none; fill:#8ab4d3" d="M 103.2 233.6L 103.2 236L 104 236C 103.799 234.838 103.748 234.598 103.2 233.6z"/>
<path style="stroke:none; fill:#ffe89d" d="M 134.4 234.4L 135.2 235.2L 134.4 234.4z"/>
<path style="stroke:none; fill:#ffe285" d="M 384 234.4L 384 236.8L 384.8 236.8C 384.599 235.638 384.548 235.398 384 234.4z"/>
<path style="stroke:none; fill:#8ab4d3" d="M 28 236L 28 238.4L 28.8 238.4C 28.599 237.239 28.5478 236.998 28 236z"/>
<path style="stroke:none; fill:#ffde6c" d="M 133.6 236L 134.4 236.8L 133.6 236z"/>
<path style="stroke:none; fill:#8ab4d3" d="M 102.4 238.4L 102.4 241.6L 103.2 241.6C 103.061 240.252 102.946 239.605 102.4 238.4z"/>
<path style="stroke:none; fill:#ffeebb" d="M 132 238.4L 132.8 239.2L 132 238.4M 383.466 239.734C 383.422 239.778 383.378 240.622 383.734 240.266C 383.778 240.222 383.822 239.378 383.466 239.734z"/>
<path style="stroke:none; fill:#c5daea" d="M 29.0666 240.534C 29.0222 240.578 28.9778 241.422 29.3334 241.066C 29.3778 241.022 29.4222 240.178 29.0666 240.534M 102.4 241.6L 102.4 283.2L 103.2 283.2L 103.2 255.2C 103.2 250.92 104.068 245.575 102.4 241.6z"/>
<path style="stroke:none; fill:#ffe285" d="M 130.4 242.4L 131.2 243.2L 130.4 242.4z"/>
<path style="stroke:none; fill:#ffe89d" d="M 382.666 242.934C 382.622 242.978 382.578 243.822 382.934 243.466C 382.978 243.422 383.022 242.578 382.666 242.934z"/>
<path style="stroke:none; fill:#c5daea" d="M 29.8666 243.734C 29.8222 243.778 29.7778 244.622 30.1334 244.266C 30.1778 244.222 30.2222 243.378 29.8666 243.734z"/>
<path style="stroke:none; fill:#7baacf" d="M 30.4 245.6L 31.2 246.4L 30.4 245.6z"/>
<path style="stroke:none; fill:#ffeebb" d="M 381.866 246.134C 381.822 246.178 381.778 247.022 382.134 246.666C 382.178 246.622 382.222 245.778 381.866 246.134z"/>
<path style="stroke:none; fill:#c5daea" d="M 30.4 246.4L 31.2 247.2L 30.4 246.4z"/>
<path style="stroke:none; fill:#ffd240" d="M 129.066 247.734C 129.022 247.778 128.978 248.622 129.334 248.266C 129.378 248.222 129.422 247.378 129.066 247.734z"/>
<path style="stroke:none; fill:#6c9fc8" d="M 31.2 248L 32 248.8L 31.2 248z"/>
<path style="stroke:none; fill:#a9c5df" d="M 31.2 248.8L 32 249.6L 31.2 248.8z"/>
<path style="stroke:none; fill:#ffe89d" d="M 380.8 248.8L 381.6 249.6L 380.8 248.8M 128.266 250.134C 128.222 250.178 128.178 251.022 128.534 250.666C 128.578 250.622 128.622 249.778 128.266 250.134z"/>
<path style="stroke:none; fill:#8ab4d3" d="M 32 250.4L 32.8 251.2L 32 250.4z"/>
<path style="stroke:none; fill:#ffde6c" d="M 128.266 251.734C 128.222 251.778 128.178 252.622 128.534 252.266C 128.578 252.222 128.622 251.378 128.266 251.734z"/>
<path style="stroke:none; fill:#fff5d2" d="M 380.266 251.734C 380.222 251.778 380.178 252.622 380.534 252.266C 380.578 252.222 380.622 251.378 380.266 251.734z"/>
<path style="stroke:none; fill:#a9c5df" d="M 32.8 252.8L 33.6 253.6L 32.8 252.8z"/>
<path style="stroke:none; fill:#ffe285" d="M 379.2 253.6L 380 254.4L 379.2 253.6z"/>
<path style="stroke:none; fill:#8ab4d3" d="M 33.6 254.4L 34.4 255.2L 33.6 254.4z"/>
<path style="stroke:none; fill:#7baacf" d="M 34.4 256L 35.2 256.8L 34.4 256z"/>
<path style="stroke:none; fill:#ffe89d" d="M 378.4 256L 379.2 256.8L 378.4 256z"/>
<path style="stroke:none; fill:#ffeebb" d="M 127.2 256.8L 127.2 339.2L 128 339.2L 128 281.6C 128 274.352 130.006 263.486 127.2 256.8z"/>
<path style="stroke:none; fill:#7baacf" d="M 35.2 257.6L 36 258.4L 35.2 257.6z"/>
<path style="stroke:none; fill:#ffe89d" d="M 377.6 258.4L 378.4 259.2L 377.6 258.4z"/>
<path style="stroke:none; fill:#8ab4d3" d="M 36 259.2L 36.8 260L 36 259.2z"/>
<path style="stroke:none; fill:#a9c5df" d="M 36.8 260.8L 37.6 261.6L 36.8 260.8z"/>
<path style="stroke:none; fill:#ffe285" d="M 376 262.4L 376.8 263.2L 376 262.4z"/>
<path style="stroke:none; fill:#8ab4d3" d="M 38.4 263.2L 39.2 264L 38.4 263.2M 40 265.6L 40.8 266.4L 40 265.6z"/>
<path style="stroke:none; fill:#ffe285" d="M 374.4 266.4L 375.2 267.2L 374.4 266.4z"/>
<path style="stroke:none; fill:#ffde6c" d="M 373.6 268L 374.4 268.8L 373.6 268z"/>
<path style="stroke:none; fill:#a9c5df" d="M 43.2 269.6L 44 270.4L 43.2 269.6M 44 270.4L 44.8 271.2L 44 270.4z"/>
<path style="stroke:none; fill:#ffeebb" d="M 372.8 270.4L 373.6 271.2L 372.8 270.4z"/>
<path style="stroke:none; fill:#a9c5df" d="M 44.8 271.2L 45.6 272L 44.8 271.2z"/>
<path style="stroke:none; fill:#c5daea" d="M 45.6 272L 46.4 272.8L 45.6 272z"/>
<path style="stroke:none; fill:#ffeebb" d="M 372 272L 372.8 272.8L 372 272z"/>
<path style="stroke:none; fill:#c5daea" d="M 46.4 272.8L 47.2 273.6L 46.4 272.8z"/>
<path style="stroke:none; fill:#ffeebb" d="M 371.2 273.6L 372 274.4L 371.2 273.6z"/>
<path style="stroke:none; fill:#6c9fc8" d="M 48.8 274.4L 49.6 275.2L 48.8 274.4z"/>
<path style="stroke:none; fill:#a9c5df" d="M 49.6 275.2L 50.4 276L 49.6 275.2z"/>
<path style="stroke:none; fill:#ffde6c" d="M 369.6 276L 370.4 276.8L 369.6 276z"/>
<path style="stroke:none; fill:#a9c5df" d="M 52 276.8L 52.8 277.6L 52 276.8z"/>
<path style="stroke:none; fill:#7baacf" d="M 53.6 277.6L 54.4 278.4L 53.6 277.6z"/>
<path style="stroke:none; fill:#ffe285" d="M 368.8 277.6L 369.6 278.4L 368.8 277.6z"/>
<path style="stroke:none; fill:#8ab4d3" d="M 55.2 278.4L 56 279.2L 55.2 278.4M 56.8 279.2L 57.6 280L 56.8 279.2z"/>
<path style="stroke:none; fill:#c5daea" d="M 58.4 280L 59.2 280.8L 58.4 280z"/>
<path style="stroke:none; fill:#7baacf" d="M 59.2 280L 60 280.8L 59.2 280z"/>
<path style="stroke:none; fill:#ffe285" d="M 367.2 280L 368 280.8L 367.2 280z"/>
<path style="stroke:none; fill:#8ab4d3" d="M 61.3334 281.066C 60.9778 281.422 61.8222 281.378 61.8666 281.334C 62.2222 280.978 61.3778 281.022 61.3334 281.066M 64.5334 281.866C 64.1778 282.222 65.0222 282.178 65.0666 282.134C 65.4222 281.778 64.5778 281.822 64.5334 281.866z"/>
<path style="stroke:none; fill:#a9c5df" d="M 68 282.4L 68 283.2L 72 283.2C 70.5848 282.577 69.5713 282.47 68 282.4z"/>
<path style="stroke:none; fill:#8ab4d3" d="M 72 282.4L 72 283.2L 102.4 283.2C 94.3712 279.831 80.7288 282.4 72 282.4z"/>
<path style="stroke:none; fill:#ffe89d" d="M 364.8 283.2L 365.6 284L 364.8 283.2z"/>
<path style="stroke:none; fill:#ffe285" d="M 364 284L 364.8 284.8L 364 284z"/>
<path style="stroke:none; fill:#ffde6c" d="M 363.2 284.8L 364 285.6L 363.2 284.8M 362.4 285.6L 363.2 286.4L 362.4 285.6M 361.6 286.4L 362.4 287.2L 361.6 286.4z"/>
<path style="stroke:none; fill:#ffe285" d="M 360.8 287.2L 361.6 288L 360.8 287.2z"/>
<path style="stroke:none; fill:#ffe89d" d="M 360 288L 360.8 288.8L 360 288z"/>
<path style="stroke:none; fill:#ffe285" d="M 357.6 289.6L 358.4 290.4L 357.6 289.6z"/>
<path style="stroke:none; fill:#ffe89d" d="M 355.2 291.2L 356 292L 355.2 291.2M 353.6 292L 354.4 292.8L 353.6 292z"/>
<path style="stroke:none; fill:#ffde6c" d="M 351.2 292.8L 352 293.6L 351.2 292.8z"/>
<path style="stroke:none; fill:#ffe89d" d="M 349.334 293.866C 348.978 294.222 349.822 294.178 349.866 294.134C 350.222 293.778 349.378 293.822 349.334 293.866z"/>
<path style="stroke:none; fill:#ffde6c" d="M 344.8 294.4L 344.8 295.2L 347.2 295.2C 346.202 294.652 345.962 294.601 344.8 294.4z"/>
<path style="stroke:none; fill:#ffe285" d="M 212 295.2L 212 296L 340.8 296C 330.874 291.835 313.212 295.2 302.4 295.2L 212 295.2z"/>
<path style="stroke:none; fill:#ffeebb" d="M 340.8 295.2L 340.8 296L 343.2 296C 342.202 295.452 341.962 295.401 340.8 295.2z"/>
<path style="stroke:none; fill:#ffd240" d="M 211.2 296L 211.2 321.6L 212 321.6C 212 314.129 214.089 302.885 211.2 296M 295.2 321.6L 295.2 341.6L 296 341.6C 296 335.602 297.526 327.142 295.2 321.6z"/>
<path style="stroke:none; fill:#ffde6c" d="M 250.4 336.8L 250.4 337.6L 252.8 337.6C 251.802 337.052 251.562 337.001 250.4 336.8z"/>
<path style="stroke:none; fill:#fff5d2" d="M 247.734 337.866C 247.378 338.222 248.222 338.178 248.266 338.134C 248.622 337.778 247.778 337.822 247.734 337.866z"/>
<path style="stroke:none; fill:#ffffff" d="M 248.8 337.974C 229.802 341.65 236.1 371.275 255.2 367.342C 274.053 363.458 267.714 334.315 248.8 337.974z"/>
<path style="stroke:none; fill:#ffeebb" d="M 257.6 338.4L 258.4 339.2L 257.6 338.4z"/>
<path style="stroke:none; fill:#ffe89d" d="M 259.2 339.2L 260 340L 259.2 339.2z"/>
<path style="stroke:none; fill:#ffde6c" d="M 242.4 340L 243.2 340.8L 242.4 340z"/>
<path style="stroke:none; fill:#ffe89d" d="M 241.6 340.8L 242.4 341.6L 241.6 340.8z"/>
<path style="stroke:none; fill:#ffde6c" d="M 261.6 340.8L 262.4 341.6L 261.6 340.8z"/>
<path style="stroke:none; fill:#ffeebb" d="M 240.8 341.6L 241.6 342.4L 240.8 341.6z"/>
<path style="stroke:none; fill:#ffe285" d="M 262.4 341.6L 263.2 342.4L 262.4 341.6M 295.2 341.6L 295.2 344L 296 344C 295.799 342.838 295.748 342.598 295.2 341.6M 240 342.4L 240.8 343.2L 240 342.4z"/>
<path style="stroke:none; fill:#ffde6c" d="M 128 343.2L 128 345.6L 128.8 345.6C 128.599 344.438 128.548 344.198 128 343.2z"/>
<path style="stroke:none; fill:#ffe285" d="M 238.4 344.8L 239.2 345.6L 238.4 344.8z"/>
<path style="stroke:none; fill:#ffde6c" d="M 264.8 344.8L 265.6 345.6L 264.8 344.8z"/>
<path style="stroke:none; fill:#ffe89d" d="M 237.6 346.4L 238.4 347.2L 237.6 346.4z"/>
<path style="stroke:none; fill:#ffde6c" d="M 265.6 346.4L 266.4 347.2L 265.6 346.4z"/>
<path style="stroke:none; fill:#ffe89d" d="M 294.666 346.934C 294.622 346.978 294.578 347.822 294.934 347.466C 294.978 347.422 295.022 346.578 294.666 346.934z"/>
<path style="stroke:none; fill:#fff5d2" d="M 129.066 348.534C 129.022 348.578 128.978 349.422 129.334 349.066C 129.378 349.022 129.422 348.178 129.066 348.534z"/>
<path style="stroke:none; fill:#ffeebb" d="M 237.066 349.334C 237.022 349.378 236.978 350.222 237.334 349.866C 237.378 349.822 237.422 348.978 237.066 349.334z"/>
<path style="stroke:none; fill:#ffe89d" d="M 266.4 348.8L 266.4 351.2L 267.2 351.2C 266.999 350.038 266.948 349.798 266.4 348.8z"/>
<path style="stroke:none; fill:#fff5d2" d="M 293.866 350.134C 293.822 350.178 293.778 351.022 294.134 350.666C 294.178 350.622 294.222 349.778 293.866 350.134z"/>
<path style="stroke:none; fill:#ffe285" d="M 129.6 350.4L 130.4 351.2L 129.6 350.4z"/>
<path style="stroke:none; fill:#ffde6c" d="M 130.4 352L 131.2 352.8L 130.4 352z"/>
<path style="stroke:none; fill:#ffe89d" d="M 292.8 352L 293.6 352.8L 292.8 352M 266.4 353.6L 266.4 356L 267.2 356C 266.999 354.838 266.948 354.598 266.4 353.6z"/>
<path style="stroke:none; fill:#ffe285" d="M 292 353.6L 292.8 354.4L 292 353.6z"/>
<path style="stroke:none; fill:#ffeebb" d="M 236.8 354.4L 236.8 356.8L 237.6 356.8C 237.399 355.638 237.348 355.398 236.8 354.4z"/>
<path style="stroke:none; fill:#ffe285" d="M 291.2 355.2L 292 356L 291.2 355.2M 132.8 356.8L 133.6 357.6L 132.8 356.8z"/>
<path style="stroke:none; fill:#ffeebb" d="M 290.4 356.8L 291.2 357.6L 290.4 356.8M 265.6 357.6L 266.4 358.4L 265.6 357.6z"/>
<path style="stroke:none; fill:#ffe285" d="M 237.6 358.4L 238.4 359.2L 237.6 358.4z"/>
<path style="stroke:none; fill:#ffe89d" d="M 134.4 359.2L 135.2 360L 134.4 359.2z"/>
<path style="stroke:none; fill:#ffeebb" d="M 288.8 359.2L 289.6 360L 288.8 359.2z"/>
<path style="stroke:none; fill:#ffe285" d="M 238.4 360L 239.2 360.8L 238.4 360z"/>
<path style="stroke:none; fill:#ffde6c" d="M 288 360L 288.8 360.8L 288 360z"/>
<path style="stroke:none; fill:#ffe285" d="M 240.8 363.2L 241.6 364L 240.8 363.2M 244 365.6L 244.8 366.4L 244 365.6z"/>
<path style="stroke:none; fill:#ffde6c" d="M 259.2 365.6L 260 366.4L 259.2 365.6z"/>
<path style="stroke:none; fill:#ffe89d" d="M 245.6 366.4L 246.4 367.2L 245.6 366.4z"/>
<path style="stroke:none; fill:#ffe285" d="M 257.6 366.4L 258.4 367.2L 257.6 366.4z"/>
<path style="stroke:none; fill:#ffeebb" d="M 248 367.2L 248 368L 250.4 368C 249.402 367.452 249.161 367.401 248 367.2M 253.6 367.2L 253.6 368L 256 368C 255.002 367.452 254.762 367.401 253.6 367.2z"/>
<path style="stroke:none; fill:#ffe285" d="M 143.2 368L 144 368.8L 143.2 368M 280 368L 280.8 368.8L 280 368z"/>
<path style="stroke:none; fill:#ffeebb" d="M 279.2 368.8L 280 369.6L 279.2 368.8z"/>
<path style="stroke:none; fill:#ffe89d" d="M 146.4 370.4L 147.2 371.2L 146.4 370.4M 276.8 370.4L 277.6 371.2L 276.8 370.4z"/>
<path style="stroke:none; fill:#ffde6c" d="M 148 371.2L 148.8 372L 148 371.2M 275.2 371.2L 276 372L 275.2 371.2z"/>
<path style="stroke:none; fill:#ffe89d" d="M 150.4 372.8L 151.2 373.6L 150.4 372.8M 272.8 372.8L 273.6 373.6L 272.8 372.8z"/>
<path style="stroke:none; fill:#ffe285" d="M 152 373.6L 152.8 374.4L 152 373.6M 271.2 373.6L 272 374.4L 271.2 373.6z"/>
<path style="stroke:none; fill:#ffde6c" d="M 153.6 374.4L 154.4 375.2L 153.6 374.4z"/>
<path style="stroke:none; fill:#ffe285" d="M 269.6 374.4L 270.4 375.2L 269.6 374.4z"/>
<path style="stroke:none; fill:#ffde6c" d="M 155.2 375.2L 156 376L 155.2 375.2z"/>
<path style="stroke:none; fill:#ffe285" d="M 268 375.2L 268.8 376L 268 375.2M 156.8 376L 157.6 376.8L 156.8 376z"/>
<path style="stroke:none; fill:#ffe89d" d="M 266.4 376L 267.2 376.8L 266.4 376M 158.4 376.8L 159.2 377.6L 158.4 376.8z"/>
<path style="stroke:none; fill:#ffde6c" d="M 264 376.8L 264.8 377.6L 264 376.8M 160.8 377.6L 161.6 378.4L 160.8 377.6z"/>
<path style="stroke:none; fill:#ffe285" d="M 262.4 377.6L 263.2 378.4L 262.4 377.6z"/>
<path style="stroke:none; fill:#ffe89d" d="M 162.4 378.4L 163.2 379.2L 162.4 378.4z"/>
<path style="stroke:none; fill:#ffde6c" d="M 260 378.4L 260.8 379.2L 260 378.4z"/>
<path style="stroke:none; fill:#ffe89d" d="M 164.8 379.2L 165.6 380L 164.8 379.2z"/>
<path style="stroke:none; fill:#ffde6c" d="M 257.6 379.2L 258.4 380L 257.6 379.2z"/>
<path style="stroke:none; fill:#ffe89d" d="M 167.2 380L 168 380.8L 167.2 380z"/>
<path style="stroke:none; fill:#ffde6c" d="M 255.2 380L 256 380.8L 255.2 380M 170.134 381.066C 169.778 381.422 170.622 381.378 170.666 381.334C 171.022 380.978 170.178 381.022 170.134 381.066z"/>
<path style="stroke:none; fill:#ffeebb" d="M 253.334 381.066C 252.978 381.422 253.822 381.378 253.866 381.334C 254.222 380.978 253.378 381.022 253.334 381.066z"/>
<path style="stroke:none; fill:#ffde6c" d="M 173.334 381.866C 172.978 382.222 173.822 382.178 173.866 382.134C 174.222 381.778 173.378 381.822 173.334 381.866z"/>
<path style="stroke:none; fill:#ffe89d" d="M 250.134 381.866C 249.778 382.222 250.622 382.178 250.666 382.134C 251.022 381.778 250.178 381.822 250.134 381.866z"/>
<path style="stroke:none; fill:#ffd240" d="M 176.534 382.666C 176.178 383.022 177.022 382.978 177.066 382.934C 177.422 382.578 176.578 382.622 176.534 382.666z"/>
<path style="stroke:none; fill:#ffe89d" d="M 246.934 382.666C 246.578 383.022 247.422 382.978 247.466 382.934C 247.822 382.578 246.978 382.622 246.934 382.666z"/>
<path style="stroke:none; fill:#ffe285" d="M 178.934 383.466C 178.578 383.822 179.422 383.778 179.466 383.734C 179.822 383.378 178.978 383.422 178.934 383.466z"/>
<path style="stroke:none; fill:#ffe89d" d="M 243.734 383.466C 243.378 383.822 244.222 383.778 244.266 383.734C 244.622 383.378 243.778 383.422 243.734 383.466z"/>
<path style="stroke:none; fill:#ffe285" d="M 182.934 384.266C 182.578 384.622 183.422 384.578 183.466 384.534C 183.822 384.178 182.978 384.222 182.934 384.266M 239.734 384.266C 239.378 384.622 240.222 384.578 240.266 384.534C 240.622 384.178 239.778 384.222 239.734 384.266M 186.4 384.8L 186.4 385.6L 188.8 385.6C 187.802 385.052 187.562 385.001 186.4 384.8z"/>
<path style="stroke:none; fill:#ffde6c" d="M 234.4 384.8L 234.4 385.6L 236.8 385.6C 235.802 385.052 235.562 385.001 234.4 384.8z"/>
<path style="stroke:none; fill:#ffe89d" d="M 190.4 385.6L 190.4 386.4L 192.8 386.4C 191.802 385.852 191.562 385.801 190.4 385.6z"/>
<path style="stroke:none; fill:#ffde6c" d="M 228.8 385.6L 228.8 386.4L 231.2 386.4C 230.202 385.852 229.962 385.801 228.8 385.6z"/>
<path style="stroke:none; fill:#ffeebb" d="M 231.734 385.866C 231.378 386.222 232.222 386.178 232.266 386.134C 232.622 385.778 231.778 385.822 231.734 385.866M 196.534 386.666C 196.178 387.022 197.022 386.978 197.066 386.934C 197.422 386.578 196.578 386.622 196.534 386.666z"/>
<path style="stroke:none; fill:#ffe285" d="M 198.134 386.666C 197.778 387.022 198.622 386.978 198.666 386.934C 199.022 386.578 198.178 386.622 198.134 386.666z"/>
<path style="stroke:none; fill:#ffde6c" d="M 199.2 386.4L 199.2 387.2L 201.6 387.2C 200.602 386.652 200.362 386.601 199.2 386.4M 220.8 386.4L 220.8 387.2L 224.8 387.2C 223.385 386.577 222.371 386.47 220.8 386.4z"/>
<path style="stroke:none; fill:#ffeebb" d="M 224.8 386.4L 224.8 387.2L 227.2 387.2C 226.202 386.652 225.962 386.601 224.8 386.4M 204 387.2L 204 388L 216 388C 212.423 386.499 207.854 387.2 204 387.2z"/>
</g>
</svg>