<?xml version="1.0" encoding="UTF-8" standalone="yes"?>
<!-- Created with sK1/UniConvertor (http://sk1project.org/) -->
<svg xmlns="http://www.w3.org/2000/svg" xmlns:xlink="http://www.w3.org/1999/xlink"
  width="124pt" height="124pt" viewBox="0 0 960 960"
  fill-rule="evenodd">
<g>
<path style="stroke:none; fill:none" d="M 0 0L 0 130.4L 0.8 130.4C 0.91772 116.179 6.1247 100.95 11.663 88C 30.9452 42.9124 80.0288 1.22351 131.2 0.799988C 121.084 -3.44495 103.021 0 92 0L 0 0z"/>
<path style="stroke:none; fill:#c5dce8" d="M 131.2 0L 131.2 0.799988L 133.6 0.799988C 132.601 0.251953 132.362 0.200989 131.2 0z"/>
<path style="stroke:none; fill:#85b7cf" d="M 133.6 0L 133.6 0.799988L 136 0.799988C 135.001 0.251953 134.762 0.200989 133.6 0z"/>
<path style="stroke:none; fill:#4691b6" d="M 136 0L 136 0.799988L 141.6 0.799988C 139.734 0.0123901 138.034 0.0150146 136 0z"/>
<path style="stroke:none; fill:#1674a1" d="M 141.6 0L 141.6 0.799988L 818.4 0.799988C 813.248 -1.36053 805.56 0 800 0L 760.8 0L 622.4 0L 141.6 0z"/>
<path style="stroke:none; fill:#4691b6" d="M 818.4 0L 818.4 0.799988L 823.2 0.799988C 821.56 0.100586 820.2 0.0377808 818.4 0z"/>
<path style="stroke:none; fill:#79adc8" d="M 823.736 0.266724C 823.376 0.621948 824.224 0.577759 824.264 0.533325C 824.624 0.17804 823.776 0.222046 823.736 0.266724z"/>
<path style="stroke:none; fill:#a8c9dc" d="M 825.336 0.266724C 824.976 0.621948 825.824 0.57782 825.864 0.533325C 826.224 0.178101 825.376 0.221985 825.336 0.266724z"/>
<path style="stroke:none; fill:#c5dce8" d="M 826.4 0L 826.4 0.799988L 828.8 0.799988C 827.8 0.252075 827.56 0.200989 826.4 0z"/>
<path style="stroke:none; fill:none" d="M 828.8 0L 828.8 0.799988C 879.976 1.22351 929.056 42.9178 948.336 88C 953.872 100.95 959.08 116.179 959.2 130.4L 960 130.4L 960 0L 828.8 0z"/>
<path style="stroke:none; fill:#a8c9dc" d="M 125.334 1.06671C 124.978 1.42224 125.822 1.37775 125.866 1.33331C 126.222 0.978027 125.378 1.02209 125.334 1.06671z"/>
<path style="stroke:none; fill:#67a2c2" d="M 126.4 0.799988L 126.4 1.59998L 128.8 1.59998C 127.801 1.05194 127.562 1.00098 126.4 0.799988z"/>
<path style="stroke:none; fill:#016799" d="M 128.8 1.14014C 67.3487 9.50482 15.0357 53.8278 3.04259 116C -1.70148 140.594 0 166.263 0 191.2L 0 308L 0 680.8L 0 776.8C 0 821.176 0.62619 862.336 27.542 900C 47.7355 928.256 79.3771 949.552 113.6 956.44C 131.094 959.96 148.65 959.2 166.4 959.2L 239.2 959.2L 640 959.2L 768 959.2C 792.186 959.2 817.736 961.568 841.6 957.264C 901.312 946.488 949.624 897.08 958.168 836.8C 961.56 812.912 960 788.098 960 764L 960 645.6L 960 276L 960 184C 960 136.827 958.984 93.2568 928.264 54.4C 908.968 29.9886 880.744 11.6946 850.4 4.52344C 831.096 -0.038269 811.688 0.799988 792 0.799988L 713.6 0.799988L 321.6 0.799988L 193.6 0.799988C 172.524 0.799988 149.674 -1.70129 128.8 1.14014z"/>
<path style="stroke:none; fill:#4691b6" d="M 830.4 0.799988L 830.4 1.59998L 832.8 1.59998C 831.8 1.05212 831.56 1.00085 830.4 0.799988z"/>
<path style="stroke:none; fill:#a8c9dc" d="M 832.8 0.799988L 832.8 1.59998L 835.2 1.59998C 834.2 1.05225 833.96 1.00085 832.8 0.799988z"/>
<path style="stroke:none; fill:#85b7cf" d="M 120.534 1.8667C 120.178 2.22217 121.022 2.17773 121.066 2.1333C 121.422 1.77795 120.578 1.82214 120.534 1.8667z"/>
<path style="stroke:none; fill:#287ca9" d="M 122.134 1.8667C 121.778 2.22229 122.622 2.17773 122.666 2.1333C 123.022 1.77795 122.178 1.82214 122.134 1.8667z"/>
<path style="stroke:none; fill:#559bba" d="M 837.336 1.8667C 836.976 2.22229 837.824 2.17755 837.864 2.1333C 838.224 1.77783 837.376 1.82239 837.336 1.8667z"/>
<path style="stroke:none; fill:#b6d2df" d="M 838.936 1.8667C 838.576 2.22205 839.424 2.17786 839.464 2.1333C 839.824 1.77795 838.976 1.82214 838.936 1.8667z"/>
<path style="stroke:none; fill:#96c1d4" d="M 115.734 2.66669C 115.378 3.02228 116.222 2.97772 116.266 2.93329C 116.622 2.57794 115.778 2.62238 115.734 2.66669z"/>
<path style="stroke:none; fill:#3885ae" d="M 117.334 2.66669C 116.978 3.02216 117.822 2.97772 117.866 2.93329C 118.222 2.57794 117.378 2.62238 117.334 2.66669z"/>
<path style="stroke:none; fill:#67a2c2" d="M 841.6 2.40002L 841.6 3.20001L 844 3.20001C 843 2.65204 842.76 2.60095 841.6 2.40002z"/>
<path style="stroke:none; fill:#79adc8" d="M 112.534 3.46667C 112.178 3.82227 113.022 3.77753 113.066 3.73328C 113.422 3.37793 112.578 3.42218 112.534 3.46667z"/>
<path style="stroke:none; fill:#4691b6" d="M 845.6 3.20001L 846.4 4L 845.6 3.20001z"/>
<path style="stroke:none; fill:#b6d2df" d="M 846.936 3.46667C 846.576 3.82214 847.424 3.77765 847.464 3.73328C 847.824 3.37805 846.976 3.42206 846.936 3.46667z"/>
<path style="stroke:none; fill:#67a2c2" d="M 109.334 4.26672C 108.978 4.62225 109.822 4.57764 109.866 4.53333C 110.222 4.17773 109.378 4.22229 109.334 4.26672M 849.6 4L 850.4 4.79999L 849.6 4z"/>
<path style="stroke:none; fill:#a8c9dc" d="M 850.4 4L 851.2 4.79999L 850.4 4z"/>
<path style="stroke:none; fill:#b6d2df" d="M 105.6 4.79999L 106.4 5.59998L 105.6 4.79999z"/>
<path style="stroke:none; fill:#79adc8" d="M 106.4 4.79999L 107.2 5.59998L 106.4 4.79999M 852.8 4.79999L 853.6 5.59998L 852.8 4.79999z"/>
<path style="stroke:none; fill:#b6d2df" d="M 853.6 4.79999L 854.4 5.59998L 853.6 4.79999z"/>
<path style="stroke:none; fill:#96c1d4" d="M 103.2 5.59998L 104 6.40002L 103.2 5.59998z"/>
<path style="stroke:none; fill:#4691b6" d="M 104 5.59998L 104.8 6.40002L 104 5.59998M 855.2 5.59998L 856 6.40002L 855.2 5.59998z"/>
<path style="stroke:none; fill:#96c1d4" d="M 856 5.59998L 856.8 6.40002L 856 5.59998z"/>
<path style="stroke:none; fill:#79adc8" d="M 100.8 6.40002L 101.6 7.20001L 100.8 6.40002M 858.4 6.40002L 859.2 7.20001L 858.4 6.40002M 98.4 7.20001L 99.2 8L 98.4 7.20001z"/>
<path style="stroke:none; fill:#85b7cf" d="M 860.8 7.20001L 861.6 8L 860.8 7.20001M 96 8L 96.8 8.79999L 96 8M 863.2 8L 864 8.79999L 863.2 8z"/>
<path style="stroke:none; fill:#96c1d4" d="M 93.6 8.79999L 94.4 9.59998L 93.6 8.79999M 865.6 8.79999L 866.4 9.59998L 865.6 8.79999z"/>
<path style="stroke:none; fill:#67a2c2" d="M 92 9.59998L 92.8 10.4L 92 9.59998M 867.2 9.59998L 868 10.4L 867.2 9.59998z"/>
<path style="stroke:none; fill:#96c1d4" d="M 89.6 10.4L 90.4 11.2L 89.6 10.4M 869.6 10.4L 870.4 11.2L 869.6 10.4z"/>
<path style="stroke:none; fill:#67a2c2" d="M 88 11.2L 88.8 12L 88 11.2M 871.2 11.2L 872 12L 871.2 11.2z"/>
<path style="stroke:none; fill:#b6d2df" d="M 85.6 12L 86.4 12.8L 85.6 12z"/>
<path style="stroke:none; fill:#4691b6" d="M 86.4 12L 87.2 12.8L 86.4 12M 872.8 12L 873.6 12.8L 872.8 12z"/>
<path style="stroke:none; fill:#b6d2df" d="M 873.6 12L 874.4 12.8L 873.6 12z"/>
<path style="stroke:none; fill:#a8c9dc" d="M 84 12.8L 84.8 13.6L 84 12.8M 875.2 12.8L 876 13.6L 875.2 12.8z"/>
<path style="stroke:none; fill:#85b7cf" d="M 82.4 13.6L 83.2 14.4L 82.4 13.6M 876.8 13.6L 877.6 14.4L 876.8 13.6M 80.8 14.4L 81.6 15.2L 80.8 14.4M 878.4 14.4L 879.2 15.2L 878.4 14.4M 79.2 15.2L 80 16L 79.2 15.2M 880 15.2L 880.8 16L 880 15.2z"/>
<path style="stroke:none; fill:#96c1d4" d="M 77.6 16L 78.4 16.8L 77.6 16M 881.6 16L 882.4 16.8L 881.6 16M 76 16.8L 76.8 17.6L 76 16.8M 883.2 16.8L 884 17.6L 883.2 16.8z"/>
<path style="stroke:none; fill:#b6d2df" d="M 74.4 17.6L 75.2 18.4L 74.4 17.6M 884.8 17.6L 885.6 18.4L 884.8 17.6z"/>
<path style="stroke:none; fill:#4691b6" d="M 73.6 18.4L 74.4 19.2L 73.6 18.4M 885.6 18.4L 886.4 19.2L 885.6 18.4z"/>
<path style="stroke:none; fill:#67a2c2" d="M 72 19.2L 72.8 20L 72 19.2M 887.2 19.2L 888 20L 887.2 19.2z"/>
<path style="stroke:none; fill:#85b7cf" d="M 70.4 20L 71.2 20.8L 70.4 20z"/>
<path style="stroke:none; fill:#96c1d4" d="M 888.8 20L 889.6 20.8L 888.8 20z"/>
<path style="stroke:none; fill:#c5dce8" d="M 68.8 20.8L 69.6 21.6L 68.8 20.8M 890.4 20.8L 891.2 21.6L 890.4 20.8z"/>
<path style="stroke:none; fill:#67a2c2" d="M 68 21.6L 68.8 22.4L 68 21.6M 891.2 21.6L 892 22.4L 891.2 21.6z"/>
<path style="stroke:none; fill:#b6d2df" d="M 66.4 22.4L 67.2 23.2L 66.4 22.4M 892.8 22.4L 893.6 23.2L 892.8 22.4z"/>
<path style="stroke:none; fill:#559bba" d="M 65.6 23.2L 66.4 24L 65.6 23.2M 893.6 23.2L 894.4 24L 893.6 23.2z"/>
<path style="stroke:none; fill:#96c1d4" d="M 64 24L 64.8 24.8L 64 24M 895.2 24L 896 24.8L 895.2 24z"/>
<path style="stroke:none; fill:#4691b6" d="M 63.2 24.8L 64 25.6L 63.2 24.8M 896 24.8L 896.8 25.6L 896 24.8z"/>
<path style="stroke:none; fill:#b6d2df" d="M 61.6 25.6L 62.4 26.4L 61.6 25.6M 897.6 25.6L 898.4 26.4L 897.6 25.6z"/>
<path style="stroke:none; fill:#67a2c2" d="M 60.8 26.4L 61.6 27.2L 60.8 26.4M 898.4 26.4L 899.2 27.2L 898.4 26.4z"/>
<path style="stroke:none; fill:#85b7cf" d="M 58.4 28L 59.2 28.8L 58.4 28M 900.8 28L 901.6 28.8L 900.8 28z"/>
<path style="stroke:none; fill:#4691b6" d="M 57.6 28.8L 58.4 29.6L 57.6 28.8M 901.6 28.8L 902.4 29.6L 901.6 28.8z"/>
<path style="stroke:none; fill:#a8c9dc" d="M 55.2 30.4L 56 31.2L 55.2 30.4M 904 30.4L 904.8 31.2L 904 30.4z"/>
<path style="stroke:none; fill:#67a2c2" d="M 54.4 31.2L 55.2 32L 54.4 31.2M 904.8 31.2L 905.6 32L 904.8 31.2z"/>
<path style="stroke:none; fill:#3885ae" d="M 905.6 32L 906.4 32.8L 905.6 32z"/>
<path style="stroke:none; fill:#a8c9dc" d="M 51.2 33.6L 52 34.4L 51.2 33.6z"/>
<path style="stroke:none; fill:#b6d2df" d="M 908 33.6L 908.8 34.4L 908 33.6z"/>
<path style="stroke:none; fill:#85b7cf" d="M 50.4 34.4L 51.2 35.2L 50.4 34.4M 908.8 34.4L 909.6 35.2L 908.8 34.4z"/>
<path style="stroke:none; fill:#67a2c2" d="M 49.6 35.2L 50.4 36L 49.6 35.2M 909.6 35.2L 910.4 36L 909.6 35.2z"/>
<path style="stroke:none; fill:#4691b6" d="M 48.8 36L 49.6 36.8L 48.8 36M 910.4 36L 911.2 36.8L 910.4 36z"/>
<path style="stroke:none; fill:#b6d2df" d="M 43.2 40.8L 44 41.6L 43.2 40.8z"/>
<path style="stroke:none; fill:#3885ae" d="M 241.6 40.8L 241.6 41.6L 418.4 41.6C 413.639 39.6022 406.736 40.8 401.6 40.8L 366.4 40.8L 241.6 40.8z"/>
<path style="stroke:none; fill:#287ca9" d="M 418.4 40.8L 418.4 41.6L 616.8 41.6L 616.8 42.4C 603.045 44.4315 589.175 51.3417 576 55.7333L 487.2 86.1336C 435.108 103.561 382.948 121.029 331.2 139.446C 309.378 147.213 285.783 152.587 264.8 162.4L 264.8 163.2C 272.337 166.556 279.618 169.316 286.4 174.197C 289.628 176.52 293.586 181.681 297.6 182.303C 306.087 183.618 321.418 174.727 329.6 172L 412.8 143.466C 511.658 110.394 609.678 74.6547 708.8 42.4C 702.497 39.7551 692.427 41.6 685.6 41.6C 667.787 41.6 649.794 42.3478 632 41.5685C 561.055 38.4617 489.458 40.8 418.4 40.8z"/>
<path style="stroke:none; fill:#1674a1" d="M 628 40.8L 628 41.6L 707.2 41.6C 700.706 38.8747 690.238 40.8 683.2 40.8L 628 40.8z"/>
<path style="stroke:none; fill:#c5dce8" d="M 916 40.8L 916.8 41.6L 916 40.8z"/>
<path style="stroke:none; fill:#b6d2df" d="M 42.4 41.6L 43.2 42.4L 42.4 41.6z"/>
<path style="stroke:none; fill:#3885ae" d="M 230.4 41.6L 230.4 42.4L 234.4 42.4C 232.985 41.7769 231.971 41.6701 230.4 41.6z"/>
<path style="stroke:none; fill:#67a2c2" d="M 83.2 125.6C 107.2 119.05 130.96 109.696 154.4 101.354C 193.386 87.4784 232.742 74.4192 272 61.3333C 290.486 55.1712 309.015 46.7919 328 42.4C 323.045 40.3207 315.749 41.6 310.4 41.6L 272.8 41.6C 260.682 41.6 248.062 40.5878 236 41.7358C 194.418 45.6934 155.853 60.1625 122.4 85.3016C 109.03 95.3488 89.8824 109.813 83.2 125.6z"/>
<path style="stroke:none; fill:#559bba" d="M 82.4 124.8C 74.6239 137.287 59.9578 151.991 58.4 167.2C 71.0421 165.025 83.8816 158.882 96 154.675L 160.8 132.554C 212.546 114.137 265.054 97.8632 316.8 79.4464L 380 57.8463C 394.868 52.5546 410.234 45.9548 425.6 42.4C 420.451 40.2394 412.761 41.6 407.2 41.6L 368 41.6C 355.394 41.6 341.232 39.7886 328.8 41.8605C 310.286 44.9461 291.4 54.5782 273.6 60.5333C 233.806 73.8468 194.042 87.3136 154.4 101.075L 105.6 117.866C 98.36 120.28 90.0448 124.534 82.4 124.8z"/>
<path style="stroke:none; fill:#4691b6" d="M 57.6 165.6C 52.6722 178.302 45.1998 191.84 44 205.6C 75.9698 198.204 107.271 183.986 138.4 173.6C 221.198 145.974 304.17 118.313 386.4 89.0464C 417.449 77.9958 448.733 67.4912 480 57.0667C 494.27 52.3092 508.571 45.8665 523.2 42.4C 517.281 39.916 508.006 41.6 501.6 41.6L 452 41.6C 443.727 41.6 434.566 40.4995 426.4 41.8605C 418.033 43.2549 409.643 47.4523 401.6 50.1333L 344.8 69.5975C 285.866 89.6776 227.064 110.178 168 129.866L 87.2 157.598C 80.2344 159.971 64.4722 168.518 57.6 165.6z"/>
<path style="stroke:none; fill:#3885ae" d="M 43.2 205.6C 41.6724 217.429 38.6481 228.781 38.4 240.8C 62.3727 236.675 87.4632 224.717 110.4 216.554C 126.438 210.846 145.701 207.499 160.63 199.36C 165.87 196.503 169.506 187.63 173.672 183.203C 181.654 174.722 192.296 168.314 203.2 164.349C 216.721 159.432 231.315 158.27 245.6 159.271C 251.66 159.696 259.758 163.858 265.6 162.242C 300.046 152.71 334.305 138.946 368 126.954C 419.477 108.633 471.581 92.0448 523.2 74.1247C 553.841 63.4875 585.205 49.7092 616.8 42.4C 612.825 40.7319 607.48 41.6 603.2 41.6L 574.4 41.6C 558.23 41.6 539.94 39.199 524 41.8605C 515.457 43.287 506.638 47.6541 498.4 50.4L 439.2 70.6667C 348.592 100.87 258.408 132.398 168 163.202L 80.8 193.066C 68.3616 197.213 55.9847 202.642 43.2 205.6z"/>
<path style="stroke:none; fill:#1674a1" d="M 297.6 182.4C 302.322 194.61 311.598 203.262 314.4 216.8C 419.66 182.55 524.022 145.298 628.8 109.598L 726.4 76.266C 740.634 71.4747 754.974 64.9851 769.6 61.6C 765.309 55.3107 751.019 52.7172 744 50.4006C 733.89 47.0638 720.356 41.6483 709.6 42.2457C 702.989 42.6129 695.842 46.7172 689.6 48.8L 644 64.2667C 565.701 90.3664 487.572 117.206 409.6 144.275L 343.2 166.954C 328.32 172.25 312.982 178.842 297.6 182.4z"/>
<path style="stroke:none; fill:#b6d2df" d="M 916.8 41.6L 917.6 42.4L 916.8 41.6M 41.6 42.4L 42.4 43.2L 41.6 42.4z"/>
<path style="stroke:none; fill:#4691b6" d="M 224 42.4L 224 43.2L 227.2 43.2C 225.995 42.6535 225.348 42.5393 224 42.4z"/>
<path style="stroke:none; fill:#b6d2df" d="M 917.6 42.4L 918.4 43.2L 917.6 42.4M 40.8 43.2L 41.6 44L 40.8 43.2z"/>
<path style="stroke:none; fill:#559bba" d="M 219.2 43.2L 219.2 44L 222.4 44C 221.195 43.4535 220.548 43.3393 219.2 43.2z"/>
<path style="stroke:none; fill:#b6d2df" d="M 918.4 43.2L 919.2 44L 918.4 43.2z"/>
<path style="stroke:none; fill:#3885ae" d="M 214.934 44.2667C 214.578 44.6218 215.422 44.5778 215.466 44.5333C 215.822 44.1777 214.978 44.2224 214.934 44.2667M 210.934 45.0667C 210.578 45.422 211.422 45.3777 211.466 45.3333C 211.822 44.9778 210.978 45.0224 210.934 45.0667M 206.4 45.6L 206.4 46.4L 208.8 46.4C 207.801 45.8521 207.562 45.801 206.4 45.6z"/>
<path style="stroke:none; fill:#4691b6" d="M 203.734 46.6667C 203.378 47.0221 204.222 46.9778 204.266 46.9333C 204.622 46.5779 203.778 46.6221 203.734 46.6667M 200.534 47.4667C 200.178 47.8223 201.022 47.7778 201.066 47.7333C 201.422 47.3779 200.578 47.4222 200.534 47.4667M 197.334 48.2667C 196.978 48.6223 197.822 48.5775 197.866 48.5333C 198.222 48.1779 197.378 48.2222 197.334 48.2667M 36 48.8L 36.8 49.6L 36 48.8M 923.2 48.8L 924 49.6L 923.2 48.8z"/>
<path style="stroke:none; fill:#67a2c2" d="M 35.2 49.6L 36 50.4L 35.2 49.6z"/>
<path style="stroke:none; fill:#4691b6" d="M 191.734 49.8667C 191.378 50.2222 192.222 50.1775 192.266 50.1333C 192.622 49.778 191.778 49.8221 191.734 49.8667z"/>
<path style="stroke:none; fill:#67a2c2" d="M 924 49.6L 924.8 50.4L 924 49.6z"/>
<path style="stroke:none; fill:#85b7cf" d="M 34.4 50.4L 35.2 51.2L 34.4 50.4M 924.8 50.4L 925.6 51.2L 924.8 50.4z"/>
<path style="stroke:none; fill:#a8c9dc" d="M 33.6 51.2L 34.4 52L 33.6 51.2z"/>
<path style="stroke:none; fill:#b6d2df" d="M 925.6 51.2L 926.4 52L 925.6 51.2z"/>
<path style="stroke:none; fill:#67a2c2" d="M 31.2 54.4L 32 55.2L 31.2 54.4M 928 54.4L 928.8 55.2L 928 54.4z"/>
<path style="stroke:none; fill:#96c1d4" d="M 30.4 55.2L 31.2 56L 30.4 55.2z"/>
<path style="stroke:none; fill:#a8c9dc" d="M 928.8 55.2L 929.6 56L 928.8 55.2z"/>
<path style="stroke:none; fill:#4691b6" d="M 28.8 57.6L 29.6 58.4L 28.8 57.6M 930.4 57.6L 931.2 58.4L 930.4 57.6z"/>
<path style="stroke:none; fill:#85b7cf" d="M 28 58.4L 28.8 59.2L 28 58.4M 931.2 58.4L 932 59.2L 931.2 58.4z"/>
<path style="stroke:none; fill:#67a2c2" d="M 26.4 60.8L 27.2 61.6L 26.4 60.8M 932.8 60.8L 933.6 61.6L 932.8 60.8z"/>
<path style="stroke:none; fill:#b6d2df" d="M 25.6 61.6L 26.4 62.4L 25.6 61.6M 933.6 61.6L 934.4 62.4L 933.6 61.6z"/>
<path style="stroke:none; fill:#4691b6" d="M 24.8 63.2L 25.6 64L 24.8 63.2M 934.4 63.2L 935.2 64L 934.4 63.2z"/>
<path style="stroke:none; fill:#96c1d4" d="M 24 64L 24.8 64.8L 24 64M 935.2 64L 936 64.8L 935.2 64z"/>
<path style="stroke:none; fill:#4691b6" d="M 23.2 65.6L 24 66.4L 23.2 65.6z"/>
<path style="stroke:none; fill:#559bba" d="M 936 65.6L 936.8 66.4L 936 65.6z"/>
<path style="stroke:none; fill:#a8c9dc" d="M 22.4 66.4L 23.2 67.2L 22.4 66.4z"/>
<path style="stroke:none; fill:#b6d2df" d="M 936.8 66.4L 937.6 67.2L 936.8 66.4z"/>
<path style="stroke:none; fill:#67a2c2" d="M 21.6 68L 22.4 68.8L 21.6 68M 937.6 68L 938.4 68.8L 937.6 68z"/>
<path style="stroke:none; fill:#b6d2df" d="M 20.8 68.8L 21.6 69.6L 20.8 68.8z"/>
<path style="stroke:none; fill:#c5dce8" d="M 938.4 68.8L 939.2 69.6L 938.4 68.8z"/>
<path style="stroke:none; fill:#85b7cf" d="M 20 70.4L 20.8 71.2L 20 70.4M 939.2 70.4L 940 71.2L 939.2 70.4z"/>
<path style="stroke:none; fill:#67a2c2" d="M 19.2 72L 20 72.8L 19.2 72M 940 72L 940.8 72.8L 940 72z"/>
<path style="stroke:none; fill:#3885ae" d="M 18.4 73.6L 19.2 74.4L 18.4 73.6z"/>
<path style="stroke:none; fill:#4691b6" d="M 940.8 73.6L 941.6 74.4L 940.8 73.6z"/>
<path style="stroke:none; fill:#a8c9dc" d="M 17.6 74.4L 18.4 75.2L 17.6 74.4z"/>
<path style="stroke:none; fill:#b6d2df" d="M 941.6 74.4L 942.4 75.2L 941.6 74.4z"/>
<path style="stroke:none; fill:#85b7cf" d="M 16.8 76L 17.6 76.8L 16.8 76z"/>
<path style="stroke:none; fill:#96c1d4" d="M 942.4 76L 943.2 76.8L 942.4 76z"/>
<path style="stroke:none; fill:#85b7cf" d="M 16 77.6L 16.8 78.4L 16 77.6M 943.2 77.6L 944 78.4L 943.2 77.6M 15.2 79.2L 16 80L 15.2 79.2M 944 79.2L 944.8 80L 944 79.2z"/>
<path style="stroke:none; fill:#79adc8" d="M 14.4 80.8L 15.2 81.6L 14.4 80.8M 944.8 80.8L 945.6 81.6L 944.8 80.8z"/>
<path style="stroke:none; fill:#85b7cf" d="M 13.6 82.4L 14.4 83.2L 13.6 82.4M 945.6 82.4L 946.4 83.2L 945.6 82.4z"/>
<path style="stroke:none; fill:#96c1d4" d="M 12.8 84L 13.6 84.8L 12.8 84M 946.4 84L 947.2 84.8L 946.4 84z"/>
<path style="stroke:none; fill:#b6d2df" d="M 12 85.6L 12.8 86.4L 12 85.6M 947.2 85.6L 948 86.4L 947.2 85.6z"/>
<path style="stroke:none; fill:#4691b6" d="M 12 86.4L 12.8 87.2L 12 86.4M 947.2 86.4L 948 87.2L 947.2 86.4z"/>
<path style="stroke:none; fill:#559bba" d="M 11.2 88L 12 88.8L 11.2 88M 948 88L 948.8 88.8L 948 88z"/>
<path style="stroke:none; fill:#85b7cf" d="M 10.4 89.6L 11.2 90.4L 10.4 89.6M 948.8 89.6L 949.6 90.4L 948.8 89.6z"/>
<path style="stroke:none; fill:#c5dce8" d="M 9.6 91.2L 10.4 92L 9.6 91.2M 949.6 91.2L 950.4 92L 949.6 91.2z"/>
<path style="stroke:none; fill:#559bba" d="M 9.6 92L 10.4 92.8L 9.6 92M 949.6 92L 950.4 92.8L 949.6 92z"/>
<path style="stroke:none; fill:#96c1d4" d="M 8.8 93.6L 9.6 94.4L 8.8 93.6M 950.4 93.6L 951.2 94.4L 950.4 93.6z"/>
<path style="stroke:none; fill:#79adc8" d="M 8 96L 8.8 96.8L 8 96M 951.2 96L 952 96.8L 951.2 96M 7.2 98.4L 8 99.2L 7.2 98.4M 952 98.4L 952.8 99.2L 952 98.4M 6.4 100.8L 7.2 101.6L 6.4 100.8M 952.8 100.8L 953.6 101.6L 952.8 100.8z"/>
<path style="stroke:none; fill:#85b7cf" d="M 5.6 103.2L 6.4 104L 5.6 103.2M 953.6 103.2L 954.4 104L 953.6 103.2z"/>
<path style="stroke:none; fill:#4691b6" d="M 5.6 104L 6.4 104.8L 5.6 104M 953.6 104L 954.4 104.8L 953.6 104z"/>
<path style="stroke:none; fill:#b6d2df" d="M 4.8 105.6L 5.6 106.4L 4.8 105.6M 954.4 105.6L 955.2 106.4L 954.4 105.6z"/>
<path style="stroke:none; fill:#67a2c2" d="M 4.8 106.4L 5.6 107.2L 4.8 106.4M 954.4 106.4L 955.2 107.2L 954.4 106.4z"/>
<path style="stroke:none; fill:#96c1d4" d="M 4 108.8L 4.8 109.6L 4 108.8M 955.2 108.8L 956 109.6L 955.2 108.8z"/>
<path style="stroke:none; fill:#287ca9" d="M 955.464 110.134C 955.424 110.178 955.376 111.022 955.736 110.666C 955.776 110.622 955.824 109.778 955.464 110.134z"/>
<path style="stroke:none; fill:#67a2c2" d="M 3.46666 112.534C 3.42206 112.578 3.37786 113.422 3.73334 113.066C 3.77765 113.022 3.82229 112.178 3.46666 112.534z"/>
<path style="stroke:none; fill:#a8c9dc" d="M 956 112L 956.8 112.8L 956 112z"/>
<path style="stroke:none; fill:#3885ae" d="M 956.264 113.334C 956.224 113.378 956.176 114.222 956.536 113.866C 956.576 113.822 956.624 112.978 956.264 113.334z"/>
<path style="stroke:none; fill:#85b7cf" d="M 2.4 115.2L 2.4 117.6L 3.2 117.6C 2.99909 116.439 2.94778 116.198 2.4 115.2M 956.8 115.2L 956.8 117.6L 957.6 117.6C 957.4 116.439 957.344 116.198 956.8 115.2z"/>
<path style="stroke:none; fill:#79adc8" d="M 1.6 120L 1.6 122.4L 2.4 122.4C 2.19905 121.238 2.14785 120.998 1.6 120M 957.6 120L 957.6 122.4L 958.4 122.4C 958.2 121.238 958.144 120.998 957.6 120z"/>
<path style="stroke:none; fill:#b6d2df" d="M 0.8 124L 0.8 126.4L 1.6 126.4C 1.39903 125.238 1.34785 124.998 0.8 124M 958.664 124.534C 958.624 124.578 958.576 125.422 958.936 125.066C 958.976 125.022 959.024 124.178 958.664 124.534z"/>
<path style="stroke:none; fill:#79adc8" d="M 958.4 125.6L 958.4 128L 959.2 128C 959 126.838 958.944 126.598 958.4 125.6z"/>
<path style="stroke:none; fill:#559bba" d="M 0.8 126.4L 0.8 128.8L 1.6 128.8C 1.39903 127.638 1.34785 127.398 0.8 126.4z"/>
<path style="stroke:none; fill:#c5dce8" d="M 0 130.4L 0 132.8L 0.8 132.8C 0.599049 131.638 0.54785 131.398 0 130.4M 959.2 130.4L 959.2 132.8L 960 132.8C 959.8 131.638 959.752 131.399 959.2 130.4z"/>
<path style="stroke:none; fill:#96c1d4" d="M 0 132.8L 0 135.2L 0.8 135.2C 0.599049 134.038 0.54785 133.798 0 132.8M 959.464 133.334C 959.424 133.378 959.376 134.222 959.736 133.866C 959.776 133.822 959.824 132.978 959.464 133.334z"/>
<path style="stroke:none; fill:#67a2c2" d="M 959.464 134.934C 959.424 134.978 959.376 135.822 959.736 135.466C 959.776 135.422 959.824 134.578 959.464 134.934z"/>
<path style="stroke:none; fill:#3885ae" d="M 0 135.2L 0 140L 0.8 140C 0.762231 138.198 0.6994 136.842 0 135.2z"/>
<path style="stroke:none; fill:#287ca9" d="M 959.2 136L 959.2 140.8L 960 140.8C 959.96 138.998 959.896 137.642 959.2 136z"/>
<path style="stroke:none; fill:#67a2c2" d="M 222.4 159.2L 222.4 160L 224.8 160C 223.802 159.452 223.562 159.401 222.4 159.2z"/>
<path style="stroke:none; fill:#c5dce8" d="M 224.8 159.2L 224.8 160L 228.8 160C 227.385 159.377 226.371 159.27 224.8 159.2z"/>
<path style="stroke:none; fill:#ffffff" d="M 228.8 159.539C 212.268 161.711 197.102 164.758 183.2 174.742C 147.935 200.069 143.288 257.678 175.231 287.864C 195.29 306.82 223.007 311.879 249.6 308.571C 260.583 307.205 271.184 303.641 280.8 298.17C 318.442 276.758 327.525 222.92 301.68 188.8C 285.516 167.46 255.297 156.058 228.8 159.539z"/>
<path style="stroke:none; fill:#c5dce8" d="M 240.8 159.2L 240.8 160L 244.8 160C 243.385 159.377 242.371 159.27 240.8 159.2z"/>
<path style="stroke:none; fill:#96c1d4" d="M 245.334 159.466C 244.978 159.822 245.822 159.778 245.866 159.734C 246.222 159.378 245.378 159.422 245.334 159.466z"/>
<path style="stroke:none; fill:#67a2c2" d="M 246.4 159.2L 246.4 160L 248.8 160C 247.802 159.452 247.562 159.401 246.4 159.2z"/>
<path style="stroke:none; fill:#96c1d4" d="M 218.134 160.266C 217.778 160.622 218.622 160.578 218.666 160.534C 219.022 160.178 218.178 160.222 218.134 160.266z"/>
<path style="stroke:none; fill:#c5dce8" d="M 219.734 160.266C 219.378 160.622 220.222 160.578 220.266 160.534C 220.622 160.178 219.778 160.222 219.734 160.266z"/>
<path style="stroke:none; fill:#a8c9dc" d="M 250.4 160L 250.4 160.8L 252.8 160.8C 251.802 160.252 251.562 160.201 250.4 160M 214.134 161.066C 213.778 161.422 214.622 161.378 214.666 161.334C 215.022 160.978 214.178 161.022 214.134 161.066z"/>
<path style="stroke:none; fill:#96c1d4" d="M 255.2 160.8L 255.2 161.6L 257.6 161.6C 256.602 161.052 256.362 161.001 255.2 160.8z"/>
<path style="stroke:none; fill:#b6d2df" d="M 210.934 161.866C 210.578 162.222 211.422 162.178 211.466 162.134C 211.822 161.778 210.978 161.822 210.934 161.866z"/>
<path style="stroke:none; fill:#79adc8" d="M 259.734 161.866C 259.378 162.222 260.222 162.178 260.266 162.134C 260.622 161.778 259.778 161.822 259.734 161.866z"/>
<path style="stroke:none; fill:#a8c9dc" d="M 208 162.4L 208.8 163.2L 208 162.4z"/>
<path style="stroke:none; fill:#96c1d4" d="M 262.4 162.4L 263.2 163.2L 262.4 162.4z"/>
<path style="stroke:none; fill:#79adc8" d="M 204.8 163.2L 205.6 164L 204.8 163.2z"/>
<path style="stroke:none; fill:#b6d2df" d="M 264.8 163.2L 265.6 164L 264.8 163.2z"/>
<path style="stroke:none; fill:#79adc8" d="M 202.4 164L 203.2 164.8L 202.4 164z"/>
<path style="stroke:none; fill:#b6d2df" d="M 203.2 164L 204 164.8L 203.2 164z"/>
<path style="stroke:none; fill:#a8c9dc" d="M 267.2 164L 268 164.8L 267.2 164M 200.8 164.8L 201.6 165.6L 200.8 164.8z"/>
<path style="stroke:none; fill:#85b7cf" d="M 269.6 164.8L 270.4 165.6L 269.6 164.8M 198.4 165.6L 199.2 166.4L 198.4 165.6z"/>
<path style="stroke:none; fill:#b6d2df" d="M 271.2 165.6L 272 166.4L 271.2 165.6z"/>
<path style="stroke:none; fill:#a8c9dc" d="M 196.8 166.4L 197.6 167.2L 196.8 166.4z"/>
<path style="stroke:none; fill:#79adc8" d="M 273.6 166.4L 274.4 167.2L 273.6 166.4z"/>
<path style="stroke:none; fill:#b6d2df" d="M 195.2 167.2L 196 168L 195.2 167.2z"/>
<path style="stroke:none; fill:#85b7cf" d="M 275.2 167.2L 276 168L 275.2 167.2z"/>
<path style="stroke:none; fill:#b6d2df" d="M 193.6 168L 194.4 168.8L 193.6 168z"/>
<path style="stroke:none; fill:#85b7cf" d="M 276.8 168L 277.6 168.8L 276.8 168z"/>
<path style="stroke:none; fill:#b6d2df" d="M 192 168.8L 192.8 169.6L 192 168.8z"/>
<path style="stroke:none; fill:#79adc8" d="M 278.4 168.8L 279.2 169.6L 278.4 168.8z"/>
<path style="stroke:none; fill:#a8c9dc" d="M 190.4 169.6L 191.2 170.4L 190.4 169.6z"/>
<path style="stroke:none; fill:#85b7cf" d="M 188.8 170.4L 189.6 171.2L 188.8 170.4z"/>
<path style="stroke:none; fill:#b6d2df" d="M 280.8 170.4L 281.6 171.2L 280.8 170.4z"/>
<path style="stroke:none; fill:#85b7cf" d="M 282.4 171.2L 283.2 172L 282.4 171.2z"/>
<path style="stroke:none; fill:#a8c9dc" d="M 186.4 172L 187.2 172.8L 186.4 172z"/>
<path style="stroke:none; fill:#85b7cf" d="M 284.8 172.8L 285.6 173.6L 284.8 172.8z"/>
<path style="stroke:none; fill:#a8c9dc" d="M 184 173.6L 184.8 174.4L 184 173.6z"/>
<path style="stroke:none; fill:#67a2c2" d="M 287.2 174.4L 288 175.2L 287.2 174.4z"/>
<path style="stroke:none; fill:#85b7cf" d="M 181.6 175.2L 182.4 176L 181.6 175.2z"/>
<path style="stroke:none; fill:#96c1d4" d="M 288 175.2L 288.8 176L 288 175.2z"/>
<path style="stroke:none; fill:#b6d2df" d="M 180.8 176L 181.6 176.8L 180.8 176z"/>
<path style="stroke:none; fill:#67a2c2" d="M 291.2 177.6L 292 178.4L 291.2 177.6z"/>
<path style="stroke:none; fill:#79adc8" d="M 177.6 178.4L 178.4 179.2L 177.6 178.4M 292 178.4L 292.8 179.2L 292 178.4z"/>
<path style="stroke:none; fill:#85b7cf" d="M 176.8 179.2L 177.6 180L 176.8 179.2M 292.8 179.2L 293.6 180L 292.8 179.2z"/>
<path style="stroke:none; fill:#96c1d4" d="M 176 180L 176.8 180.8L 176 180M 293.6 180L 294.4 180.8L 293.6 180z"/>
<path style="stroke:none; fill:#a8c9dc" d="M 175.2 180.8L 176 181.6L 175.2 180.8M 294.4 180.8L 295.2 181.6L 294.4 180.8M 174.4 181.6L 175.2 182.4L 174.4 181.6z"/>
<path style="stroke:none; fill:#96c1d4" d="M 295.2 181.6L 296 182.4L 295.2 181.6z"/>
<path style="stroke:none; fill:#a8c9dc" d="M 173.6 182.4L 174.4 183.2L 173.6 182.4z"/>
<path style="stroke:none; fill:#96c1d4" d="M 296 182.4L 296.8 183.2L 296 182.4z"/>
<path style="stroke:none; fill:#a8c9dc" d="M 172.8 183.2L 173.6 184L 172.8 183.2z"/>
<path style="stroke:none; fill:#96c1d4" d="M 296.8 183.2L 297.6 184L 296.8 183.2M 172 184L 172.8 184.8L 172 184z"/>
<path style="stroke:none; fill:#79adc8" d="M 297.6 184L 298.4 184.8L 297.6 184M 171.2 184.8L 172 185.6L 171.2 184.8z"/>
<path style="stroke:none; fill:#67a2c2" d="M 298.4 184.8L 299.2 185.6L 298.4 184.8z"/>
<path style="stroke:none; fill:#96c1d4" d="M 300.8 188L 301.6 188.8L 300.8 188M 168 188.8L 168.8 189.6L 168 188.8z"/>
<path style="stroke:none; fill:#67a2c2" d="M 301.6 188.8L 302.4 189.6L 301.6 188.8z"/>
<path style="stroke:none; fill:#c5dce8" d="M 166.4 191.2L 167.2 192L 166.4 191.2z"/>
<path style="stroke:none; fill:#85b7cf" d="M 303.2 191.2L 304 192L 303.2 191.2z"/>
<path style="stroke:none; fill:#79adc8" d="M 165.6 192L 166.4 192.8L 165.6 192z"/>
<path style="stroke:none; fill:#c5dce8" d="M 164.8 193.6L 165.6 194.4L 164.8 193.6z"/>
<path style="stroke:none; fill:#79adc8" d="M 304.8 193.6L 305.6 194.4L 304.8 193.6M 164 194.4L 164.8 195.2L 164 194.4z"/>
<path style="stroke:none; fill:#a8c9dc" d="M 305.6 195.2L 306.4 196L 305.6 195.2z"/>
<path style="stroke:none; fill:#96c1d4" d="M 163.2 196L 164 196.8L 163.2 196z"/>
<path style="stroke:none; fill:#b6d2df" d="M 162.4 197.6L 163.2 198.4L 162.4 197.6z"/>
<path style="stroke:none; fill:#67a2c2" d="M 307.2 197.6L 308 198.4L 307.2 197.6z"/>
<path style="stroke:none; fill:#287ca9" d="M 38.4 240.8L 38.4 237.6L 37.6 237.6L 37.6 269.6C 46.5946 268.272 55.396 263.934 64 261.066L 120 241.875C 128.874 238.794 145.434 236.806 152.318 230.34C 154.542 228.25 154.185 222.854 154.759 220C 156.229 212.697 159.568 206.256 161.6 199.2C 119.566 208.925 80.028 229.438 38.4 240.8z"/>
<path style="stroke:none; fill:#67a2c2" d="M 308 199.2L 308.8 200L 308 199.2M 308.8 200.8L 309.6 201.6L 308.8 200.8z"/>
<path style="stroke:none; fill:#b6d2df" d="M 160 202.4L 160.8 203.2L 160 202.4M 309.6 203.2L 310.4 204L 309.6 203.2z"/>
<path style="stroke:none; fill:#a8c9dc" d="M 159.2 204L 160 204.8L 159.2 204z"/>
<path style="stroke:none; fill:#96c1d4" d="M 310.4 204.8L 311.2 205.6L 310.4 204.8z"/>
<path style="stroke:none; fill:#79adc8" d="M 158.4 205.6L 159.2 206.4L 158.4 205.6z"/>
<path style="stroke:none; fill:#559bba" d="M 311.2 206.4L 312 207.2L 311.2 206.4z"/>
<path style="stroke:none; fill:#b6d2df" d="M 311.2 207.2L 312 208L 311.2 207.2z"/>
<path style="stroke:none; fill:#96c1d4" d="M 157.6 208L 158.4 208.8L 157.6 208z"/>
<path style="stroke:none; fill:#79adc8" d="M 312 208.8L 312.8 209.6L 312 208.8z"/>
<path style="stroke:none; fill:#c5dce8" d="M 312 209.6L 312.8 210.4L 312 209.6z"/>
<path style="stroke:none; fill:#96c1d4" d="M 156.8 210.4L 157.6 211.2L 156.8 210.4z"/>
<path style="stroke:none; fill:#67a2c2" d="M 312.8 211.2L 313.6 212L 312.8 211.2z"/>
<path style="stroke:none; fill:#b6d2df" d="M 312.8 212L 313.6 212.8L 312.8 212z"/>
<path style="stroke:none; fill:#79adc8" d="M 156 212.8L 156.8 213.6L 156 212.8z"/>
<path style="stroke:none; fill:#85b7cf" d="M 313.6 214.4L 314.4 215.2L 313.6 214.4z"/>
<path style="stroke:none; fill:#b6d2df" d="M 155.466 216.534C 155.422 216.578 155.378 217.422 155.734 217.066C 155.778 217.022 155.822 216.178 155.466 216.534z"/>
<path style="stroke:none; fill:#79adc8" d="M 314.666 217.334C 314.622 217.378 314.578 218.222 314.934 217.866C 314.978 217.822 315.022 216.978 314.666 217.334z"/>
<path style="stroke:none; fill:#85b7cf" d="M 154.4 219.2L 154.4 221.6L 155.2 221.6C 154.999 220.438 154.948 220.198 154.4 219.2z"/>
<path style="stroke:none; fill:#79adc8" d="M 315.466 221.334C 315.422 221.378 315.378 222.222 315.734 221.866C 315.778 221.822 315.822 220.978 315.466 221.334z"/>
<path style="stroke:none; fill:#c5dce8" d="M 315.466 222.934C 315.422 222.978 315.378 223.822 315.734 223.466C 315.778 223.422 315.822 222.578 315.466 222.934z"/>
<path style="stroke:none; fill:#67a2c2" d="M 153.866 224.534C 153.822 224.578 153.778 225.422 154.134 225.066C 154.178 225.022 154.222 224.178 153.866 224.534z"/>
<path style="stroke:none; fill:#96c1d4" d="M 153.6 225.6L 153.6 228L 154.4 228C 154.199 226.839 154.148 226.598 153.6 225.6z"/>
<path style="stroke:none; fill:#4691b6" d="M 316.266 226.134C 316.222 226.178 316.178 227.022 316.534 226.666C 316.578 226.622 316.622 225.778 316.266 226.134z"/>
<path style="stroke:none; fill:#79adc8" d="M 316.266 227.734C 316.222 227.778 316.178 228.622 316.534 228.266C 316.578 228.222 316.622 227.378 316.266 227.734z"/>
<path style="stroke:none; fill:#e2edf4" d="M 153.6 228L 153.6 232L 154.4 232C 154.33 230.429 154.223 229.415 153.6 228z"/>
<path style="stroke:none; fill:#c5dce8" d="M 316 228.8L 316 232.8L 316.8 232.8C 316.73 231.229 316.623 230.215 316 228.8z"/>
<path style="stroke:none; fill:#1674a1" d="M 38.4 230.4L 38.4 236L 39.2 236C 39.185 233.966 39.1877 232.266 38.4 230.4M 37.6 269.6L 37.6 312.8C 55.7628 308.598 73.5191 300.582 91.2 294.666C 114.48 286.878 139.16 280.346 161.6 270.4C 157.778 256.424 153.6 245.172 153.6 230.4C 114.053 239.772 77.2043 260.438 37.6 269.6z"/>
<path style="stroke:none; fill:#e2edf4" d="M 316 232.8L 316 238.4L 316.8 238.4C 316.785 236.365 316.788 234.666 316 232.8z"/>
<path style="stroke:none; fill:#d2e6ec" d="M 153.6 237.6L 153.6 240L 154.4 240C 154.199 238.838 154.148 238.598 153.6 237.6z"/>
<path style="stroke:none; fill:#a8c9dc" d="M 316 238.4L 316 240.8L 316.8 240.8C 316.599 239.638 316.548 239.398 316 238.4M 153.6 240L 153.6 242.4L 154.4 242.4C 154.199 241.238 154.148 240.998 153.6 240z"/>
<path style="stroke:none; fill:#79adc8" d="M 316 240.8L 316 243.2L 316.8 243.2C 316.599 242.038 316.548 241.798 316 240.8z"/>
<path style="stroke:none; fill:#67a2c2" d="M 153.6 242.4L 153.6 244.8L 154.4 244.8C 154.199 243.639 154.148 243.398 153.6 242.4z"/>
<path style="stroke:none; fill:#a8c9dc" d="M 154.4 246.4L 154.4 248.8L 155.2 248.8C 154.999 247.639 154.948 247.398 154.4 246.4z"/>
<path style="stroke:none; fill:#85b7cf" d="M 315.2 246.4L 315.2 248.8L 316 248.8C 315.799 247.638 315.748 247.398 315.2 246.4z"/>
<path style="stroke:none; fill:#79adc8" d="M 155.466 251.734C 155.422 251.778 155.378 252.622 155.734 252.266C 155.778 252.222 155.822 251.378 155.466 251.734z"/>
<path style="stroke:none; fill:#559bba" d="M 314.666 251.734C 314.622 251.778 314.578 252.622 314.934 252.266C 314.978 252.222 315.022 251.378 314.666 251.734z"/>
<path style="stroke:none; fill:#b6d2df" d="M 156 254.4L 156.8 255.2L 156 254.4z"/>
<path style="stroke:none; fill:#96c1d4" d="M 313.6 254.4L 314.4 255.2L 313.6 254.4z"/>
<path style="stroke:none; fill:#79adc8" d="M 156 255.2L 156.8 256L 156 255.2z"/>
<path style="stroke:none; fill:#4691b6" d="M 313.6 255.2L 314.4 256L 313.6 255.2z"/>
<path style="stroke:none; fill:#c5dce8" d="M 312.8 256.8L 313.6 257.6L 312.8 256.8z"/>
<path style="stroke:none; fill:#96c1d4" d="M 156.8 257.6L 157.6 258.4L 156.8 257.6z"/>
<path style="stroke:none; fill:#67a2c2" d="M 312.8 257.6L 313.6 258.4L 312.8 257.6z"/>
<path style="stroke:none; fill:#c5dce8" d="M 312 259.2L 312.8 260L 312 259.2z"/>
<path style="stroke:none; fill:#96c1d4" d="M 157.6 260L 158.4 260.8L 157.6 260z"/>
<path style="stroke:none; fill:#67a2c2" d="M 312 260L 312.8 260.8L 312 260z"/>
<path style="stroke:none; fill:#a8c9dc" d="M 311.2 261.6L 312 262.4L 311.2 261.6z"/>
<path style="stroke:none; fill:#79adc8" d="M 158.4 262.4L 159.2 263.2L 158.4 262.4z"/>
<path style="stroke:none; fill:#4691b6" d="M 311.2 262.4L 312 263.2L 311.2 262.4z"/>
<path style="stroke:none; fill:#a8c9dc" d="M 159.2 264L 160 264.8L 159.2 264z"/>
<path style="stroke:none; fill:#79adc8" d="M 310.4 264L 311.2 264.8L 310.4 264z"/>
<path style="stroke:none; fill:#c5dce8" d="M 160 265.6L 160.8 266.4L 160 265.6z"/>
<path style="stroke:none; fill:#96c1d4" d="M 309.6 265.6L 310.4 266.4L 309.6 265.6z"/>
<path style="stroke:none; fill:#559bba" d="M 160 266.4L 160.8 267.2L 160 266.4z"/>
<path style="stroke:none; fill:#a8c9dc" d="M 308.8 267.2L 309.6 268L 308.8 267.2z"/>
<path style="stroke:none; fill:#559bba" d="M 160.8 268L 161.6 268.8L 160.8 268z"/>
<path style="stroke:none; fill:#a8c9dc" d="M 308 268.8L 308.8 269.6L 308 268.8z"/>
<path style="stroke:none; fill:#559bba" d="M 161.6 269.6L 162.4 270.4L 161.6 269.6z"/>
<path style="stroke:none; fill:#96c1d4" d="M 307.2 270.4L 308 271.2L 307.2 270.4z"/>
<path style="stroke:none; fill:#b6d2df" d="M 163.2 272L 164 272.8L 163.2 272z"/>
<path style="stroke:none; fill:#79adc8" d="M 306.4 272L 307.2 272.8L 306.4 272z"/>
<path style="stroke:none; fill:#85b7cf" d="M 164 273.6L 164.8 274.4L 164 273.6z"/>
<path style="stroke:none; fill:#4691b6" d="M 305.6 273.6L 306.4 274.4L 305.6 273.6z"/>
<path style="stroke:none; fill:#a8c9dc" d="M 304.8 274.4L 305.6 275.2L 304.8 274.4z"/>
<path style="stroke:none; fill:#96c1d4" d="M 165.6 276L 166.4 276.8L 165.6 276z"/>
<path style="stroke:none; fill:#559bba" d="M 304 276L 304.8 276.8L 304 276z"/>
<path style="stroke:none; fill:#a8c9dc" d="M 303.2 276.8L 304 277.6L 303.2 276.8z"/>
<path style="stroke:none; fill:#85b7cf" d="M 167.2 278.4L 168 279.2L 167.2 278.4z"/>
<path style="stroke:none; fill:#3885ae" d="M 302.4 278.4L 303.2 279.2L 302.4 278.4z"/>
<path style="stroke:none; fill:#c5dce8" d="M 168 279.2L 168.8 280L 168 279.2z"/>
<path style="stroke:none; fill:#79adc8" d="M 301.6 279.2L 302.4 280L 301.6 279.2z"/>
<path style="stroke:none; fill:#b6d2df" d="M 300.8 280L 301.6 280.8L 300.8 280z"/>
<path style="stroke:none; fill:#67a2c2" d="M 169.6 281.6L 170.4 282.4L 169.6 281.6z"/>
<path style="stroke:none; fill:#96c1d4" d="M 170.4 282.4L 171.2 283.2L 170.4 282.4z"/>
<path style="stroke:none; fill:#4691b6" d="M 299.2 282.4L 300 283.2L 299.2 282.4z"/>
<path style="stroke:none; fill:#b6d2df" d="M 171.2 283.2L 172 284L 171.2 283.2z"/>
<path style="stroke:none; fill:#559bba" d="M 298.4 283.2L 299.2 284L 298.4 283.2z"/>
<path style="stroke:none; fill:#79adc8" d="M 297.6 284L 298.4 284.8L 297.6 284z"/>
<path style="stroke:none; fill:#96c1d4" d="M 296.8 284.8L 297.6 285.6L 296.8 284.8M 296 285.6L 296.8 286.4L 296 285.6M 295.2 286.4L 296 287.2L 295.2 286.4z"/>
<path style="stroke:none; fill:#a8c9dc" d="M 294.4 287.2L 295.2 288L 294.4 287.2z"/>
<path style="stroke:none; fill:#96c1d4" d="M 293.6 288L 294.4 288.8L 293.6 288z"/>
<path style="stroke:none; fill:#79adc8" d="M 292.8 288.8L 293.6 289.6L 292.8 288.8z"/>
<path style="stroke:none; fill:#c5dce8" d="M 177.6 289.6L 178.4 290.4L 177.6 289.6z"/>
<path style="stroke:none; fill:#67a2c2" d="M 292 289.6L 292.8 290.4L 292 289.6z"/>
<path style="stroke:none; fill:#a8c9dc" d="M 178.4 290.4L 179.2 291.2L 178.4 290.4z"/>
<path style="stroke:none; fill:#4691b6" d="M 291.2 290.4L 292 291.2L 291.2 290.4z"/>
<path style="stroke:none; fill:#79adc8" d="M 179.2 291.2L 180 292L 179.2 291.2z"/>
<path style="stroke:none; fill:#559bba" d="M 180 292L 180.8 292.8L 180 292z"/>
<path style="stroke:none; fill:#b6d2df" d="M 288.8 292L 289.6 292.8L 288.8 292z"/>
<path style="stroke:none; fill:#79adc8" d="M 288 292.8L 288.8 293.6L 288 292.8z"/>
<path style="stroke:none; fill:#a8c9dc" d="M 182.4 293.6L 183.2 294.4L 182.4 293.6z"/>
<path style="stroke:none; fill:#67a2c2" d="M 183.2 294.4L 184 295.2L 183.2 294.4z"/>
<path style="stroke:none; fill:#a8c9dc" d="M 285.6 294.4L 286.4 295.2L 285.6 294.4z"/>
<path style="stroke:none; fill:#c5dce8" d="M 184.8 295.2L 185.6 296L 184.8 295.2z"/>
<path style="stroke:none; fill:#559bba" d="M 284.8 295.2L 285.6 296L 284.8 295.2z"/>
<path style="stroke:none; fill:#79adc8" d="M 185.6 296L 186.4 296.8L 185.6 296z"/>
<path style="stroke:none; fill:#a8c9dc" d="M 283.2 296L 284 296.8L 283.2 296z"/>
<path style="stroke:none; fill:#b6d2df" d="M 187.2 296.8L 188 297.6L 187.2 296.8z"/>
<path style="stroke:none; fill:#559bba" d="M 282.4 296.8L 283.2 297.6L 282.4 296.8M 188 297.6L 188.8 298.4L 188 297.6z"/>
<path style="stroke:none; fill:#85b7cf" d="M 280.8 297.6L 281.6 298.4L 280.8 297.6M 189.6 298.4L 190.4 299.2L 189.6 298.4z"/>
<path style="stroke:none; fill:#b6d2df" d="M 279.2 298.4L 280 299.2L 279.2 298.4z"/>
<path style="stroke:none; fill:#a8c9dc" d="M 191.2 299.2L 192 300L 191.2 299.2z"/>
<path style="stroke:none; fill:#b6d2df" d="M 277.6 299.2L 278.4 300L 277.6 299.2M 192.8 300L 193.6 300.8L 192.8 300z"/>
<path style="stroke:none; fill:#4691b6" d="M 276.8 300L 277.6 300.8L 276.8 300z"/>
<path style="stroke:none; fill:#b6d2df" d="M 194.4 300.8L 195.2 301.6L 194.4 300.8M 274.4 300.8L 275.2 301.6L 274.4 300.8z"/>
<path style="stroke:none; fill:#4691b6" d="M 275.2 300.8L 276 301.6L 275.2 300.8z"/>
<path style="stroke:none; fill:#a8c9dc" d="M 196 301.6L 196.8 302.4L 196 301.6M 272.8 301.6L 273.6 302.4L 272.8 301.6z"/>
<path style="stroke:none; fill:#85b7cf" d="M 197.6 302.4L 198.4 303.2L 197.6 302.4M 271.2 302.4L 272 303.2L 271.2 302.4z"/>
<path style="stroke:none; fill:#559bba" d="M 199.2 303.2L 200 304L 199.2 303.2z"/>
<path style="stroke:none; fill:#c5dce8" d="M 268.8 303.2L 269.6 304L 268.8 303.2z"/>
<path style="stroke:none; fill:#559bba" d="M 269.6 303.2L 270.4 304L 269.6 303.2z"/>
<path style="stroke:none; fill:#85b7cf" d="M 201.6 304L 202.4 304.8L 201.6 304z"/>
<path style="stroke:none; fill:#79adc8" d="M 267.2 304L 268 304.8L 267.2 304z"/>
<path style="stroke:none; fill:#3885ae" d="M 203.2 304.8L 204 305.6L 203.2 304.8z"/>
<path style="stroke:none; fill:#96c1d4" d="M 204 304.8L 204.8 305.6L 204 304.8z"/>
<path style="stroke:none; fill:#85b7cf" d="M 264.8 304.8L 265.6 305.6L 264.8 304.8M 206.4 305.6L 207.2 306.4L 206.4 305.6z"/>
<path style="stroke:none; fill:#b6d2df" d="M 261.6 305.6L 262.4 306.4L 261.6 305.6z"/>
<path style="stroke:none; fill:#67a2c2" d="M 262.4 305.6L 263.2 306.4L 262.4 305.6M 208.8 306.4L 209.6 307.2L 208.8 306.4z"/>
<path style="stroke:none; fill:#a8c9dc" d="M 209.6 306.4L 210.4 307.2L 209.6 306.4z"/>
<path style="stroke:none; fill:#85b7cf" d="M 259.2 306.4L 260 307.2L 259.2 306.4z"/>
<path style="stroke:none; fill:#96c1d4" d="M 212.534 307.466C 212.178 307.822 213.022 307.778 213.066 307.734C 213.422 307.378 212.578 307.422 212.534 307.466z"/>
<path style="stroke:none; fill:#79adc8" d="M 255.2 307.2L 255.2 308L 257.6 308C 256.602 307.452 256.362 307.401 255.2 307.2z"/>
<path style="stroke:none; fill:#67a2c2" d="M 215.734 308.266C 215.378 308.622 216.222 308.578 216.266 308.534C 216.622 308.178 215.778 308.222 215.734 308.266z"/>
<path style="stroke:none; fill:#b6d2df" d="M 217.334 308.266C 216.978 308.622 217.822 308.578 217.866 308.534C 218.222 308.178 217.378 308.222 217.334 308.266z"/>
<path style="stroke:none; fill:#96c1d4" d="M 250.4 308L 250.4 308.8L 252.8 308.8C 251.802 308.252 251.562 308.201 250.4 308z"/>
<path style="stroke:none; fill:#559bba" d="M 220.534 309.066C 220.178 309.422 221.022 309.378 221.066 309.334C 221.422 308.978 220.578 309.022 220.534 309.066z"/>
<path style="stroke:none; fill:#85b7cf" d="M 221.6 308.8L 221.6 309.6L 224 309.6C 223.002 309.052 222.762 309.001 221.6 308.8z"/>
<path style="stroke:none; fill:#d2e6ec" d="M 224 308.8L 224 309.6L 226.4 309.6C 225.402 309.052 225.162 309.001 224 308.8M 242.4 308.8L 242.4 309.6L 244.8 309.6C 243.802 309.052 243.562 309.001 242.4 308.8z"/>
<path style="stroke:none; fill:#85b7cf" d="M 244.8 308.8L 244.8 309.6L 247.2 309.6C 246.202 309.052 245.962 309.001 244.8 308.8z"/>
<path style="stroke:none; fill:#3885ae" d="M 247.734 309.066C 247.378 309.422 248.222 309.378 248.266 309.334C 248.622 308.978 247.778 309.022 247.734 309.066M 228 309.6L 228 310.4L 231.2 310.4C 229.995 309.854 229.348 309.739 228 309.6z"/>
<path style="stroke:none; fill:#4691b6" d="M 231.2 309.6L 231.2 310.4L 240 310.4C 237.254 309.248 234.16 309.6 231.2 309.6z"/>
<path style="stroke:none; fill:#3885ae" d="M 646.934 359.466C 646.578 359.822 647.422 359.778 647.466 359.734C 647.822 359.378 646.978 359.422 646.934 359.466z"/>
<path style="stroke:none; fill:#85b7cf" d="M 648 359.2L 648 360L 652 360C 650.585 359.377 649.571 359.27 648 359.2z"/>
<path style="stroke:none; fill:#c5dce8" d="M 652 359.2L 652 360L 655.2 360C 653.995 359.454 653.348 359.339 652 359.2z"/>
<path style="stroke:none; fill:#e2edf4" d="M 655.2 359.2L 655.2 360L 661.6 360C 659.51 359.122 657.469 359.206 655.2 359.2z"/>
<path style="stroke:none; fill:#ffffff" d="M 532.8 431.2L 532 431.2L 532 369.6L 388 369.6L 388 805.6L 532 805.6L 532 623.2C 532 593.903 526.777 558.622 535.797 530.4C 550.46 484.524 608.718 455.742 651.2 484.416C 681.855 505.107 685.6 546.306 685.6 580L 685.6 805.6L 829.6 805.6L 829.6 596C 829.6 538.51 830.512 480.461 799.351 429.6C 749.695 348.549 615.617 332.229 551.774 405.6C 544.994 413.393 537.266 421.802 532.8 431.2z"/>
<path style="stroke:none; fill:#c5dce8" d="M 667.2 359.2L 667.2 360L 672.8 360C 670.934 359.212 669.234 359.215 667.2 359.2z"/>
<path style="stroke:none; fill:#79adc8" d="M 672.8 359.2L 672.8 360L 676.8 360C 675.385 359.377 674.371 359.27 672.8 359.2z"/>
<path style="stroke:none; fill:#287ca9" d="M 676.8 359.2L 676.8 360L 680.8 360C 679.385 359.377 678.371 359.27 676.8 359.2z"/>
<path style="stroke:none; fill:#559bba" d="M 639.734 360.266C 639.378 360.622 640.222 360.578 640.266 360.534C 640.622 360.178 639.778 360.222 639.734 360.266z"/>
<path style="stroke:none; fill:#96c1d4" d="M 641.334 360.266C 640.978 360.622 641.822 360.578 641.866 360.534C 642.222 360.178 641.378 360.222 641.334 360.266z"/>
<path style="stroke:none; fill:#c5dce8" d="M 642.934 360.266C 642.578 360.622 643.422 360.578 643.466 360.534C 643.822 360.178 642.978 360.222 642.934 360.266z"/>
<path style="stroke:none; fill:#b6d2df" d="M 682.934 360.266C 682.578 360.622 683.422 360.578 683.466 360.534C 683.822 360.178 682.978 360.222 682.934 360.266z"/>
<path style="stroke:none; fill:#79adc8" d="M 684.534 360.266C 684.178 360.622 685.022 360.578 685.066 360.534C 685.422 360.178 684.578 360.222 684.534 360.266z"/>
<path style="stroke:none; fill:#4691b6" d="M 686.134 360.266C 685.778 360.622 686.622 360.578 686.666 360.534C 687.022 360.178 686.178 360.222 686.134 360.266z"/>
<path style="stroke:none; fill:#67a2c2" d="M 634.134 361.066C 633.778 361.422 634.622 361.378 634.666 361.334C 635.022 360.978 634.178 361.022 634.134 361.066z"/>
<path style="stroke:none; fill:#b6d2df" d="M 635.2 360.8L 635.2 361.6L 637.6 361.6C 636.602 361.052 636.362 361.001 635.2 360.8z"/>
<path style="stroke:none; fill:#a8c9dc" d="M 689.6 360.8L 689.6 361.6L 692 361.6C 691.002 361.052 690.762 361.001 689.6 360.8z"/>
<path style="stroke:none; fill:#3885ae" d="M 692.534 361.066C 692.178 361.422 693.022 361.378 693.066 361.334C 693.422 360.978 692.578 361.022 692.534 361.066z"/>
<path style="stroke:none; fill:#67a2c2" d="M 628.8 361.6L 628.8 362.4L 631.2 362.4C 630.202 361.852 629.962 361.801 628.8 361.6z"/>
<path style="stroke:none; fill:#96c1d4" d="M 695.2 361.6L 695.2 362.4L 697.6 362.4C 696.602 361.852 696.362 361.801 695.2 361.6M 626.134 362.666C 625.778 363.022 626.622 362.978 626.666 362.934C 627.022 362.578 626.178 362.622 626.134 362.666z"/>
<path style="stroke:none; fill:#79adc8" d="M 700.534 362.666C 700.178 363.022 701.022 362.978 701.066 362.934C 701.422 362.578 700.578 362.622 700.534 362.666z"/>
<path style="stroke:none; fill:#3885ae" d="M 621.6 363.2L 622.4 364L 621.6 363.2z"/>
<path style="stroke:none; fill:#79adc8" d="M 622.4 363.2L 623.2 364L 622.4 363.2z"/>
<path style="stroke:none; fill:#67a2c2" d="M 704.534 363.466C 704.178 363.822 705.022 363.778 705.066 363.734C 705.422 363.378 704.578 363.422 704.534 363.466z"/>
<path style="stroke:none; fill:#4691b6" d="M 618.4 364L 619.2 364.8L 618.4 364z"/>
<path style="stroke:none; fill:#79adc8" d="M 619.2 364L 620 364.8L 619.2 364z"/>
<path style="stroke:none; fill:#b6d2df" d="M 707.2 364L 708 364.8L 707.2 364z"/>
<path style="stroke:none; fill:#79adc8" d="M 708 364L 708.8 364.8L 708 364z"/>
<path style="stroke:none; fill:#67a2c2" d="M 616 364.8L 616.8 365.6L 616 364.8z"/>
<path style="stroke:none; fill:#b6d2df" d="M 616.8 364.8L 617.6 365.6L 616.8 364.8M 710.4 364.8L 711.2 365.6L 710.4 364.8z"/>
<path style="stroke:none; fill:#79adc8" d="M 711.2 364.8L 712 365.6L 711.2 364.8z"/>
<path style="stroke:none; fill:#4691b6" d="M 612.8 365.6L 613.6 366.4L 612.8 365.6z"/>
<path style="stroke:none; fill:#85b7cf" d="M 613.6 365.6L 614.4 366.4L 613.6 365.6z"/>
<path style="stroke:none; fill:#a8c9dc" d="M 713.6 365.6L 714.4 366.4L 713.6 365.6z"/>
<path style="stroke:none; fill:#67a2c2" d="M 714.4 365.6L 715.2 366.4L 714.4 365.6z"/>
<path style="stroke:none; fill:#4691b6" d="M 610.4 366.4L 611.2 367.2L 610.4 366.4z"/>
<path style="stroke:none; fill:#a8c9dc" d="M 611.2 366.4L 612 367.2L 611.2 366.4z"/>
<path style="stroke:none; fill:#c5dce8" d="M 716 366.4L 716.8 367.2L 716 366.4z"/>
<path style="stroke:none; fill:#79adc8" d="M 716.8 366.4L 717.6 367.2L 716.8 366.4z"/>
<path style="stroke:none; fill:#4691b6" d="M 608 367.2L 608.8 368L 608 367.2z"/>
<path style="stroke:none; fill:#a8c9dc" d="M 608.8 367.2L 609.6 368L 608.8 367.2z"/>
<path style="stroke:none; fill:#85b7cf" d="M 719.2 367.2L 720 368L 719.2 367.2z"/>
<path style="stroke:none; fill:#3885ae" d="M 605.6 368L 606.4 368.8L 605.6 368z"/>
<path style="stroke:none; fill:#96c1d4" d="M 606.4 368L 607.2 368.8L 606.4 368M 721.6 368L 722.4 368.8L 721.6 368z"/>
<path style="stroke:none; fill:#3885ae" d="M 162.4 368.8L 162.4 369.6L 307.2 369.6C 303.027 367.849 297.295 368.8 292.8 368.8L 264 368.8L 162.4 368.8M 387.2 368.8L 387.2 369.6L 532.8 369.6C 528.627 367.849 522.895 368.8 518.4 368.8L 489.6 368.8L 387.2 368.8z"/>
<path style="stroke:none; fill:#79adc8" d="M 604 368.8L 604.8 369.6L 604 368.8z"/>
<path style="stroke:none; fill:#85b7cf" d="M 724 368.8L 724.8 369.6L 724 368.8z"/>
<path style="stroke:none; fill:#4691b6" d="M 161.6 369.6L 161.6 805.6L 162.4 805.6L 162.4 496.8L 162.4 408C 162.4 397.188 165.765 379.526 161.6 369.6z"/>
<path style="stroke:none; fill:#ffffff" d="M 162.4 369.6L 162.4 805.6L 306.4 805.6L 306.4 369.6L 162.4 369.6z"/>
<path style="stroke:none; fill:#e2edf4" d="M 306.4 369.6L 306.4 805.6L 307.2 805.6L 307.2 496.8L 307.2 408C 307.2 397.188 310.565 379.526 306.4 369.6z"/>
<path style="stroke:none; fill:#a8c9dc" d="M 387.2 369.6L 387.2 374.4L 388 374.4C 387.962 372.598 387.899 371.242 387.2 369.6z"/>
<path style="stroke:none; fill:#85b7cf" d="M 532 369.6L 532 431.2L 532.8 431.2C 534.308 417.483 532.8 402.65 532.8 388.8C 532.8 383.027 534.242 374.942 532 369.6z"/>
<path style="stroke:none; fill:#559bba" d="M 601.6 369.6L 602.4 370.4L 601.6 369.6z"/>
<path style="stroke:none; fill:#b6d2df" d="M 602.4 369.6L 603.2 370.4L 602.4 369.6z"/>
<path style="stroke:none; fill:#67a2c2" d="M 726.4 369.6L 727.2 370.4L 726.4 369.6z"/>
<path style="stroke:none; fill:#79adc8" d="M 600 370.4L 600.8 371.2L 600 370.4z"/>
<path style="stroke:none; fill:#b6d2df" d="M 728 370.4L 728.8 371.2L 728 370.4z"/>
<path style="stroke:none; fill:#4691b6" d="M 728.8 370.4L 729.6 371.2L 728.8 370.4z"/>
<path style="stroke:none; fill:#a8c9dc" d="M 598.4 371.2L 599.2 372L 598.4 371.2z"/>
<path style="stroke:none; fill:#79adc8" d="M 730.4 371.2L 731.2 372L 730.4 371.2z"/>
<path style="stroke:none; fill:#559bba" d="M 596 372L 596.8 372.8L 596 372z"/>
<path style="stroke:none; fill:#a8c9dc" d="M 732 372L 732.8 372.8L 732 372z"/>
<path style="stroke:none; fill:#559bba" d="M 594.4 372.8L 595.2 373.6L 594.4 372.8M 734.4 372.8L 735.2 373.6L 734.4 372.8z"/>
<path style="stroke:none; fill:#67a2c2" d="M 592.8 373.6L 593.6 374.4L 592.8 373.6z"/>
<path style="stroke:none; fill:#85b7cf" d="M 736 373.6L 736.8 374.4L 736 373.6z"/>
<path style="stroke:none; fill:#79adc8" d="M 387.2 374.4L 387.2 380L 388 380C 387.985 377.966 387.988 376.266 387.2 374.4z"/>
<path style="stroke:none; fill:#67a2c2" d="M 591.2 374.4L 592 375.2L 591.2 374.4z"/>
<path style="stroke:none; fill:#96c1d4" d="M 737.6 374.4L 738.4 375.2L 737.6 374.4z"/>
<path style="stroke:none; fill:#67a2c2" d="M 589.6 375.2L 590.4 376L 589.6 375.2z"/>
<path style="stroke:none; fill:#96c1d4" d="M 739.2 375.2L 740 376L 739.2 375.2z"/>
<path style="stroke:none; fill:#559bba" d="M 588 376L 588.8 376.8L 588 376z"/>
<path style="stroke:none; fill:#96c1d4" d="M 740.8 376L 741.6 376.8L 740.8 376z"/>
<path style="stroke:none; fill:#4691b6" d="M 586.4 376.8L 587.2 377.6L 586.4 376.8z"/>
<path style="stroke:none; fill:#96c1d4" d="M 742.4 376.8L 743.2 377.6L 742.4 376.8z"/>
<path style="stroke:none; fill:#a8c9dc" d="M 585.6 377.6L 586.4 378.4L 585.6 377.6z"/>
<path style="stroke:none; fill:#96c1d4" d="M 744 377.6L 744.8 378.4L 744 377.6z"/>
<path style="stroke:none; fill:#85b7cf" d="M 584 378.4L 584.8 379.2L 584 378.4z"/>
<path style="stroke:none; fill:#79adc8" d="M 745.6 378.4L 746.4 379.2L 745.6 378.4z"/>
<path style="stroke:none; fill:#559bba" d="M 582.4 379.2L 583.2 380L 582.4 379.2M 747.2 379.2L 748 380L 747.2 379.2z"/>
<path style="stroke:none; fill:#3885ae" d="M 387.2 380L 387.2 393.6L 388 393.6C 388 389.31 388.87 383.979 387.2 380z"/>
<path style="stroke:none; fill:#b6d2df" d="M 581.6 380L 582.4 380.8L 581.6 380z"/>
<path style="stroke:none; fill:#3885ae" d="M 748.8 380L 749.6 380.8L 748.8 380z"/>
<path style="stroke:none; fill:#79adc8" d="M 580 380.8L 580.8 381.6L 580 380.8z"/>
<path style="stroke:none; fill:#b6d2df" d="M 749.6 380.8L 750.4 381.6L 749.6 380.8z"/>
<path style="stroke:none; fill:#79adc8" d="M 751.2 381.6L 752 382.4L 751.2 381.6z"/>
<path style="stroke:none; fill:#85b7cf" d="M 577.6 382.4L 578.4 383.2L 577.6 382.4z"/>
<path style="stroke:none; fill:#96c1d4" d="M 753.6 383.2L 754.4 384L 753.6 383.2z"/>
<path style="stroke:none; fill:#79adc8" d="M 575.2 384L 576 384.8L 575.2 384z"/>
<path style="stroke:none; fill:#4691b6" d="M 755.2 384L 756 384.8L 755.2 384z"/>
<path style="stroke:none; fill:#c5dce8" d="M 574.4 384.8L 575.2 385.6L 574.4 384.8z"/>
<path style="stroke:none; fill:#a8c9dc" d="M 756 384.8L 756.8 385.6L 756 384.8z"/>
<path style="stroke:none; fill:#4691b6" d="M 572.8 385.6L 573.6 386.4L 572.8 385.6z"/>
<path style="stroke:none; fill:#559bba" d="M 757.6 385.6L 758.4 386.4L 757.6 385.6z"/>
<path style="stroke:none; fill:#96c1d4" d="M 572 386.4L 572.8 387.2L 572 386.4z"/>
<path style="stroke:none; fill:#a8c9dc" d="M 758.4 386.4L 759.2 387.2L 758.4 386.4z"/>
<path style="stroke:none; fill:#4691b6" d="M 569.6 388L 570.4 388.8L 569.6 388z"/>
<path style="stroke:none; fill:#79adc8" d="M 760.8 388L 761.6 388.8L 760.8 388M 568.8 388.8L 569.6 389.6L 568.8 388.8z"/>
<path style="stroke:none; fill:#c5dce8" d="M 761.6 388.8L 762.4 389.6L 761.6 388.8z"/>
<path style="stroke:none; fill:#b6d2df" d="M 568 389.6L 568.8 390.4L 568 389.6z"/>
<path style="stroke:none; fill:#559bba" d="M 763.2 389.6L 764 390.4L 763.2 389.6z"/>
<path style="stroke:none; fill:#96c1d4" d="M 764 390.4L 764.8 391.2L 764 390.4z"/>
<path style="stroke:none; fill:#4691b6" d="M 565.6 391.2L 566.4 392L 565.6 391.2z"/>
<path style="stroke:none; fill:#c5dce8" d="M 764.8 391.2L 765.6 392L 764.8 391.2z"/>
<path style="stroke:none; fill:#67a2c2" d="M 564.8 392L 565.6 392.8L 564.8 392z"/>
<path style="stroke:none; fill:#85b7cf" d="M 564 392.8L 564.8 393.6L 564 392.8z"/>
<path style="stroke:none; fill:#559bba" d="M 767.2 392.8L 768 393.6L 767.2 392.8z"/>
<path style="stroke:none; fill:#a8c9dc" d="M 563.2 393.6L 564 394.4L 563.2 393.6z"/>
<path style="stroke:none; fill:#85b7cf" d="M 768 393.6L 768.8 394.4L 768 393.6z"/>
<path style="stroke:none; fill:#b6d2df" d="M 562.4 394.4L 563.2 395.2L 562.4 394.4M 768.8 394.4L 769.6 395.2L 768.8 394.4z"/>
<path style="stroke:none; fill:#4691b6" d="M 772 396.8L 772.8 397.6L 772 396.8z"/>
<path style="stroke:none; fill:#559bba" d="M 772.8 397.6L 773.6 398.4L 772.8 397.6z"/>
<path style="stroke:none; fill:#67a2c2" d="M 773.6 398.4L 774.4 399.2L 773.6 398.4z"/>
<path style="stroke:none; fill:#85b7cf" d="M 774.4 399.2L 775.2 400L 774.4 399.2z"/>
<path style="stroke:none; fill:#96c1d4" d="M 775.2 400L 776 400.8L 775.2 400z"/>
<path style="stroke:none; fill:#a8c9dc" d="M 776 400.8L 776.8 401.6L 776 400.8M 776.8 401.6L 777.6 402.4L 776.8 401.6M 777.6 402.4L 778.4 403.2L 777.6 402.4z"/>
<path style="stroke:none; fill:#96c1d4" d="M 778.4 403.2L 779.2 404L 778.4 403.2M 779.2 404L 780 404.8L 779.2 404z"/>
<path style="stroke:none; fill:#b6d2df" d="M 552 404.8L 552.8 405.6L 552 404.8z"/>
<path style="stroke:none; fill:#96c1d4" d="M 780 404.8L 780.8 405.6L 780 404.8z"/>
<path style="stroke:none; fill:#a8c9dc" d="M 551.2 405.6L 552 406.4L 551.2 405.6z"/>
<path style="stroke:none; fill:#96c1d4" d="M 780.8 405.6L 781.6 406.4L 780.8 405.6M 550.4 406.4L 551.2 407.2L 550.4 406.4z"/>
<path style="stroke:none; fill:#85b7cf" d="M 781.6 406.4L 782.4 407.2L 781.6 406.4z"/>
<path style="stroke:none; fill:#79adc8" d="M 549.6 407.2L 550.4 408L 549.6 407.2M 782.4 407.2L 783.2 408L 782.4 407.2z"/>
<path style="stroke:none; fill:#67a2c2" d="M 548.8 408L 549.6 408.8L 548.8 408z"/>
<path style="stroke:none; fill:#559bba" d="M 783.2 408L 784 408.8L 783.2 408z"/>
<path style="stroke:none; fill:#4691b6" d="M 548 408.8L 548.8 409.6L 548 408.8M 784 408.8L 784.8 409.6L 784 408.8z"/>
<path style="stroke:none; fill:#b6d2df" d="M 546.4 411.2L 547.2 412L 546.4 411.2z"/>
<path style="stroke:none; fill:#85b7cf" d="M 545.6 412L 546.4 412.8L 545.6 412z"/>
<path style="stroke:none; fill:#b6d2df" d="M 786.4 412L 787.2 412.8L 786.4 412z"/>
<path style="stroke:none; fill:#559bba" d="M 544.8 412.8L 545.6 413.6L 544.8 412.8z"/>
<path style="stroke:none; fill:#85b7cf" d="M 787.2 412.8L 788 413.6L 787.2 412.8z"/>
<path style="stroke:none; fill:#559bba" d="M 788 413.6L 788.8 414.4L 788 413.6z"/>
<path style="stroke:none; fill:#b6d2df" d="M 543.2 415.2L 544 416L 543.2 415.2z"/>
<path style="stroke:none; fill:#79adc8" d="M 542.4 416L 543.2 416.8L 542.4 416z"/>
<path style="stroke:none; fill:#a8c9dc" d="M 789.6 416L 790.4 416.8L 789.6 416z"/>
<path style="stroke:none; fill:#3885ae" d="M 541.6 416.8L 542.4 417.6L 541.6 416.8z"/>
<path style="stroke:none; fill:#79adc8" d="M 790.4 416.8L 791.2 417.6L 790.4 416.8z"/>
<path style="stroke:none; fill:#b6d2df" d="M 540.8 418.4L 541.6 419.2L 540.8 418.4z"/>
<path style="stroke:none; fill:#79adc8" d="M 540 419.2L 540.8 420L 540 419.2z"/>
<path style="stroke:none; fill:#c5dce8" d="M 792 419.2L 792.8 420L 792 419.2z"/>
<path style="stroke:none; fill:#4691b6" d="M 539.2 420L 540 420.8L 539.2 420z"/>
<path style="stroke:none; fill:#79adc8" d="M 792.8 420L 793.6 420.8L 792.8 420z"/>
<path style="stroke:none; fill:#a8c9dc" d="M 538.4 421.6L 539.2 422.4L 538.4 421.6z"/>
<path style="stroke:none; fill:#d2e6ec" d="M 388 422.4L 388 452.8L 388.8 452.8C 388.8 444.071 391.369 430.429 388 422.4z"/>
<path style="stroke:none; fill:#559bba" d="M 537.6 422.4L 538.4 423.2L 537.6 422.4z"/>
<path style="stroke:none; fill:#96c1d4" d="M 794.4 422.4L 795.2 423.2L 794.4 422.4z"/>
<path style="stroke:none; fill:#4691b6" d="M 795.2 423.2L 796 424L 795.2 423.2z"/>
<path style="stroke:none; fill:#c5dce8" d="M 536.8 424L 537.6 424.8L 536.8 424z"/>
<path style="stroke:none; fill:#79adc8" d="M 536 424.8L 536.8 425.6L 536 424.8z"/>
<path style="stroke:none; fill:#a8c9dc" d="M 796 424.8L 796.8 425.6L 796 424.8z"/>
<path style="stroke:none; fill:#559bba" d="M 796.8 425.6L 797.6 426.4L 796.8 425.6z"/>
<path style="stroke:none; fill:#85b7cf" d="M 534.4 427.2L 535.2 428L 534.4 427.2z"/>
<path style="stroke:none; fill:#a8c9dc" d="M 797.6 427.2L 798.4 428L 797.6 427.2z"/>
<path style="stroke:none; fill:#4691b6" d="M 798.4 428L 799.2 428.8L 798.4 428z"/>
<path style="stroke:none; fill:#79adc8" d="M 799.2 429.6L 800 430.4L 799.2 429.6z"/>
<path style="stroke:none; fill:#b6d2df" d="M 800 431.2L 800.8 432L 800 431.2z"/>
<path style="stroke:none; fill:#559bba" d="M 800.8 432L 801.6 432.8L 800.8 432z"/>
<path style="stroke:none; fill:#85b7cf" d="M 801.6 433.6L 802.4 434.4L 801.6 433.6z"/>
<path style="stroke:none; fill:#a8c9dc" d="M 802.4 435.2L 803.2 436L 802.4 435.2z"/>
<path style="stroke:none; fill:#c5dce8" d="M 803.2 436.8L 804 437.6L 803.2 436.8z"/>
<path style="stroke:none; fill:#4691b6" d="M 804 437.6L 804.8 438.4L 804 437.6z"/>
<path style="stroke:none; fill:#67a2c2" d="M 804.8 439.2L 805.6 440L 804.8 439.2z"/>
<path style="stroke:none; fill:#79adc8" d="M 805.6 440.8L 806.4 441.6L 805.6 440.8z"/>
<path style="stroke:none; fill:#85b7cf" d="M 806.4 442.4L 807.2 443.2L 806.4 442.4z"/>
<path style="stroke:none; fill:#79adc8" d="M 807.2 444L 808 444.8L 807.2 444z"/>
<path style="stroke:none; fill:#67a2c2" d="M 808 445.6L 808.8 446.4L 808 445.6z"/>
<path style="stroke:none; fill:#559bba" d="M 808.8 447.2L 809.6 448L 808.8 447.2z"/>
<path style="stroke:none; fill:#4691b6" d="M 809.6 448.8L 810.4 449.6L 809.6 448.8M 810.4 450.4L 811.2 451.2L 810.4 450.4z"/>
<path style="stroke:none; fill:#a8c9dc" d="M 810.4 451.2L 811.2 452L 810.4 451.2z"/>
<path style="stroke:none; fill:#b6d2df" d="M 388 452.8L 388 552.8L 388.8 552.8L 388.8 483.2C 388.8 474.483 391.366 460.822 388 452.8z"/>
<path style="stroke:none; fill:#79adc8" d="M 811.2 452.8L 812 453.6L 811.2 452.8z"/>
<path style="stroke:none; fill:#559bba" d="M 812 454.4L 812.8 455.2L 812 454.4z"/>
<path style="stroke:none; fill:#b6d2df" d="M 812 455.2L 812.8 456L 812 455.2z"/>
<path style="stroke:none; fill:#96c1d4" d="M 812.8 456.8L 813.6 457.6L 812.8 456.8z"/>
<path style="stroke:none; fill:#67a2c2" d="M 813.6 458.4L 814.4 459.2L 813.6 458.4z"/>
<path style="stroke:none; fill:#85b7cf" d="M 814.4 460.8L 815.2 461.6L 814.4 460.8z"/>
<path style="stroke:none; fill:#96c1d4" d="M 815.2 463.2L 816 464L 815.2 463.2z"/>
<path style="stroke:none; fill:#4691b6" d="M 816 464.8L 816.8 465.6L 816 464.8z"/>
<path style="stroke:none; fill:#a8c9dc" d="M 816 465.6L 816.8 466.4L 816 465.6z"/>
<path style="stroke:none; fill:#559bba" d="M 816.8 467.2L 817.6 468L 816.8 467.2z"/>
<path style="stroke:none; fill:#b6d2df" d="M 816.8 468L 817.6 468.8L 816.8 468z"/>
<path style="stroke:none; fill:#559bba" d="M 817.6 469.6L 818.4 470.4L 817.6 469.6z"/>
<path style="stroke:none; fill:#a8c9dc" d="M 817.6 470.4L 818.4 471.2L 817.6 470.4z"/>
<path style="stroke:none; fill:#4691b6" d="M 818.4 472L 819.2 472.8L 818.4 472z"/>
<path style="stroke:none; fill:#96c1d4" d="M 818.4 472.8L 819.2 473.6L 818.4 472.8z"/>
<path style="stroke:none; fill:#b6d2df" d="M 600.8 473.6L 600.8 474.4L 603.2 474.4C 602.202 473.852 601.962 473.801 600.8 473.6z"/>
<path style="stroke:none; fill:#67a2c2" d="M 603.734 473.866C 603.378 474.222 604.222 474.178 604.266 474.134C 604.622 473.778 603.778 473.822 603.734 473.866z"/>
<path style="stroke:none; fill:#4691b6" d="M 604.8 473.6L 604.8 474.4L 607.2 474.4C 606.202 473.852 605.961 473.801 604.8 473.6z"/>
<path style="stroke:none; fill:#1674a1" d="M 607.2 473.6L 607.2 474.4L 615.2 474.4C 612.67 473.338 609.932 473.6 607.2 473.6z"/>
<path style="stroke:none; fill:#3885ae" d="M 615.2 473.6L 615.2 474.4L 617.6 474.4C 616.602 473.852 616.362 473.801 615.2 473.6z"/>
<path style="stroke:none; fill:#67a2c2" d="M 618.134 473.866C 617.778 474.222 618.622 474.178 618.666 474.134C 619.022 473.778 618.178 473.822 618.134 473.866z"/>
<path style="stroke:none; fill:#96c1d4" d="M 619.2 473.6L 619.2 474.4L 621.6 474.4C 620.602 473.852 620.362 473.801 619.2 473.6M 596.534 474.666C 596.178 475.022 597.022 474.978 597.066 474.934C 597.422 474.578 596.578 474.622 596.534 474.666z"/>
<path style="stroke:none; fill:#4691b6" d="M 598.134 474.666C 597.778 475.022 598.622 474.978 598.666 474.934C 599.022 474.578 598.178 474.622 598.134 474.666M 624 474.4L 624 475.2L 626.4 475.2C 625.402 474.652 625.162 474.601 624 474.4z"/>
<path style="stroke:none; fill:#d2e6ec" d="M 626.934 474.666C 626.578 475.022 627.422 474.978 627.466 474.934C 627.822 474.578 626.978 474.622 626.934 474.666z"/>
<path style="stroke:none; fill:#96c1d4" d="M 592.8 475.2L 593.6 476L 592.8 475.2z"/>
<path style="stroke:none; fill:#287ca9" d="M 594.134 475.466C 593.778 475.822 594.622 475.778 594.666 475.734C 595.022 475.378 594.178 475.422 594.134 475.466z"/>
<path style="stroke:none; fill:#67a2c2" d="M 629.6 475.2L 630.4 476L 629.6 475.2z"/>
<path style="stroke:none; fill:#a8c9dc" d="M 630.4 475.2L 631.2 476L 630.4 475.2z"/>
<path style="stroke:none; fill:#79adc8" d="M 819.2 475.2L 820 476L 819.2 475.2z"/>
<path style="stroke:none; fill:#a8c9dc" d="M 589.6 476L 590.4 476.8L 589.6 476z"/>
<path style="stroke:none; fill:#559bba" d="M 590.4 476L 591.2 476.8L 590.4 476z"/>
<path style="stroke:none; fill:#67a2c2" d="M 632.8 476L 633.6 476.8L 632.8 476z"/>
<path style="stroke:none; fill:#a8c9dc" d="M 633.6 476L 634.4 476.8L 633.6 476z"/>
<path style="stroke:none; fill:#85b7cf" d="M 587.2 476.8L 588 477.6L 587.2 476.8z"/>
<path style="stroke:none; fill:#4691b6" d="M 635.2 476.8L 636 477.6L 635.2 476.8z"/>
<path style="stroke:none; fill:#96c1d4" d="M 636 476.8L 636.8 477.6L 636 476.8z"/>
<path style="stroke:none; fill:#85b7cf" d="M 584.8 477.6L 585.6 478.4L 584.8 477.6z"/>
<path style="stroke:none; fill:#96c1d4" d="M 638.4 477.6L 639.2 478.4L 638.4 477.6z"/>
<path style="stroke:none; fill:#67a2c2" d="M 820 477.6L 820.8 478.4L 820 477.6z"/>
<path style="stroke:none; fill:#a8c9dc" d="M 582.4 478.4L 583.2 479.2L 582.4 478.4z"/>
<path style="stroke:none; fill:#4691b6" d="M 583.2 478.4L 584 479.2L 583.2 478.4z"/>
<path style="stroke:none; fill:#67a2c2" d="M 640 478.4L 640.8 479.2L 640 478.4z"/>
<path style="stroke:none; fill:#c5dce8" d="M 640.8 478.4L 641.6 479.2L 640.8 478.4z"/>
<path style="stroke:none; fill:#a8c9dc" d="M 820 478.4L 820.8 479.2L 820 478.4z"/>
<path style="stroke:none; fill:#79adc8" d="M 580.8 479.2L 581.6 480L 580.8 479.2z"/>
<path style="stroke:none; fill:#a8c9dc" d="M 642.4 479.2L 643.2 480L 642.4 479.2z"/>
<path style="stroke:none; fill:#559bba" d="M 579.2 480L 580 480.8L 579.2 480z"/>
<path style="stroke:none; fill:#96c1d4" d="M 644 480L 644.8 480.8L 644 480z"/>
<path style="stroke:none; fill:#4691b6" d="M 577.6 480.8L 578.4 481.6L 577.6 480.8z"/>
<path style="stroke:none; fill:#96c1d4" d="M 645.6 480.8L 646.4 481.6L 645.6 480.8z"/>
<path style="stroke:none; fill:#67a2c2" d="M 820.8 480.8L 821.6 481.6L 820.8 480.8z"/>
<path style="stroke:none; fill:#4691b6" d="M 576 481.6L 576.8 482.4L 576 481.6z"/>
<path style="stroke:none; fill:#a8c9dc" d="M 647.2 481.6L 648 482.4L 647.2 481.6M 820.8 481.6L 821.6 482.4L 820.8 481.6z"/>
<path style="stroke:none; fill:#559bba" d="M 574.4 482.4L 575.2 483.2L 574.4 482.4z"/>
<path style="stroke:none; fill:#79adc8" d="M 572.8 483.2L 573.6 484L 572.8 483.2z"/>
<path style="stroke:none; fill:#67a2c2" d="M 649.6 483.2L 650.4 484L 649.6 483.2z"/>
<path style="stroke:none; fill:#a8c9dc" d="M 571.2 484L 572 484.8L 571.2 484z"/>
<path style="stroke:none; fill:#b6d2df" d="M 651.2 484L 652 484.8L 651.2 484z"/>
<path style="stroke:none; fill:#79adc8" d="M 821.6 484L 822.4 484.8L 821.6 484z"/>
<path style="stroke:none; fill:#4691b6" d="M 570.4 484.8L 571.2 485.6L 570.4 484.8z"/>
<path style="stroke:none; fill:#67a2c2" d="M 652 484.8L 652.8 485.6L 652 484.8z"/>
<path style="stroke:none; fill:#b6d2df" d="M 821.6 484.8L 822.4 485.6L 821.6 484.8z"/>
<path style="stroke:none; fill:#85b7cf" d="M 568.8 485.6L 569.6 486.4L 568.8 485.6z"/>
<path style="stroke:none; fill:#96c1d4" d="M 654.4 486.4L 655.2 487.2L 654.4 486.4z"/>
<path style="stroke:none; fill:#b6d2df" d="M 566.4 487.2L 567.2 488L 566.4 487.2z"/>
<path style="stroke:none; fill:#67a2c2" d="M 655.2 487.2L 656 488L 655.2 487.2z"/>
<path style="stroke:none; fill:#b6d2df" d="M 822.664 487.734C 822.624 487.778 822.576 488.622 822.936 488.266C 822.976 488.222 823.024 487.378 822.664 487.734z"/>
<path style="stroke:none; fill:#79adc8" d="M 565.6 488L 566.4 488.8L 565.6 488z"/>
<path style="stroke:none; fill:#3885ae" d="M 656 488L 656.8 488.8L 656 488z"/>
<path style="stroke:none; fill:#b6d2df" d="M 563.2 489.6L 564 490.4L 563.2 489.6z"/>
<path style="stroke:none; fill:#85b7cf" d="M 562.4 490.4L 563.2 491.2L 562.4 490.4z"/>
<path style="stroke:none; fill:#c5dce8" d="M 659.2 490.4L 660 491.2L 659.2 490.4z"/>
<path style="stroke:none; fill:#85b7cf" d="M 823.464 490.934C 823.424 490.978 823.376 491.822 823.736 491.466C 823.776 491.422 823.824 490.578 823.464 490.934z"/>
<path style="stroke:none; fill:#67a2c2" d="M 561.6 491.2L 562.4 492L 561.6 491.2z"/>
<path style="stroke:none; fill:#b6d2df" d="M 660 491.2L 660.8 492L 660 491.2z"/>
<path style="stroke:none; fill:#4691b6" d="M 560.8 492L 561.6 492.8L 560.8 492z"/>
<path style="stroke:none; fill:#b6d2df" d="M 660.8 492L 661.6 492.8L 660.8 492z"/>
<path style="stroke:none; fill:#96c1d4" d="M 824.264 494.934C 824.224 494.978 824.176 495.822 824.536 495.466C 824.576 495.422 824.624 494.578 824.264 494.934z"/>
<path style="stroke:none; fill:#559bba" d="M 664 496L 664.8 496.8L 664 496z"/>
<path style="stroke:none; fill:#85b7cf" d="M 664.8 496.8L 665.6 497.6L 664.8 496.8z"/>
<path style="stroke:none; fill:#b6d2df" d="M 665.6 497.6L 666.4 498.4L 665.6 497.6z"/>
<path style="stroke:none; fill:#67a2c2" d="M 825.064 498.134C 825.024 498.178 824.976 499.022 825.336 498.666C 825.376 498.622 825.424 497.778 825.064 498.134z"/>
<path style="stroke:none; fill:#4691b6" d="M 553.6 499.2L 554.4 500L 553.6 499.2M 666.4 499.2L 667.2 500L 666.4 499.2z"/>
<path style="stroke:none; fill:#b6d2df" d="M 825.064 499.734C 825.024 499.778 824.976 500.622 825.336 500.266C 825.376 500.222 825.424 499.378 825.064 499.734z"/>
<path style="stroke:none; fill:#559bba" d="M 552.8 500L 553.6 500.8L 552.8 500z"/>
<path style="stroke:none; fill:#85b7cf" d="M 667.2 500L 668 500.8L 667.2 500M 552 500.8L 552.8 501.6L 552 500.8z"/>
<path style="stroke:none; fill:#a8c9dc" d="M 551.2 501.6L 552 502.4L 551.2 501.6z"/>
<path style="stroke:none; fill:#96c1d4" d="M 668.8 502.4L 669.6 503.2L 668.8 502.4z"/>
<path style="stroke:none; fill:#67a2c2" d="M 825.864 502.934C 825.824 502.978 825.776 503.822 826.136 503.466C 826.176 503.422 826.224 502.578 825.864 502.934z"/>
<path style="stroke:none; fill:#4691b6" d="M 549.6 504L 550.4 504.8L 549.6 504M 669.6 504L 670.4 504.8L 669.6 504z"/>
<path style="stroke:none; fill:#b6d2df" d="M 825.864 504.534C 825.824 504.578 825.776 505.422 826.136 505.066C 826.176 505.022 826.224 504.178 825.864 504.534z"/>
<path style="stroke:none; fill:#85b7cf" d="M 548.8 504.8L 549.6 505.6L 548.8 504.8z"/>
<path style="stroke:none; fill:#b6d2df" d="M 670.4 504.8L 671.2 505.6L 670.4 504.8z"/>
<path style="stroke:none; fill:#96c1d4" d="M 671.2 506.4L 672 507.2L 671.2 506.4z"/>
<path style="stroke:none; fill:#559bba" d="M 547.2 507.2L 548 508L 547.2 507.2z"/>
<path style="stroke:none; fill:#67a2c2" d="M 826.664 507.734C 826.624 507.778 826.576 508.622 826.936 508.266C 826.976 508.222 827.024 507.378 826.664 507.734z"/>
<path style="stroke:none; fill:#a8c9dc" d="M 546.4 508L 547.2 508.8L 546.4 508z"/>
<path style="stroke:none; fill:#85b7cf" d="M 672 508L 672.8 508.8L 672 508z"/>
<path style="stroke:none; fill:#b6d2df" d="M 826.664 509.334C 826.624 509.378 826.576 510.222 826.936 509.866C 826.976 509.822 827.024 508.978 826.664 509.334z"/>
<path style="stroke:none; fill:#559bba" d="M 545.6 509.6L 546.4 510.4L 545.6 509.6z"/>
<path style="stroke:none; fill:#85b7cf" d="M 672.8 509.6L 673.6 510.4L 672.8 509.6z"/>
<path style="stroke:none; fill:#b6d2df" d="M 544.8 510.4L 545.6 511.2L 544.8 510.4z"/>
<path style="stroke:none; fill:#85b7cf" d="M 673.6 511.2L 674.4 512L 673.6 511.2z"/>
<path style="stroke:none; fill:#67a2c2" d="M 544 512L 544.8 512.8L 544 512z"/>
<path style="stroke:none; fill:#a8c9dc" d="M 674.4 512.8L 675.2 513.6L 674.4 512.8z"/>
<path style="stroke:none; fill:#559bba" d="M 827.464 513.334C 827.424 513.378 827.376 514.222 827.736 513.866C 827.776 513.822 827.824 512.978 827.464 513.334z"/>
<path style="stroke:none; fill:#4691b6" d="M 543.2 513.6L 544 514.4L 543.2 513.6z"/>
<path style="stroke:none; fill:#b6d2df" d="M 542.4 514.4L 543.2 515.2L 542.4 514.4z"/>
<path style="stroke:none; fill:#c5dce8" d="M 675.2 514.4L 676 515.2L 675.2 514.4z"/>
<path style="stroke:none; fill:#96c1d4" d="M 827.2 514.4L 827.2 516.8L 828 516.8C 827.8 515.639 827.744 515.398 827.2 514.4z"/>
<path style="stroke:none; fill:#559bba" d="M 675.2 515.2L 676 516L 675.2 515.2z"/>
<path style="stroke:none; fill:#85b7cf" d="M 541.6 516L 542.4 516.8L 541.6 516M 676 516.8L 676.8 517.6L 676 516.8M 540.8 517.6L 541.6 518.4L 540.8 517.6M 540 519.2L 540.8 520L 540 519.2z"/>
<path style="stroke:none; fill:#67a2c2" d="M 676.8 519.2L 677.6 520L 676.8 519.2z"/>
<path style="stroke:none; fill:#4691b6" d="M 828 519.2L 828 521.6L 828.8 521.6C 828.6 520.438 828.544 520.198 828 519.2z"/>
<path style="stroke:none; fill:#85b7cf" d="M 539.2 520.8L 540 521.6L 539.2 520.8z"/>
<path style="stroke:none; fill:#b6d2df" d="M 677.6 520.8L 678.4 521.6L 677.6 520.8z"/>
<path style="stroke:none; fill:#67a2c2" d="M 677.6 521.6L 678.4 522.4L 677.6 521.6z"/>
<path style="stroke:none; fill:#96c1d4" d="M 828.264 522.134C 828.224 522.178 828.176 523.022 828.536 522.666C 828.576 522.622 828.624 521.778 828.264 522.134M 538.4 522.4L 539.2 523.2L 538.4 522.4z"/>
<path style="stroke:none; fill:#b6d2df" d="M 678.4 523.2L 679.2 524L 678.4 523.2M 828.264 523.734C 828.224 523.778 828.176 524.622 828.536 524.266C 828.576 524.222 828.624 523.378 828.264 523.734M 537.6 524L 538.4 524.8L 537.6 524z"/>
<path style="stroke:none; fill:#67a2c2" d="M 678.4 524L 679.2 524.8L 678.4 524z"/>
<path style="stroke:none; fill:#4691b6" d="M 537.6 524.8L 538.4 525.6L 537.6 524.8z"/>
<path style="stroke:none; fill:#67a2c2" d="M 536.8 526.4L 537.6 527.2L 536.8 526.4z"/>
<path style="stroke:none; fill:#96c1d4" d="M 679.2 526.4L 680 527.2L 679.2 526.4z"/>
<path style="stroke:none; fill:#4691b6" d="M 679.2 527.2L 680 528L 679.2 527.2z"/>
<path style="stroke:none; fill:#b6d2df" d="M 536 528L 536.8 528.8L 536 528z"/>
<path style="stroke:none; fill:#4691b6" d="M 829.064 528.534C 829.024 528.578 828.976 529.422 829.336 529.066C 829.376 529.022 829.424 528.178 829.064 528.534z"/>
<path style="stroke:none; fill:#559bba" d="M 536 528.8L 536.8 529.6L 536 528.8z"/>
<path style="stroke:none; fill:#c5dce8" d="M 680 528.8L 680.8 529.6L 680 528.8z"/>
<path style="stroke:none; fill:#85b7cf" d="M 680 529.6L 680.8 530.4L 680 529.6z"/>
<path style="stroke:none; fill:#79adc8" d="M 829.064 530.134C 829.024 530.178 828.976 531.022 829.336 530.666C 829.376 530.622 829.424 529.778 829.064 530.134z"/>
<path style="stroke:none; fill:#b6d2df" d="M 535.2 530.4L 536 531.2L 535.2 530.4z"/>
<path style="stroke:none; fill:#67a2c2" d="M 535.2 531.2L 536 532L 535.2 531.2z"/>
<path style="stroke:none; fill:#b6d2df" d="M 828.8 531.2L 828.8 535.2L 829.6 535.2C 829.528 533.629 829.424 532.615 828.8 531.2z"/>
<path style="stroke:none; fill:#85b7cf" d="M 681.066 532.534C 681.022 532.578 680.978 533.422 681.334 533.066C 681.378 533.022 681.422 532.178 681.066 532.534z"/>
<path style="stroke:none; fill:#67a2c2" d="M 534.666 534.134C 534.622 534.178 534.578 535.022 534.934 534.666C 534.978 534.622 535.022 533.778 534.666 534.134z"/>
<path style="stroke:none; fill:#d2e6ec" d="M 828.8 535.2L 828.8 537.6L 829.6 537.6C 829.4 536.438 829.344 536.198 828.8 535.2z"/>
<path style="stroke:none; fill:#85b7cf" d="M 681.866 536.534C 681.822 536.578 681.778 537.422 682.134 537.066C 682.178 537.022 682.222 536.178 681.866 536.534z"/>
<path style="stroke:none; fill:#67a2c2" d="M 533.6 537.6L 533.6 540L 534.4 540C 534.199 538.838 534.148 538.598 533.6 537.6z"/>
<path style="stroke:none; fill:#287ca9" d="M 681.866 538.134C 681.822 538.178 681.778 539.022 682.134 538.666C 682.178 538.622 682.222 537.778 681.866 538.134z"/>
<path style="stroke:none; fill:#96c1d4" d="M 682.4 540L 682.4 542.4L 683.2 542.4C 682.999 541.238 682.948 540.998 682.4 540z"/>
<path style="stroke:none; fill:#287ca9" d="M 829.6 540L 829.6 542.4L 830.4 542.4C 830.2 541.238 830.144 540.998 829.6 540z"/>
<path style="stroke:none; fill:#96c1d4" d="M 532.8 542.4L 532.8 544.8L 533.6 544.8C 533.399 543.638 533.348 543.398 532.8 542.4z"/>
<path style="stroke:none; fill:#287ca9" d="M 682.666 542.934C 682.622 542.978 682.578 543.822 682.934 543.466C 682.978 543.422 683.022 542.578 682.666 542.934z"/>
<path style="stroke:none; fill:#4691b6" d="M 829.6 542.4L 829.6 548L 830.4 548C 830.384 545.966 830.384 544.265 829.6 542.4z"/>
<path style="stroke:none; fill:#559bba" d="M 532.8 544.8L 532.8 547.2L 533.6 547.2C 533.399 546.038 533.348 545.798 532.8 544.8z"/>
<path style="stroke:none; fill:#96c1d4" d="M 683.2 545.6L 683.2 548L 684 548C 683.799 546.838 683.748 546.598 683.2 545.6z"/>
<path style="stroke:none; fill:#4691b6" d="M 683.466 548.534C 683.422 548.578 683.378 549.422 683.734 549.066C 683.778 549.022 683.822 548.178 683.466 548.534z"/>
<path style="stroke:none; fill:#67a2c2" d="M 829.6 548L 829.6 553.6L 830.4 553.6C 830.384 551.566 830.384 549.865 829.6 548z"/>
<path style="stroke:none; fill:#c5dce8" d="M 532 550.4L 532 556L 532.8 556C 532.785 553.966 532.788 552.266 532 550.4z"/>
<path style="stroke:none; fill:#d2e6ec" d="M 684.266 551.734C 684.222 551.778 684.178 552.622 684.534 552.266C 684.578 552.222 684.622 551.378 684.266 551.734z"/>
<path style="stroke:none; fill:#c5dce8" d="M 388 552.8L 388 583.2L 388.8 583.2C 388.8 574.471 391.369 560.829 388 552.8z"/>
<path style="stroke:none; fill:#a8c9dc" d="M 684.266 553.334C 684.222 553.378 684.178 554.222 684.534 553.866C 684.578 553.822 684.622 552.978 684.266 553.334z"/>
<path style="stroke:none; fill:#85b7cf" d="M 829.6 553.6L 829.6 805.6L 830.4 805.6L 830.4 628L 830.4 576.8C 830.4 569.973 832.248 559.903 829.6 553.6z"/>
<path style="stroke:none; fill:#79adc8" d="M 684.266 554.934C 684.222 554.978 684.178 555.822 684.534 555.466C 684.578 555.422 684.622 554.578 684.266 554.934z"/>
<path style="stroke:none; fill:#85b7cf" d="M 532 556L 532 805.6L 532.8 805.6L 532.8 629.6L 532.8 578.4C 532.8 571.783 534.565 562.111 532 556z"/>
<path style="stroke:none; fill:#559bba" d="M 684 556L 684 558.4L 684.8 558.4C 684.599 557.238 684.548 556.998 684 556z"/>
<path style="stroke:none; fill:#b6d2df" d="M 684.8 564L 684.8 805.6L 685.6 805.6L 685.6 635.2L 685.6 585.6C 685.6 579.194 687.284 569.919 684.8 564z"/>
<path style="stroke:none; fill:#d2e6ec" d="M 388 583.2L 388 608L 388.8 608C 388.8 600.739 390.809 589.894 388 583.2z"/>
<path style="stroke:none; fill:#e2edf4" d="M 388 608L 388 637.6L 388.8 637.6C 388.8 629.081 391.289 615.838 388 608z"/>
<path style="stroke:none; fill:#1674a1" d="M 387.2 652.8L 387.2 682.4L 388 682.4C 388 673.881 390.489 660.638 387.2 652.8z"/>
<path style="stroke:none; fill:#287ca9" d="M 387.2 682.4L 387.2 696.8L 388 696.8C 388 692.294 388.953 686.578 387.2 682.4z"/>
<path style="stroke:none; fill:#3885ae" d="M 387.2 696.8L 387.2 712L 388 712C 388 707.279 389.036 701.175 387.2 696.8z"/>
<path style="stroke:none; fill:#4691b6" d="M 387.2 712L 387.2 726.4L 388 726.4C 388 721.894 388.953 716.178 387.2 712z"/>
<path style="stroke:none; fill:#559bba" d="M 387.2 726.4L 387.2 752.8L 388 752.8C 388 745.119 390.169 733.475 387.2 726.4z"/>
<path style="stroke:none; fill:#85b7cf" d="M 387.2 752.8L 387.2 785.6L 388 785.6C 388 776.243 390.809 761.4 387.2 752.8z"/>
<path style="stroke:none; fill:#b6d2df" d="M 387.2 785.6L 387.2 805.6L 388 805.6C 388 799.602 389.526 791.142 387.2 785.6z"/>
<path style="stroke:none; fill:#287ca9" d="M 162.4 805.6L 162.4 806.4L 307.2 806.4C 303.027 804.648 297.295 805.6 292.8 805.6L 264 805.6L 162.4 805.6M 387.2 805.6L 387.2 806.4L 532.8 806.4C 528.627 804.648 522.895 805.6 518.4 805.6L 489.6 805.6L 387.2 805.6z"/>
<path style="stroke:none; fill:#1674a1" d="M 684.8 805.6L 684.8 806.4L 830.4 806.4C 826.224 804.648 820.496 805.6 816 805.6L 787.2 805.6L 684.8 805.6z"/>
<path style="stroke:none; fill:#287ca9" d="M 0 817.6L 0 824L 0.8 824C 0.794222 821.728 0.878168 819.688 0 817.6M 959.2 817.6L 959.2 824L 960 824C 959.992 821.728 960.08 819.688 959.2 817.6z"/>
<path style="stroke:none; fill:#79adc8" d="M 0 824L 0 826.4L 0.8 826.4C 0.599036 825.24 0.547844 825 0 824z"/>
<path style="stroke:none; fill:#85b7cf" d="M 959.2 824L 959.2 826.4L 960 826.4C 959.8 825.24 959.752 825 959.2 824z"/>
<path style="stroke:none; fill:#b6d2df" d="M 0.266666 826.936C 0.222239 826.976 0.17777 827.824 0.533334 827.464C 0.577806 827.424 0.622221 826.576 0.266666 826.936M 959.2 826.4L 959.2 828.8L 960 828.8C 959.8 827.64 959.752 827.4 959.2 826.4z"/>
<path style="stroke:none; fill:#e2edf4" d="M 0.266666 828.536C 0.222239 828.576 0.17777 829.424 0.533334 829.064C 0.577806 829.024 0.622221 828.176 0.266666 828.536z"/>
<path style="stroke:none; fill:none" d="M 959.2 828.8C 958.768 881.232 915.416 931.008 868.8 949.6C 856.376 954.552 842.296 959.088 828.8 959.2L 828.8 960L 960 960L 960 868C 960 856.976 963.448 838.92 959.2 828.8M 0 829.6L 0 960L 131.2 960L 131.2 959.2C 81.5704 958.792 34.4643 919.496 13.8068 876.8C 9.28984 867.464 5.77647 857.328 3.5395 847.2C 2.30243 841.6 2.25037 834.816 0 829.6z"/>
<path style="stroke:none; fill:#559bba" d="M 0.8 831.2L 0.8 833.6L 1.6 833.6C 1.39903 832.44 1.34783 832.2 0.8 831.2M 958.4 831.2L 958.4 833.6L 959.2 833.6C 959 832.44 958.944 832.2 958.4 831.2z"/>
<path style="stroke:none; fill:#b6d2df" d="M 1.06666 834.136C 1.02224 834.176 0.977768 835.024 1.33334 834.664C 1.37781 834.624 1.42222 833.776 1.06666 834.136M 958.664 834.136C 958.624 834.176 958.576 835.024 958.936 834.664C 958.976 834.624 959.024 833.776 958.664 834.136z"/>
<path style="stroke:none; fill:#79adc8" d="M 1.6 837.6L 1.6 840L 2.4 840C 2.19904 838.84 2.14783 838.6 1.6 837.6M 957.6 837.6L 957.6 840L 958.4 840C 958.2 838.84 958.144 838.6 957.6 837.6z"/>
<path style="stroke:none; fill:#559bba" d="M 2.4 841.6L 2.4 844L 3.2 844C 2.99903 842.84 2.94783 842.6 2.4 841.6z"/>
<path style="stroke:none; fill:#67a2c2" d="M 956.8 841.6L 956.8 844L 957.6 844C 957.4 842.84 957.352 842.6 956.8 841.6z"/>
<path style="stroke:none; fill:#a8c9dc" d="M 3.46666 846.936C 3.4222 846.976 3.37779 847.824 3.73334 847.464C 3.77776 847.424 3.82223 846.576 3.46666 846.936z"/>
<path style="stroke:none; fill:#67a2c2" d="M 956 846.4L 956.8 847.2L 956 846.4z"/>
<path style="stroke:none; fill:#559bba" d="M 4 849.6L 4.8 850.4L 4 849.6M 955.2 849.6L 956 850.4L 955.2 849.6z"/>
<path style="stroke:none; fill:#96c1d4" d="M 4 850.4L 4.8 851.2L 4 850.4M 955.2 850.4L 956 851.2L 955.2 850.4z"/>
<path style="stroke:none; fill:#67a2c2" d="M 4.8 852.8L 5.6 853.6L 4.8 852.8M 954.4 852.8L 955.2 853.6L 954.4 852.8z"/>
<path style="stroke:none; fill:#b6d2df" d="M 4.8 853.6L 5.6 854.4L 4.8 853.6M 954.4 853.6L 955.2 854.4L 954.4 853.6z"/>
<path style="stroke:none; fill:#4691b6" d="M 5.6 855.2L 6.4 856L 5.6 855.2M 953.6 855.2L 954.4 856L 953.6 855.2z"/>
<path style="stroke:none; fill:#85b7cf" d="M 5.6 856L 6.4 856.8L 5.6 856M 953.6 856L 954.4 856.8L 953.6 856z"/>
<path style="stroke:none; fill:#79adc8" d="M 6.4 858.4L 7.2 859.2L 6.4 858.4M 952.8 858.4L 953.6 859.2L 952.8 858.4M 7.2 860.8L 8 861.6L 7.2 860.8M 952 860.8L 952.8 861.6L 952 860.8M 8 863.2L 8.8 864L 8 863.2M 951.2 863.2L 952 864L 951.2 863.2z"/>
<path style="stroke:none; fill:#96c1d4" d="M 8.8 865.6L 9.6 866.4L 8.8 865.6M 950.4 865.6L 951.2 866.4L 950.4 865.6z"/>
<path style="stroke:none; fill:#559bba" d="M 9.6 867.2L 10.4 868L 9.6 867.2M 949.6 867.2L 950.4 868L 949.6 867.2z"/>
<path style="stroke:none; fill:#c5dce8" d="M 9.6 868L 10.4 868.8L 9.6 868M 949.6 868L 950.4 868.8L 949.6 868z"/>
<path style="stroke:none; fill:#85b7cf" d="M 10.4 869.6L 11.2 870.4L 10.4 869.6M 948.8 869.6L 949.6 870.4L 948.8 869.6z"/>
<path style="stroke:none; fill:#559bba" d="M 11.2 871.2L 12 872L 11.2 871.2M 948 871.2L 948.8 872L 948 871.2z"/>
<path style="stroke:none; fill:#4691b6" d="M 12 872.8L 12.8 873.6L 12 872.8M 947.2 872.8L 948 873.6L 947.2 872.8z"/>
<path style="stroke:none; fill:#b6d2df" d="M 12 873.6L 12.8 874.4L 12 873.6M 947.2 873.6L 948 874.4L 947.2 873.6z"/>
<path style="stroke:none; fill:#96c1d4" d="M 12.8 875.2L 13.6 876L 12.8 875.2M 946.4 875.2L 947.2 876L 946.4 875.2z"/>
<path style="stroke:none; fill:#79adc8" d="M 13.6 876.8L 14.4 877.6L 13.6 876.8z"/>
<path style="stroke:none; fill:#85b7cf" d="M 945.6 876.8L 946.4 877.6L 945.6 876.8z"/>
<path style="stroke:none; fill:#79adc8" d="M 14.4 878.4L 15.2 879.2L 14.4 878.4M 944.8 878.4L 945.6 879.2L 944.8 878.4z"/>
<path style="stroke:none; fill:#85b7cf" d="M 15.2 880L 16 880.8L 15.2 880M 944 880L 944.8 880.8L 944 880M 16 881.6L 16.8 882.4L 16 881.6M 943.2 881.6L 944 882.4L 943.2 881.6M 16.8 883.2L 17.6 884L 16.8 883.2z"/>
<path style="stroke:none; fill:#96c1d4" d="M 942.4 883.2L 943.2 884L 942.4 883.2z"/>
<path style="stroke:none; fill:#a8c9dc" d="M 17.6 884.8L 18.4 885.6L 17.6 884.8z"/>
<path style="stroke:none; fill:#b6d2df" d="M 941.6 884.8L 942.4 885.6L 941.6 884.8z"/>
<path style="stroke:none; fill:#3885ae" d="M 18.4 885.6L 19.2 886.4L 18.4 885.6z"/>
<path style="stroke:none; fill:#4691b6" d="M 940.8 885.6L 941.6 886.4L 940.8 885.6z"/>
<path style="stroke:none; fill:#67a2c2" d="M 19.2 887.2L 20 888L 19.2 887.2M 940 887.2L 940.8 888L 940 887.2z"/>
<path style="stroke:none; fill:#85b7cf" d="M 20 888.8L 20.8 889.6L 20 888.8M 939.2 888.8L 940 889.6L 939.2 888.8z"/>
<path style="stroke:none; fill:#b6d2df" d="M 20.8 890.4L 21.6 891.2L 20.8 890.4z"/>
<path style="stroke:none; fill:#c5dce8" d="M 938.4 890.4L 939.2 891.2L 938.4 890.4z"/>
<path style="stroke:none; fill:#67a2c2" d="M 21.6 891.2L 22.4 892L 21.6 891.2M 937.6 891.2L 938.4 892L 937.6 891.2z"/>
<path style="stroke:none; fill:#a8c9dc" d="M 22.4 892.8L 23.2 893.6L 22.4 892.8z"/>
<path style="stroke:none; fill:#b6d2df" d="M 936.8 892.8L 937.6 893.6L 936.8 892.8z"/>
<path style="stroke:none; fill:#4691b6" d="M 23.2 893.6L 24 894.4L 23.2 893.6z"/>
<path style="stroke:none; fill:#559bba" d="M 936 893.6L 936.8 894.4L 936 893.6z"/>
<path style="stroke:none; fill:#96c1d4" d="M 24 895.2L 24.8 896L 24 895.2M 935.2 895.2L 936 896L 935.2 895.2z"/>
<path style="stroke:none; fill:#4691b6" d="M 24.8 896L 25.6 896.8L 24.8 896M 934.4 896L 935.2 896.8L 934.4 896z"/>
<path style="stroke:none; fill:#b6d2df" d="M 25.6 897.6L 26.4 898.4L 25.6 897.6M 933.6 897.6L 934.4 898.4L 933.6 897.6z"/>
<path style="stroke:none; fill:#67a2c2" d="M 26.4 898.4L 27.2 899.2L 26.4 898.4M 932.8 898.4L 933.6 899.2L 932.8 898.4z"/>
<path style="stroke:none; fill:#85b7cf" d="M 28 900.8L 28.8 901.6L 28 900.8M 931.2 900.8L 932 901.6L 931.2 900.8z"/>
<path style="stroke:none; fill:#4691b6" d="M 28.8 901.6L 29.6 902.4L 28.8 901.6M 930.4 901.6L 931.2 902.4L 930.4 901.6z"/>
<path style="stroke:none; fill:#96c1d4" d="M 30.4 904L 31.2 904.8L 30.4 904z"/>
<path style="stroke:none; fill:#a8c9dc" d="M 928.8 904L 929.6 904.8L 928.8 904z"/>
<path style="stroke:none; fill:#67a2c2" d="M 31.2 904.8L 32 905.6L 31.2 904.8M 928 904.8L 928.8 905.6L 928 904.8z"/>
<path style="stroke:none; fill:#a8c9dc" d="M 33.6 908L 34.4 908.8L 33.6 908z"/>
<path style="stroke:none; fill:#b6d2df" d="M 925.6 908L 926.4 908.8L 925.6 908z"/>
<path style="stroke:none; fill:#85b7cf" d="M 34.4 908.8L 35.2 909.6L 34.4 908.8M 924.8 908.8L 925.6 909.6L 924.8 908.8z"/>
<path style="stroke:none; fill:#67a2c2" d="M 35.2 909.6L 36 910.4L 35.2 909.6M 924 909.6L 924.8 910.4L 924 909.6z"/>
<path style="stroke:none; fill:#4691b6" d="M 36 910.4L 36.8 911.2L 36 910.4M 923.2 910.4L 924 911.2L 923.2 910.4z"/>
<path style="stroke:none; fill:#b6d2df" d="M 40.8 916L 41.6 916.8L 40.8 916M 918.4 916L 919.2 916.8L 918.4 916M 41.6 916.8L 42.4 917.6L 41.6 916.8M 917.6 916.8L 918.4 917.6L 917.6 916.8M 42.4 917.6L 43.2 918.4L 42.4 917.6M 916.8 917.6L 917.6 918.4L 916.8 917.6M 43.2 918.4L 44 919.2L 43.2 918.4M 916 918.4L 916.8 919.2L 916 918.4z"/>
<path style="stroke:none; fill:#4691b6" d="M 48.8 923.2L 49.6 924L 48.8 923.2M 910.4 923.2L 911.2 924L 910.4 923.2z"/>
<path style="stroke:none; fill:#67a2c2" d="M 49.6 924L 50.4 924.8L 49.6 924M 909.6 924L 910.4 924.8L 909.6 924z"/>
<path style="stroke:none; fill:#85b7cf" d="M 50.4 924.8L 51.2 925.6L 50.4 924.8z"/>
<path style="stroke:none; fill:#96c1d4" d="M 908.8 924.8L 909.6 925.6L 908.8 924.8z"/>
<path style="stroke:none; fill:#a8c9dc" d="M 51.2 925.6L 52 926.4L 51.2 925.6z"/>
<path style="stroke:none; fill:#b6d2df" d="M 908 925.6L 908.8 926.4L 908 925.6z"/>
<path style="stroke:none; fill:#3885ae" d="M 905.6 927.2L 906.4 928L 905.6 927.2z"/>
<path style="stroke:none; fill:#67a2c2" d="M 54.4 928L 55.2 928.8L 54.4 928M 904.8 928L 905.6 928.8L 904.8 928z"/>
<path style="stroke:none; fill:#a8c9dc" d="M 55.2 928.8L 56 929.6L 55.2 928.8M 904 928.8L 904.8 929.6L 904 928.8z"/>
<path style="stroke:none; fill:#4691b6" d="M 57.6 930.4L 58.4 931.2L 57.6 930.4M 901.6 930.4L 902.4 931.2L 901.6 930.4z"/>
<path style="stroke:none; fill:#85b7cf" d="M 58.4 931.2L 59.2 932L 58.4 931.2z"/>
<path style="stroke:none; fill:#96c1d4" d="M 900.8 931.2L 901.6 932L 900.8 931.2z"/>
<path style="stroke:none; fill:#67a2c2" d="M 60.8 932.8L 61.6 933.6L 60.8 932.8M 898.4 932.8L 899.2 933.6L 898.4 932.8z"/>
<path style="stroke:none; fill:#b6d2df" d="M 61.6 933.6L 62.4 934.4L 61.6 933.6M 897.6 933.6L 898.4 934.4L 897.6 933.6z"/>
<path style="stroke:none; fill:#4691b6" d="M 63.2 934.4L 64 935.2L 63.2 934.4M 896 934.4L 896.8 935.2L 896 934.4z"/>
<path style="stroke:none; fill:#96c1d4" d="M 64 935.2L 64.8 936L 64 935.2M 895.2 935.2L 896 936L 895.2 935.2z"/>
<path style="stroke:none; fill:#559bba" d="M 65.6 936L 66.4 936.8L 65.6 936M 893.6 936L 894.4 936.8L 893.6 936z"/>
<path style="stroke:none; fill:#b6d2df" d="M 66.4 936.8L 67.2 937.6L 66.4 936.8M 892.8 936.8L 893.6 937.6L 892.8 936.8z"/>
<path style="stroke:none; fill:#67a2c2" d="M 68 937.6L 68.8 938.4L 68 937.6M 891.2 937.6L 892 938.4L 891.2 937.6z"/>
<path style="stroke:none; fill:#c5dce8" d="M 68.8 938.4L 69.6 939.2L 68.8 938.4z"/>
<path style="stroke:none; fill:#96c1d4" d="M 70.4 939.2L 71.2 940L 70.4 939.2M 888.8 939.2L 889.6 940L 888.8 939.2z"/>
<path style="stroke:none; fill:#67a2c2" d="M 72 940L 72.8 940.8L 72 940M 887.2 940L 888 940.8L 887.2 940z"/>
<path style="stroke:none; fill:#4691b6" d="M 73.6 940.8L 74.4 941.6L 73.6 940.8M 885.6 940.8L 886.4 941.6L 885.6 940.8z"/>
<path style="stroke:none; fill:#b6d2df" d="M 74.4 941.6L 75.2 942.4L 74.4 941.6M 884.8 941.6L 885.6 942.4L 884.8 941.6z"/>
<path style="stroke:none; fill:#96c1d4" d="M 76 942.4L 76.8 943.2L 76 942.4M 883.2 942.4L 884 943.2L 883.2 942.4M 77.6 943.2L 78.4 944L 77.6 943.2M 881.6 943.2L 882.4 944L 881.6 943.2z"/>
<path style="stroke:none; fill:#85b7cf" d="M 79.2 944L 80 944.8L 79.2 944M 880 944L 880.8 944.8L 880 944M 80.8 944.8L 81.6 945.6L 80.8 944.8M 878.4 944.8L 879.2 945.6L 878.4 944.8M 82.4 945.6L 83.2 946.4L 82.4 945.6M 876.8 945.6L 877.6 946.4L 876.8 945.6z"/>
<path style="stroke:none; fill:#a8c9dc" d="M 84 946.4L 84.8 947.2L 84 946.4M 875.2 946.4L 876 947.2L 875.2 946.4z"/>
<path style="stroke:none; fill:#b6d2df" d="M 85.6 947.2L 86.4 948L 85.6 947.2z"/>
<path style="stroke:none; fill:#4691b6" d="M 86.4 947.2L 87.2 948L 86.4 947.2M 872.8 947.2L 873.6 948L 872.8 947.2z"/>
<path style="stroke:none; fill:#b6d2df" d="M 873.6 947.2L 874.4 948L 873.6 947.2z"/>
<path style="stroke:none; fill:#67a2c2" d="M 88 948L 88.8 948.8L 88 948M 871.2 948L 872 948.8L 871.2 948z"/>
<path style="stroke:none; fill:#96c1d4" d="M 89.6 948.8L 90.4 949.6L 89.6 948.8M 869.6 948.8L 870.4 949.6L 869.6 948.8z"/>
<path style="stroke:none; fill:#67a2c2" d="M 92 949.6L 92.8 950.4L 92 949.6M 867.2 949.6L 868 950.4L 867.2 949.6z"/>
<path style="stroke:none; fill:#96c1d4" d="M 93.6 950.4L 94.4 951.2L 93.6 950.4M 865.6 950.4L 866.4 951.2L 865.6 950.4z"/>
<path style="stroke:none; fill:#85b7cf" d="M 96 951.2L 96.8 952L 96 951.2M 863.2 951.2L 864 952L 863.2 951.2z"/>
<path style="stroke:none; fill:#79adc8" d="M 98.4 952L 99.2 952.8L 98.4 952z"/>
<path style="stroke:none; fill:#85b7cf" d="M 860.8 952L 861.6 952.8L 860.8 952z"/>
<path style="stroke:none; fill:#79adc8" d="M 100.8 952.8L 101.6 953.6L 100.8 952.8M 858.4 952.8L 859.2 953.6L 858.4 952.8z"/>
<path style="stroke:none; fill:#96c1d4" d="M 103.2 953.6L 104 954.4L 103.2 953.6z"/>
<path style="stroke:none; fill:#4691b6" d="M 104 953.6L 104.8 954.4L 104 953.6M 855.2 953.6L 856 954.4L 855.2 953.6z"/>
<path style="stroke:none; fill:#96c1d4" d="M 856 953.6L 856.8 954.4L 856 953.6z"/>
<path style="stroke:none; fill:#b6d2df" d="M 105.6 954.4L 106.4 955.2L 105.6 954.4z"/>
<path style="stroke:none; fill:#79adc8" d="M 106.4 954.4L 107.2 955.2L 106.4 954.4M 852.8 954.4L 853.6 955.2L 852.8 954.4z"/>
<path style="stroke:none; fill:#b6d2df" d="M 853.6 954.4L 854.4 955.2L 853.6 954.4z"/>
<path style="stroke:none; fill:#67a2c2" d="M 109.334 955.464C 108.978 955.824 109.822 955.776 109.866 955.736C 110.222 955.376 109.378 955.424 109.334 955.464M 849.6 955.2L 850.4 956L 849.6 955.2z"/>
<path style="stroke:none; fill:#a8c9dc" d="M 850.4 955.2L 851.2 956L 850.4 955.2z"/>
<path style="stroke:none; fill:#79adc8" d="M 112.534 956.264C 112.178 956.624 113.022 956.576 113.066 956.536C 113.422 956.176 112.578 956.224 112.534 956.264z"/>
<path style="stroke:none; fill:#3885ae" d="M 845.6 956L 846.4 956.8L 845.6 956z"/>
<path style="stroke:none; fill:#b6d2df" d="M 846.936 956.264C 846.576 956.624 847.424 956.576 847.464 956.536C 847.824 956.176 846.976 956.224 846.936 956.264z"/>
<path style="stroke:none; fill:#96c1d4" d="M 115.734 957.064C 115.378 957.424 116.222 957.376 116.266 957.336C 116.622 956.976 115.778 957.024 115.734 957.064z"/>
<path style="stroke:none; fill:#3885ae" d="M 117.334 957.064C 116.978 957.424 117.822 957.376 117.866 957.336C 118.222 956.976 117.378 957.024 117.334 957.064z"/>
<path style="stroke:none; fill:#67a2c2" d="M 841.6 956.8L 841.6 957.6L 844 957.6C 843 957.056 842.76 957 841.6 956.8z"/>
<path style="stroke:none; fill:#85b7cf" d="M 120.534 957.864C 120.178 958.224 121.022 958.176 121.066 958.136C 121.422 957.776 120.578 957.824 120.534 957.864z"/>
<path style="stroke:none; fill:#287ca9" d="M 122.134 957.864C 121.778 958.224 122.622 958.176 122.666 958.136C 123.022 957.776 122.178 957.824 122.134 957.864z"/>
<path style="stroke:none; fill:#559bba" d="M 837.336 957.864C 836.976 958.224 837.824 958.176 837.864 958.136C 838.224 957.776 837.376 957.824 837.336 957.864z"/>
<path style="stroke:none; fill:#b6d2df" d="M 838.936 957.864C 838.576 958.224 839.424 958.176 839.464 958.136C 839.824 957.776 838.976 957.824 838.936 957.864z"/>
<path style="stroke:none; fill:#a8c9dc" d="M 124.8 958.4L 124.8 959.2L 127.2 959.2C 126.202 958.656 125.962 958.6 124.8 958.4z"/>
<path style="stroke:none; fill:#4691b6" d="M 127.734 958.664C 127.378 959.024 128.222 958.976 128.266 958.936C 128.622 958.576 127.778 958.624 127.734 958.664M 830.936 958.664C 830.576 959.024 831.424 958.976 831.464 958.936C 831.824 958.576 830.976 958.624 830.936 958.664z"/>
<path style="stroke:none; fill:#85b7cf" d="M 832.536 958.664C 832.176 959.024 833.024 958.976 833.064 958.936C 833.424 958.576 832.576 958.624 832.536 958.664z"/>
<path style="stroke:none; fill:#c5dce8" d="M 834.136 958.664C 833.776 959.024 834.624 958.976 834.664 958.936C 835.024 958.576 834.176 958.624 834.136 958.664M 131.734 959.464C 131.378 959.824 132.222 959.776 132.266 959.736C 132.622 959.376 131.778 959.424 131.734 959.464z"/>
<path style="stroke:none; fill:#a8c9dc" d="M 132.8 959.2L 132.8 960L 135.2 960C 134.202 959.456 133.962 959.4 132.8 959.2z"/>
<path style="stroke:none; fill:#4691b6" d="M 135.2 959.2L 135.2 960L 141.6 960C 139.51 959.12 137.468 959.208 135.2 959.2z"/>
<path style="stroke:none; fill:#1674a1" d="M 141.6 959.2L 141.6 960L 818.4 960C 813.248 957.84 805.56 959.2 800 959.2L 760 959.2L 621.6 959.2L 141.6 959.2z"/>
<path style="stroke:none; fill:#4691b6" d="M 818.4 959.2L 818.4 960L 823.2 960C 821.56 959.304 820.2 959.24 818.4 959.2z"/>
<path style="stroke:none; fill:#79adc8" d="M 823.736 959.464C 823.376 959.824 824.224 959.776 824.264 959.736C 824.624 959.376 823.776 959.424 823.736 959.464z"/>
<path style="stroke:none; fill:#a8c9dc" d="M 824.8 959.2L 824.8 960L 827.2 960C 826.2 959.456 825.96 959.4 824.8 959.2z"/>
<path style="stroke:none; fill:#d2e6ec" d="M 827.736 959.464C 827.376 959.824 828.224 959.776 828.264 959.736C 828.624 959.376 827.776 959.424 827.736 959.464z"/>
</g>
</svg>