<?xml version="1.0" standalone="no"?>
<!DOCTYPE svg PUBLIC "-//W3C//DTD SVG 20010904//EN"
 "http://www.w3.org/TR/2001/REC-SVG-20010904/DTD/svg10.dtd">
<svg version="1.0" xmlns="http://www.w3.org/2000/svg"
 width="200.000000pt" height="200.000000pt" viewBox="0 0 300.000000 368.000000"
 preserveAspectRatio="xMidYMid meet">
<metadata>
Created by potrace 1.10, written by Peter Selinger 2001-2011
</metadata>
<g transform="translate(0.000000,368.000000) scale(0.100000,-0.100000)"
fill="#05386B" stroke="none">
<path d="M2442 3630 c0 -14 2 -19 5 -12 2 6 2 18 0 25 -3 6 -5 1 -5 -13z"/>
<path d="M2660 3646 c0 -2 7 -7 16 -10 8 -3 12 -2 9 4 -6 10 -25 14 -25 6z"/>
<path d="M1343 3619 c21 -11 35 -24 32 -30 -4 -5 -11 -7 -16 -3 -14 8 -150 15
-172 8 -9 -3 -15 -10 -12 -15 8 -12 -2 -11 -26 1 -10 6 -19 8 -19 6 0 -14 59
-34 81 -29 l24 7 -25 7 c-23 6 -23 7 -3 8 12 1 24 -3 27 -8 4 -5 21 -7 39 -5
24 4 28 2 17 -5 -19 -14 0 -14 34 -1 17 6 26 6 26 0 0 -6 5 -10 11 -10 5 0 7
5 4 10 -10 15 46 21 57 5 5 -6 8 -6 8 2 0 15 106 -32 135 -60 20 -20 20 -20 0
-13 -17 6 -16 3 5 -17 66 -64 310 -287 314 -287 2 0 -32 36 -75 81 -43 44 -79
85 -79 92 0 7 4 6 11 -3 7 -10 9 -11 7 -2 -2 8 -7 12 -10 10 -4 -2 -24 14 -46
35 -21 20 -41 35 -44 32 -3 -3 -22 15 -43 41 -21 25 -52 55 -69 65 -17 10 -25
19 -18 19 20 0 65 -26 86 -49 18 -20 43 -20 30 1 -4 6 -1 9 7 6 8 -3 33 -29
57 -59 24 -30 58 -71 77 -91 18 -20 30 -39 27 -43 -4 -4 -2 -5 5 -3 6 1 19 -6
28 -17 9 -11 13 -13 8 -4 -11 22 -61 85 -103 131 -19 20 -48 54 -65 74 l-29
37 33 -17 c18 -10 39 -15 47 -12 8 3 23 -7 36 -24 11 -16 26 -27 31 -23 5 3 2
10 -7 15 -9 5 -16 14 -16 20 0 6 9 3 19 -6 15 -13 20 -14 24 -4 4 9 6 9 6 1 1
-7 7 -10 15 -7 8 3 22 -9 36 -31 14 -22 28 -34 36 -31 8 3 20 -3 26 -14 7 -11
17 -20 21 -20 5 0 -1 13 -13 30 -14 19 -26 27 -38 24 -15 -5 -15 -4 -2 5 13
10 12 13 -5 26 -11 8 -33 27 -48 42 -18 18 -25 22 -21 11 9 -26 3 -23 -55 32
-29 27 -57 47 -63 44 -11 -7 19 -44 36 -44 6 0 22 -12 36 -27 24 -25 24 -26 3
-14 -13 6 -23 9 -23 5 0 -4 -8 0 -18 9 -19 17 -66 38 -97 43 -11 2 -2 -5 20
-16 22 -11 44 -25 50 -31 12 -13 -61 16 -95 38 l-25 16 19 -21 c29 -33 5 -26
-55 15 -36 24 -47 29 -34 14 l20 -23 -30 13 c-17 7 -39 20 -49 28 -11 9 -16
10 -12 4 12 -21 -49 -16 -94 7 -22 11 -43 20 -47 20 -4 -1 9 -10 30 -21z m388
-36 c13 -16 12 -17 -3 -4 -17 13 -22 21 -14 21 2 0 10 -8 17 -17z"/>
<path d="M1407 3629 c7 -7 15 -10 18 -7 3 3 -2 9 -12 12 -14 6 -15 5 -6 -5z"/>
<path d="M1150 3626 c0 -2 8 -10 18 -17 15 -13 16 -12 3 4 -13 16 -21 21 -21
13z"/>
<path d="M636 3605 c-9 -26 -7 -32 5 -12 6 10 9 21 6 23 -2 3 -7 -2 -11 -11z"/>
<path d="M1096 3602 c-3 -5 1 -9 9 -9 8 0 12 4 9 9 -3 4 -7 8 -9 8 -2 0 -6 -4
-9 -8z"/>
<path d="M1600 3606 c0 -2 7 -7 16 -10 8 -3 12 -2 9 4 -6 10 -25 14 -25 6z"/>
<path d="M1068 3553 c7 -3 16 -2 19 1 4 3 -2 6 -13 5 -11 0 -14 -3 -6 -6z"/>
<path d="M1104 3552 c5 -9 -7 -12 -41 -13 -35 0 -42 -3 -28 -8 19 -8 18 -9 -5
-14 -14 -3 11 -2 55 1 44 2 83 10 87 16 5 7 8 4 8 -6 0 -10 8 -18 18 -19 9 0
26 -2 37 -4 20 -4 20 -4 0 11 -10 8 -24 13 -30 11 -5 -2 -15 2 -20 10 -13 17
-91 31 -81 15z"/>
<path d="M1410 3533 c14 -13 30 -23 35 -23 6 0 3 4 -5 10 -8 5 -11 12 -8 16 4
4 19 -1 33 -10 14 -9 25 -13 25 -8 0 13 -48 32 -65 26 -8 -4 -21 -2 -28 2 -7
5 -1 -1 13 -13z"/>
<path d="M1285 3515 c33 -14 67 -25 75 -25 8 0 -12 12 -45 25 -33 14 -67 25
-75 25 -8 0 12 -12 45 -25z"/>
<path d="M1360 3529 c26 -18 70 -40 70 -35 0 6 -66 46 -76 46 -5 0 -2 -5 6
-11z"/>
<path d="M720 3521 c0 -5 7 -12 16 -15 14 -5 15 -4 4 9 -14 17 -20 19 -20 6z"/>
<path d="M1905 3504 c14 -15 25 -30 25 -35 0 -13 81 -130 94 -135 6 -2 13 -14
13 -26 1 -11 6 -25 12 -31 6 -6 8 -3 6 9 -2 11 -4 20 -5 22 -2 1 -3 7 -4 13 0
6 -8 16 -17 22 -9 7 -24 28 -34 47 -10 19 -21 37 -24 40 -9 7 -41 58 -41 66 0
3 7 1 15 -6 8 -7 15 -20 15 -28 0 -13 2 -14 13 -3 10 10 7 16 -13 31 -13 10
-27 17 -31 14 -4 -2 -12 3 -19 11 -7 8 -16 15 -21 15 -4 0 3 -12 16 -26z"/>
<path d="M898 3513 c7 -3 16 -2 19 1 4 3 -2 6 -13 5 -11 0 -14 -3 -6 -6z"/>
<path d="M2000 3511 c0 -5 5 -13 10 -16 6 -3 10 -2 10 4 0 5 -4 13 -10 16 -5
3 -10 2 -10 -4z"/>
<path d="M940 3480 l-65 -17 44 -8 44 -7 -83 -28 c-72 -24 -79 -28 -52 -32 19
-3 29 0 25 5 -3 6 -1 7 5 3 21 -13 1 -36 -27 -30 -23 5 -24 4 -9 -8 15 -13 11
-16 -34 -34 -55 -21 -65 -29 -43 -37 16 -7 103 37 122 61 7 9 13 25 13 35 0
15 3 16 20 7 15 -8 25 -8 38 0 14 9 13 10 -8 5 -23 -6 -24 -5 -5 6 28 18 45
36 45 48 0 6 9 11 21 11 11 0 17 5 14 10 -4 6 8 10 29 10 19 0 38 5 41 10 9
15 -60 10 -135 -10z m17 -16 c-3 -3 -12 -4 -19 -1 -8 3 -5 6 6 6 11 1 17 -2
13 -5z"/>
<path d="M1148 3488 c6 -6 18 -8 28 -6 14 3 12 5 -9 10 -19 3 -25 2 -19 -4z"/>
<path d="M1490 3496 c0 -2 7 -7 16 -10 8 -3 12 -2 9 4 -6 10 -25 14 -25 6z"/>
<path d="M1730 3489 c0 -9 10 -24 21 -35 22 -19 22 -19 11 1 -6 11 -16 27 -22
35 -8 13 -10 13 -10 -1z"/>
<path d="M1383 3475 c0 -8 4 -12 9 -9 4 3 8 9 8 15 0 5 -4 9 -8 9 -5 0 -9 -7
-9 -15z"/>
<path d="M1512 3442 c37 -27 77 -60 88 -75 12 -15 26 -27 32 -27 5 0 28 -14
49 -31 21 -17 39 -28 39 -24 0 4 14 -7 31 -25 17 -17 45 -38 63 -47 17 -9 25
-18 19 -20 -14 -5 -18 -25 -5 -21 14 4 53 -24 62 -45 8 -21 9 -21 9 -2 0 12
-24 42 -61 75 -34 30 -88 81 -120 113 -33 31 -61 57 -64 57 -2 0 3 -12 13 -27
11 -20 0 -13 -38 23 -63 59 -123 104 -138 104 -6 0 -11 5 -11 10 0 6 -8 10
-17 10 -10 0 13 -22 49 -48z"/>
<path d="M1269 3462 c36 -10 67 -23 69 -31 3 -10 -1 -12 -18 -8 -13 3 -19 2
-14 -2 5 -5 20 -12 34 -16 20 -5 22 -4 10 5 -12 9 -9 10 13 6 34 -8 126 -64
148 -90 10 -12 22 -17 32 -13 25 9 21 22 -10 37 -28 13 -35 16 -63 19 -11 1
-12 3 -2 9 17 11 -20 44 -80 70 -63 27 -62 19 1 -13 27 -13 53 -30 57 -36 4
-7 3 -10 -2 -7 -5 2 -27 13 -49 23 -49 22 -89 52 -75 57 5 1 -18 4 -53 5 l-62
1 64 -16z m266 -140 c-3 -3 -11 0 -18 7 -9 10 -8 11 6 5 10 -3 15 -9 12 -12z"/>
<path d="M1416 3472 c-4 -7 72 -67 124 -97 13 -7 13 -6 2 7 -7 9 -37 31 -67
49 -30 18 -52 36 -49 41 3 4 3 8 0 8 -3 0 -7 -4 -10 -8z"/>
<path d="M1530 3470 c0 -5 7 -10 15 -10 9 0 29 -13 45 -30 36 -37 53 -40 19
-4 -29 31 -79 59 -79 44z"/>
<path d="M1670 3443 c40 -47 69 -66 45 -30 -8 13 -29 34 -47 47 l-33 24 35
-41z"/>
<path d="M1802 3460 c-10 -16 -8 -22 8 -33 11 -8 34 -40 51 -73 16 -32 27 -48
23 -34 -3 14 -15 41 -25 61 -10 20 -15 40 -11 44 4 5 2 5 -4 2 -7 -4 -15 0
-18 9 -3 8 -11 12 -17 8 -7 -4 -9 -3 -6 4 8 12 25 11 46 -2 10 -6 12 -5 7 2
-16 26 -42 31 -54 12z"/>
<path d="M1620 3466 c0 -2 8 -10 18 -17 15 -13 16 -12 3 4 -13 16 -21 21 -21
13z"/>
<path d="M2015 3449 c2 -12 8 -26 13 -33 14 -17 23 -48 13 -41 -5 3 -12 1 -16
-5 -3 -5 -2 -10 3 -10 6 0 19 -14 30 -32 16 -24 18 -37 11 -56 -5 -14 -7 -27
-4 -30 3 -3 5 0 5 6 0 7 4 12 10 12 5 0 7 -6 4 -13 -3 -8 2 -20 11 -27 8 -7
15 -19 15 -26 0 -8 3 -14 8 -14 12 0 34 -59 27 -71 -4 -6 2 -24 14 -39 15 -21
18 -31 9 -36 -7 -4 -14 -2 -16 4 -5 15 -22 5 -22 -13 0 -8 9 -13 20 -12 11 1
20 6 20 12 0 5 4 3 9 -5 6 -8 8 -17 5 -21 -2 -4 3 -9 11 -12 10 -5 16 4 21 29
3 19 4 38 0 41 -3 4 -6 -6 -6 -20 0 -15 -4 -27 -9 -27 -4 0 -8 12 -9 28 0 15
-1 43 -2 62 -2 33 -3 33 -10 10 l-8 -25 -1 25 c-1 14 -8 36 -16 50 -8 14 -14
35 -15 48 0 12 -5 21 -10 20 -6 -2 -21 26 -33 62 -13 36 -33 84 -45 107 -12
23 -22 49 -22 58 0 8 -4 15 -9 15 -6 0 -8 -9 -6 -21z"/>
<path d="M1975 3450 c-3 -5 -3 -10 2 -10 4 0 16 -14 26 -31 24 -43 32 -30 10
15 -19 37 -27 43 -38 26z"/>
<path d="M1039 3437 c5 -5 19 -7 32 -5 20 3 19 5 -9 9 -20 3 -29 2 -23 -4z"/>
<path d="M1160 3411 c36 -10 76 -24 90 -31 22 -12 24 -11 13 2 -7 8 -10 17 -7
20 3 3 -1 6 -8 5 -33 -1 -59 4 -55 11 3 4 -18 8 -47 9 l-51 1 65 -17z"/>
<path d="M1005 3400 c3 -5 8 -10 11 -10 2 0 4 5 4 10 0 6 -5 10 -11 10 -5 0
-7 -4 -4 -10z"/>
<path d="M1913 3388 c19 -31 22 -42 7 -33 -16 10 -12 -12 5 -29 8 -8 12 -23 9
-33 -5 -14 -4 -15 4 -4 8 11 13 7 27 -18 9 -18 19 -30 22 -28 3 3 -4 23 -15
44 -11 21 -25 52 -32 70 -7 18 -19 38 -28 45 -14 11 -14 9 1 -14z"/>
<path d="M1370 3396 c0 -2 7 -7 16 -10 8 -3 12 -2 9 4 -6 10 -25 14 -25 6z"/>
<path d="M1160 3380 c8 -5 20 -10 25 -10 6 0 3 5 -5 10 -8 5 -19 10 -25 10 -5
0 -3 -5 5 -10z"/>
<path d="M1295 3379 c-4 -5 -5 -11 -4 -12 67 -35 138 -67 149 -67 8 0 -8 12
-35 26 -28 15 -57 32 -65 39 -27 22 -39 26 -45 14z"/>
<path d="M1804 3378 c-4 -7 -3 -8 4 -4 7 4 17 -3 24 -18 6 -14 15 -26 20 -26
5 0 0 14 -12 30 -24 34 -26 35 -36 18z"/>
<path d="M1972 3355 c6 -14 15 -25 20 -25 5 0 1 11 -8 25 -9 14 -18 25 -20 25
-2 0 2 -11 8 -25z"/>
<path d="M1033 3353 c15 -2 37 -2 50 0 12 2 0 4 -28 4 -27 0 -38 -2 -22 -4z"/>
<path d="M1640 3288 c81 -80 95 -89 123 -79 17 6 17 8 3 20 -14 11 -16 11 -16
-3 0 -10 -4 -15 -10 -11 -5 3 -7 12 -4 19 3 8 1 17 -5 21 -7 3 -8 0 -5 -9 9
-24 3 -20 -60 39 -89 85 -111 87 -26 3z"/>
<path d="M1130 3340 c14 -4 36 -8 50 -8 22 0 22 1 -5 8 -16 4 -39 8 -50 8 -16
0 -15 -2 5 -8z"/>
<path d="M1000 3330 c8 -5 22 -9 30 -9 10 0 8 3 -5 9 -27 12 -43 12 -25 0z"/>
<path d="M666 3311 c-4 -5 3 -7 14 -4 23 6 26 13 6 13 -8 0 -17 -4 -20 -9z"/>
<path d="M1255 3310 c27 -12 43 -12 25 0 -8 5 -22 9 -30 9 -10 0 -8 -3 5 -9z"/>
<path d="M1314 3312 c3 -6 1 -12 -4 -14 -6 -2 4 -11 22 -21 l33 -19 -25 22
c-17 15 -19 20 -7 16 24 -8 21 1 -4 15 -13 6 -19 7 -15 1z"/>
<path d="M1560 3306 c0 -7 7 -19 15 -26 10 -9 15 -9 15 -1 0 19 17 12 23 -10
3 -11 15 -23 26 -26 11 -3 27 -16 36 -29 8 -13 20 -24 26 -24 6 0 -17 29 -52
65 -61 63 -89 79 -89 51z"/>
<path d="M870 3300 c-9 -6 -10 -10 -3 -10 6 0 15 5 18 10 8 12 4 12 -15 0z"/>
<path d="M1074 3299 c-3 -5 9 -9 25 -9 17 0 31 2 31 4 0 8 -51 13 -56 5z"/>
<path d="M1464 3303 c4 -8 2 -13 -5 -13 -7 0 -5 -8 6 -20 10 -12 24 -19 31
-16 7 3 18 -2 24 -9 7 -8 16 -12 21 -9 5 3 9 0 9 -5 0 -6 8 -11 18 -11 16 1
15 2 -2 15 -10 8 -22 12 -26 10 -5 -3 -11 2 -14 11 -3 9 -13 14 -20 11 -13 -5
-45 21 -38 30 2 3 0 8 -4 11 -4 4 -4 1 0 -5z"/>
<path d="M2540 3306 c0 -2 7 -7 16 -10 8 -3 12 -2 9 4 -6 10 -25 14 -25 6z"/>
<path d="M1197 3289 c7 -7 15 -10 18 -7 3 3 -2 9 -12 12 -14 6 -15 5 -6 -5z"/>
<path d="M1521 3298 c2 -2 21 -19 42 -37 20 -19 37 -32 37 -28 0 9 -64 67 -74
67 -5 0 -7 -1 -5 -2z"/>
<path d="M699 3285 c-1 -3 -2 -8 -3 -12 -1 -5 -5 -14 -9 -20 -5 -8 -4 -13 2
-13 6 0 11 4 11 9 0 5 10 13 21 16 17 6 19 9 8 16 -16 10 -28 11 -30 4z"/>
<path d="M1373 3279 c9 -6 15 -14 12 -20 -4 -5 2 -6 11 -2 12 4 15 3 10 -5 -4
-7 -2 -12 3 -12 6 0 11 5 11 12 0 6 9 3 20 -7 11 -10 20 -15 20 -10 0 4 10 -5
22 -21 26 -36 44 -54 34 -36 -8 13 10 17 18 3 3 -5 17 -8 31 -8 20 0 23 2 14
13 -6 7 -17 10 -25 7 -8 -3 -17 2 -20 12 -5 13 -9 14 -16 3 -6 -10 -15 -5 -38
22 -16 19 -30 31 -30 25 0 -7 -3 -7 -8 0 -12 17 -47 41 -38 28 4 -7 3 -13 -3
-13 -5 0 -13 5 -16 10 -3 6 -12 10 -18 10 -7 0 -4 -5 6 -11z"/>
<path d="M1485 3280 c3 -5 8 -10 11 -10 2 0 4 5 4 10 0 6 -5 10 -11 10 -5 0
-7 -4 -4 -10z"/>
<path d="M2122 3265 c0 -16 2 -22 5 -12 2 9 2 23 0 30 -3 6 -5 -1 -5 -18z"/>
<path d="M765 3271 c3 -5 -4 -12 -15 -16 -11 -3 -19 -9 -19 -13 3 -21 -2 -32
-13 -26 -6 4 -8 3 -5 -3 7 -12 -56 -73 -75 -73 -6 0 -8 -3 -5 -6 4 -4 18 1 32
10 14 9 25 12 25 7 0 -5 -4 -12 -10 -16 -14 -9 -70 -122 -63 -129 4 -3 15 8
25 25 11 17 22 28 26 24 4 -4 1 -10 -5 -12 -7 -3 -13 -10 -13 -17 0 -7 -11
-22 -25 -34 -14 -12 -25 -25 -26 -29 0 -5 -2 -20 -4 -35 -4 -30 1 -33 25 -18
9 6 10 10 3 10 -19 0 8 44 54 87 21 21 26 27 10 13 -27 -22 -29 -23 -22 -5 4
11 8 31 9 45 1 18 6 24 19 22 9 -2 17 2 17 8 0 6 -4 9 -9 6 -5 -3 -11 1 -15 9
-3 8 0 17 6 21 7 4 8 3 4 -4 -4 -7 -2 -12 3 -12 6 0 11 5 11 11 0 5 4 8 9 5 5
-3 14 1 21 9 11 14 10 14 -14 6 -14 -6 -26 -8 -26 -6 0 12 39 43 46 37 5 -4 3
0 -3 8 -9 12 -7 21 9 40 11 14 21 23 22 21 0 -3 10 0 21 7 18 10 18 11 2 12
-10 0 -15 5 -12 10 3 6 -1 10 -10 10 -9 0 -14 -4 -10 -9z"/>
<path d="M1280 3270 c-9 -6 -10 -10 -3 -10 6 0 15 5 18 10 8 12 4 12 -15 0z"/>
<path d="M1860 3272 c0 -7 11 -24 24 -37 13 -13 22 -26 19 -29 -2 -2 1 -15 8
-28 7 -12 14 -26 15 -30 1 -5 2 -11 3 -15 1 -5 7 1 13 11 9 16 6 22 -13 37
-22 17 -20 23 6 20 6 -1 1 6 -9 14 -11 8 -22 15 -26 15 -3 0 -13 12 -22 28
-10 15 -18 21 -18 14z"/>
<path d="M2010 3242 c12 -23 26 -45 31 -48 11 -6 -28 66 -43 81 -5 6 0 -9 12
-33z"/>
<path d="M1028 3263 c18 -2 45 -2 60 0 15 2 0 4 -33 4 -33 0 -45 -2 -27 -4z"/>
<path d="M895 3252 c-10 -10 -5 -18 13 -18 10 0 19 5 19 11 0 12 -23 16 -32 7z"/>
<path d="M2169 3243 c-12 -16 -12 -17 1 -7 8 6 22 14 30 17 13 5 12 6 -1 6 -9
1 -23 -7 -30 -16z"/>
<path d="M1327 3229 c18 -11 38 -19 45 -16 7 2 -4 12 -26 21 -52 22 -58 20
-19 -5z"/>
<path d="M835 3223 c-18 -14 -18 -15 -2 -9 10 3 23 6 28 6 5 0 9 5 9 10 0 14
-12 12 -35 -7z"/>
<path d="M1202 3215 c12 -14 26 -25 32 -25 5 0 -1 11 -14 25 -13 14 -27 25
-32 25 -4 0 2 -11 14 -25z"/>
<path d="M1236 3222 c12 -9 24 -24 27 -32 4 -11 6 -11 6 3 1 17 5 16 47 -8 26
-15 44 -22 40 -16 -4 6 -3 11 3 11 5 0 13 -4 16 -10 3 -5 13 -10 22 -10 14 0
14 3 -2 20 -10 11 -23 19 -29 18 -6 -1 -31 8 -55 21 -23 12 -40 18 -37 12 10
-16 -11 -22 -24 -6 -7 8 -18 15 -24 15 -6 0 -1 -8 10 -18z m84 -17 c17 -9 30
-18 30 -21 0 -4 -59 23 -69 32 -10 9 13 3 39 -11z"/>
<path d="M1431 3209 c7 -13 6 -19 -1 -19 -6 0 -13 7 -16 15 -4 8 -10 15 -15
15 -5 0 -4 -9 3 -20 8 -13 24 -20 43 -20 21 0 26 3 16 9 -8 5 -9 10 -2 12 5 2
-1 9 -14 15 -23 11 -24 10 -14 -7z"/>
<path d="M1633 3223 c9 -14 -27 -28 -45 -17 -7 4 -6 -1 3 -11 14 -14 20 -15
39 -5 12 7 20 7 16 2 -7 -11 61 -38 71 -28 4 3 1 6 -5 6 -6 0 -28 15 -49 33
-20 17 -34 27 -30 20z"/>
<path d="M1994 3202 c1 -17 6 -35 11 -40 5 -4 5 -2 2 5 -4 6 -3 13 2 15 5 1 3
14 -4 28 l-14 25 3 -33z"/>
<path d="M1140 3201 c0 -15 15 -21 39 -14 17 4 19 8 9 14 -18 12 -48 11 -48 0z"/>
<path d="M1090 3193 c8 -3 24 -10 35 -15 20 -9 20 -9 1 6 -11 9 -27 16 -35 15
-14 0 -14 -1 -1 -6z"/>
<path d="M1725 3180 c4 -6 11 -7 17 -4 8 5 9 1 4 -12 -4 -10 -4 -15 0 -11 4 4
13 2 21 -5 22 -18 24 -3 3 20 -21 22 -57 31 -45 12z"/>
<path d="M2034 3160 c0 -13 4 -16 10 -10 7 7 7 13 0 20 -6 6 -10 3 -10 -10z"/>
<path d="M1180 3160 c-13 -8 -12 -10 3 -10 9 0 17 5 17 10 0 12 -1 12 -20 0z"/>
<path d="M2191 3154 c0 -11 3 -14 6 -6 3 7 2 16 -1 19 -3 4 -6 -2 -5 -13z"/>
<path d="M1628 3153 c6 -2 18 -2 25 0 6 3 1 5 -13 5 -14 0 -19 -2 -12 -5z"/>
<path d="M1960 3151 c0 -5 5 -13 10 -16 6 -3 10 -2 10 4 0 5 -4 13 -10 16 -5
3 -10 2 -10 -4z"/>
<path d="M1999 3133 c-13 -16 -12 -17 4 -4 9 7 17 15 17 17 0 8 -8 3 -21 -13z"/>
<path d="M1008 3133 c7 -3 16 -2 19 1 4 3 -2 6 -13 5 -11 0 -14 -3 -6 -6z"/>
<path d="M1508 3133 c6 -2 18 -2 25 0 6 3 1 5 -13 5 -14 0 -19 -2 -12 -5z"/>
<path d="M1836 3131 c8 -8 43 -8 38 0 -2 4 -13 7 -24 6 -10 -1 -17 -3 -14 -6z"/>
<path d="M2050 3130 c0 -5 5 -10 11 -10 5 0 7 5 4 10 -3 6 -8 10 -11 10 -2 0
-4 -4 -4 -10z"/>
<path d="M2120 3131 c0 -5 5 -13 10 -16 6 -3 10 -2 10 4 0 5 -4 13 -10 16 -5
3 -10 2 -10 -4z"/>
<path d="M965 3120 c-3 -5 -2 -10 4 -10 5 0 13 5 16 10 3 6 2 10 -4 10 -5 0
-13 -4 -16 -10z"/>
<path d="M1956 3115 c6 -15 4 -16 -15 -5 -13 6 -25 10 -27 7 -8 -8 43 -25 55
-18 9 6 8 11 -4 21 -13 11 -14 10 -9 -5z"/>
<path d="M1410 3110 c-9 -6 -10 -10 -3 -10 6 0 15 5 18 10 8 12 4 12 -15 0z"/>
<path d="M2011 3104 c0 -11 3 -14 6 -6 3 7 2 16 -1 19 -3 4 -6 -2 -5 -13z"/>
<path d="M2043 3095 c-3 -9 -3 -19 1 -22 3 -4 6 1 6 10 0 10 5 17 11 17 6 0 9
-7 6 -14 -4 -10 -1 -13 7 -10 14 6 30 -22 21 -37 -4 -5 1 -6 9 -3 20 8 20 10
-5 45 -22 32 -46 38 -56 14z"/>
<path d="M426 3078 c3 -4 9 -8 15 -8 5 0 9 4 9 8 0 5 -7 9 -15 9 -8 0 -12 -4
-9 -9z"/>
<path d="M965 3079 c-4 -6 -4 -13 -1 -16 3 -4 6 -1 6 6 0 7 5 9 12 5 7 -4 8
-3 4 4 -9 15 -13 15 -21 1z"/>
<path d="M2251 3054 c0 -11 3 -14 6 -6 3 7 2 16 -1 19 -3 4 -6 -2 -5 -13z"/>
<path d="M873 3038 c-13 -6 -23 -15 -23 -20 0 -7 31 8 59 29 10 7 -16 1 -36
-9z"/>
<path d="M2026 3033 c10 -7 23 -13 28 -12 6 0 5 3 -2 6 -6 2 -10 8 -8 12 3 4
-4 7 -15 7 -19 0 -19 -1 -3 -13z"/>
<path d="M1740 3030 c-9 -6 -10 -10 -3 -10 6 0 15 5 18 10 8 12 4 12 -15 0z"/>
<path d="M2274 3019 c-19 -22 -19 -22 4 -8 12 8 22 17 22 21 0 12 -6 9 -26
-13z"/>
<path d="M2234 3008 c-11 -36 -38 -65 -54 -60 -11 4 -10 1 3 -12 9 -10 15 -22
12 -27 -4 -5 -2 -9 3 -9 16 0 22 13 11 27 -9 10 -8 13 4 13 17 0 28 22 32 63
3 33 -1 35 -11 5z"/>
<path d="M1471 3004 c0 -11 3 -14 6 -6 3 7 2 16 -1 19 -3 4 -6 -2 -5 -13z"/>
<path d="M1610 3011 c0 -6 4 -13 10 -16 6 -3 7 1 4 9 -7 18 -14 21 -14 7z"/>
<path d="M2144 2985 c-10 -20 -9 -27 4 -37 12 -10 14 -10 8 0 -4 7 -1 12 8 12
19 0 20 10 4 33 -12 15 -14 15 -24 -8z"/>
<path d="M2311 2994 c0 -11 3 -14 6 -6 3 7 2 16 -1 19 -3 4 -6 -2 -5 -13z"/>
<path d="M1766 2975 c-11 -8 -15 -15 -9 -15 6 0 16 7 23 15 16 19 11 19 -14 0z"/>
<path d="M2040 2986 c0 -2 7 -9 15 -16 13 -11 14 -10 9 4 -5 14 -24 23 -24 12z"/>
<path d="M2108 2983 c7 -3 16 -2 19 1 4 3 -2 6 -13 5 -11 0 -14 -3 -6 -6z"/>
<path d="M2411 2974 c0 -11 3 -14 6 -6 3 7 2 16 -1 19 -3 4 -6 -2 -5 -13z"/>
<path d="M2440 2981 c0 -5 5 -13 10 -16 6 -3 10 -2 10 4 0 5 -4 13 -10 16 -5
3 -10 2 -10 -4z"/>
<path d="M1355 2970 c3 -5 8 -10 11 -10 2 0 4 5 4 10 0 6 -5 10 -11 10 -5 0
-7 -4 -4 -10z"/>
<path d="M1834 2966 c11 -9 24 -16 30 -16 12 0 7 5 -24 19 -24 11 -24 11 -6
-3z"/>
<path d="M1685 2959 c-4 -6 -5 -12 -2 -15 2 -3 7 2 10 11 7 17 1 20 -8 4z"/>
<path d="M677 2953 c-4 -3 -7 -11 -7 -17 0 -6 5 -5 12 2 6 6 9 14 7 17 -3 3
-9 2 -12 -2z"/>
<path d="M2232 2940 c-8 -14 -9 -21 0 -26 7 -4 3 -11 -10 -18 -19 -10 -20 -14
-9 -35 7 -14 18 -26 26 -29 9 -3 11 0 6 8 -6 9 -3 9 14 1 25 -14 28 -23 5 -14
-14 5 -15 3 -5 -15 6 -11 15 -22 20 -24 5 -1 11 -12 13 -23 1 -11 8 -24 13
-28 6 -6 5 -10 -3 -14 -10 -4 -9 -9 4 -24 13 -15 14 -19 3 -19 -9 0 -10 -3 -4
-8 6 -4 11 -32 11 -62 1 -30 -1 -49 -3 -42 -3 6 -9 12 -14 12 -6 0 -7 -4 -4
-10 3 -6 -2 -8 -12 -5 -10 3 -7 0 7 -7 29 -14 41 -29 34 -40 -3 -5 2 -11 10
-14 12 -5 13 -9 3 -19 -14 -15 -27 -1 -27 31 0 16 -6 22 -24 22 -23 0 -23 -1
-5 -19 10 -10 15 -26 12 -38 -5 -21 -4 -22 55 -21 11 0 9 114 -3 122 -7 5 -7
8 1 8 6 0 10 15 9 33 -2 20 -7 31 -15 29 -11 -2 -10 0 0 14 12 14 12 18 -5 30
-10 8 -14 14 -8 14 15 0 13 40 -2 41 -5 0 -1 4 10 9 17 7 16 9 -10 10 -16 1
-25 4 -19 6 6 3 9 16 6 29 -2 14 -9 22 -15 18 -6 -4 -8 3 -4 19 5 20 3 27 -13
31 -11 3 -20 1 -20 -3 0 -5 -8 -8 -18 -7 -18 1 -27 27 -10 27 4 0 8 -6 8 -12
0 -9 3 -9 9 1 5 8 16 11 25 8 22 -9 20 9 -1 22 -17 10 -17 10 -1 11 9 0 20 4
23 10 4 6 -1 7 -11 3 -13 -5 -15 -3 -9 7 6 9 4 11 -5 5 -7 -4 -15 -3 -19 3 -4
7 -11 4 -19 -8z"/>
<path d="M564 2930 c0 -13 4 -16 10 -10 7 7 7 13 0 20 -6 6 -10 3 -10 -10z"/>
<path d="M1780 2935 c-7 -8 -16 -13 -19 -10 -4 2 -8 -3 -8 -11 0 -11 6 -9 24
8 13 12 23 23 23 25 0 7 -8 2 -20 -12z"/>
<path d="M2756 2933 c-6 -14 -5 -15 5 -6 7 7 10 15 7 18 -3 3 -9 -2 -12 -12z"/>
<path d="M2137 2929 c7 -7 15 -10 18 -7 3 3 -2 9 -12 12 -14 6 -15 5 -6 -5z"/>
<path d="M719 2893 l-24 -28 28 24 c25 23 32 31 24 31 -2 0 -14 -12 -28 -27z"/>
<path d="M620 2893 c-28 -19 -49 -44 -50 -57 0 -5 9 3 20 17 12 14 27 24 34
21 8 -3 16 4 19 15 6 25 7 25 -23 4z"/>
<path d="M2925 2900 c3 -5 8 -10 11 -10 2 0 4 5 4 10 0 6 -5 10 -11 10 -5 0
-7 -4 -4 -10z"/>
<path d="M1860 2890 c-8 -5 -12 -11 -9 -14 2 -3 11 -1 19 4 8 5 12 11 9 14 -2
3 -11 1 -19 -4z"/>
<path d="M2177 2879 c4 -13 8 -18 11 -10 2 7 -1 18 -6 23 -8 8 -9 4 -5 -13z"/>
<path d="M1696 2873 c-6 -14 -5 -15 5 -6 7 7 10 15 7 18 -3 3 -9 -2 -12 -12z"/>
<path d="M614 2853 c3 -6 -4 -27 -14 -47 -10 -20 -14 -36 -9 -36 5 0 4 -9 -3
-20 -10 -16 -10 -24 0 -40 7 -12 8 -20 2 -20 -6 0 -8 -11 -6 -25 3 -13 0 -27
-5 -30 -5 -4 -9 -18 -9 -33 0 -21 2 -24 10 -12 7 10 10 11 10 2 0 -7 -6 -15
-14 -18 -8 -3 -12 -12 -9 -20 3 -8 9 -12 14 -9 4 3 2 -7 -6 -22 -8 -15 -11
-29 -6 -31 5 -2 6 -15 2 -30 -13 -44 -5 -51 37 -37 20 7 38 19 40 26 4 11 2
12 -9 2 -18 -17 -39 -16 -39 1 0 8 3 16 8 19 4 2 1 2 -5 1 -13 -3 -17 8 -7 19
9 9 14 128 4 122 -9 -6 12 70 23 81 11 12 8 26 -4 18 -8 -4 -9 4 -4 27 11 48
22 76 34 84 6 3 11 11 11 16 0 6 -4 7 -10 4 -5 -3 -10 -2 -10 4 0 5 6 11 13
14 6 2 0 4 -16 3 -16 -1 -25 -6 -23 -13z"/>
<path d="M736 2855 c-3 -9 0 -15 9 -15 9 0 12 6 9 15 -4 8 -7 15 -9 15 -2 0
-5 -7 -9 -15z"/>
<path d="M2625 2860 c-3 -5 -1 -10 4 -10 6 0 11 5 11 10 0 6 -2 10 -4 10 -3 0
-8 -4 -11 -10z"/>
<path d="M2476 2845 c-3 -8 -1 -15 4 -15 6 0 10 7 10 15 0 8 -2 15 -4 15 -2 0
-6 -7 -10 -15z"/>
<path d="M2183 2836 c4 -10 7 -20 7 -22 0 -2 7 -4 16 -4 14 0 14 -3 3 -16 -10
-13 -10 -17 2 -25 8 -5 24 -8 37 -6 26 5 27 3 6 -17 -14 -15 -14 -16 3 -16 14
0 15 -2 5 -9 -11 -6 -10 -10 3 -15 16 -6 15 -8 -5 -26 -13 -11 -18 -20 -12
-20 6 0 10 -16 9 -37 -2 -28 2 -39 14 -41 9 -2 19 4 23 13 5 13 2 14 -17 4
-19 -11 -20 -10 -10 3 10 11 10 17 1 26 -9 9 -9 12 1 12 11 0 11 3 1 15 -9 11
-9 15 -1 15 6 0 14 -7 17 -15 4 -8 11 -15 16 -15 7 0 7 4 0 13 -11 13 -27 83
-24 107 0 8 -22 33 -50 54 -32 24 -49 32 -45 22z m65 -61 c-3 -3 -13 -2 -22 1
-14 5 -15 9 -4 15 13 8 36 -6 26 -16z"/>
<path d="M1675 2830 c-3 -6 1 -7 9 -4 18 7 21 14 7 14 -6 0 -13 -4 -16 -10z"/>
<path d="M2590 2820 c0 -5 5 -10 11 -10 5 0 7 5 4 10 -3 6 -8 10 -11 10 -2 0
-4 -4 -4 -10z"/>
<path d="M665 2810 c-3 -5 -1 -10 4 -10 6 0 11 5 11 10 0 6 -2 10 -4 10 -3 0
-8 -4 -11 -10z"/>
<path d="M713 2795 c-22 -26 -18 -35 6 -12 11 10 13 9 8 -5 -8 -22 8 -24 17
-3 3 8 1 15 -5 15 -6 0 -9 7 -5 15 7 20 5 19 -21 -10z"/>
<path d="M180 2780 c0 -5 5 -10 11 -10 5 0 7 5 4 10 -3 6 -8 10 -11 10 -2 0
-4 -4 -4 -10z"/>
<path d="M2720 2785 c0 -5 5 -17 10 -25 5 -8 10 -10 10 -5 0 6 -5 17 -10 25
-5 8 -10 11 -10 5z"/>
<path d="M1325 2769 c-4 -6 -5 -12 -2 -15 2 -3 7 2 10 11 7 17 1 20 -8 4z"/>
<path d="M2575 2770 c3 -5 8 -10 11 -10 2 0 4 5 4 10 0 6 -5 10 -11 10 -5 0
-7 -4 -4 -10z"/>
<path d="M2481 2754 c0 -11 3 -14 6 -6 3 7 2 16 -1 19 -3 4 -6 -2 -5 -13z"/>
<path d="M2210 2740 c6 -11 8 -25 5 -30 -3 -6 1 -10 9 -10 9 0 16 -5 16 -12 0
-6 2 -9 5 -7 8 9 -18 68 -32 74 -11 3 -11 0 -3 -15z"/>
<path d="M695 2720 c-3 -6 1 -7 9 -4 18 7 21 14 7 14 -6 0 -13 -4 -16 -10z"/>
<path d="M731 2704 c0 -11 3 -14 6 -6 3 7 2 16 -1 19 -3 4 -6 -2 -5 -13z"/>
<path d="M662 2686 c4 -5 3 -15 -3 -23 -9 -10 -8 -13 4 -13 24 0 29 16 9 31
-9 7 -14 9 -10 5z"/>
<path d="M1765 2680 c-3 -6 1 -7 9 -4 18 7 21 14 7 14 -6 0 -13 -4 -16 -10z"/>
<path d="M2516 2665 c4 -8 11 -15 16 -15 6 0 5 6 -2 15 -7 8 -14 15 -16 15 -2
0 -1 -7 2 -15z"/>
<path d="M710 2641 c0 -7 -4 -10 -8 -7 -5 3 -9 -2 -9 -10 0 -13 2 -13 16 0 8
9 12 19 8 22 -4 4 -7 2 -7 -5z"/>
<path d="M1719 2633 c-13 -16 -12 -17 4 -4 9 7 17 15 17 17 0 8 -8 3 -21 -13z"/>
<path d="M1125 2620 c3 -5 8 -10 11 -10 2 0 4 5 4 10 0 6 -5 10 -11 10 -5 0
-7 -4 -4 -10z"/>
<path d="M1160 2626 c0 -2 7 -7 16 -10 8 -3 12 -2 9 4 -6 10 -25 14 -25 6z"/>
<path d="M650 2616 c0 -2 7 -9 15 -16 13 -11 14 -10 9 4 -5 14 -24 23 -24 12z"/>
<path d="M1860 2610 c-9 -6 -10 -10 -3 -10 6 0 15 5 18 10 8 12 4 12 -15 0z"/>
<path d="M2017 2599 c7 -7 15 -10 18 -7 3 3 -2 9 -12 12 -14 6 -15 5 -6 -5z"/>
<path d="M940 2590 c8 -5 20 -10 25 -10 6 0 3 5 -5 10 -8 5 -19 10 -25 10 -5
0 -3 -5 5 -10z"/>
<path d="M2451 2580 c14 -31 19 -36 19 -24 0 6 -7 19 -16 30 -14 18 -14 18 -3
-6z"/>
<path d="M1350 2576 c0 -9 5 -16 10 -16 6 0 10 4 10 9 0 6 -4 13 -10 16 -5 3
-10 -1 -10 -9z"/>
<path d="M1927 2578 c2 -5 14 -6 25 -2 12 3 18 2 15 -3 -4 -5 1 -10 9 -10 10
0 12 3 4 11 -13 13 -61 16 -53 4z"/>
<path d="M2741 2580 c0 -8 6 -24 14 -34 13 -17 15 -18 15 -3 0 9 -4 17 -9 17
-5 0 -12 8 -14 18 -3 12 -5 13 -6 2z"/>
<path d="M660 2570 c0 -5 5 -10 11 -10 6 0 9 -9 6 -20 -3 -11 -2 -20 3 -20 17
0 17 37 -1 49 -12 7 -19 7 -19 1z"/>
<path d="M878 2559 c-31 -23 -36 -38 -13 -35 9 1 15 6 15 10 -1 4 9 16 22 26
31 26 10 25 -24 -1z"/>
<path d="M970 2566 c-19 -6 -36 -17 -37 -23 -2 -7 0 -13 3 -13 5 0 46 21 73
38 15 8 -10 8 -39 -2z"/>
<path d="M1900 2571 c0 -4 10 -13 23 -19 13 -6 16 -11 7 -11 -9 -1 -6 -7 10
-18 16 -11 25 -13 28 -5 2 6 11 8 20 5 28 -10 10 4 -40 30 -27 14 -48 22 -48
18z m67 -37 c-3 -3 -12 -4 -19 -1 -8 3 -5 6 6 6 11 1 17 -2 13 -5z"/>
<path d="M2053 2573 c9 -2 17 -9 17 -14 0 -12 -37 -12 -42 1 -2 6 -8 6 -18 0
-13 -8 -12 -10 3 -10 9 0 17 -4 17 -9 0 -5 9 -7 20 -4 11 3 20 1 20 -4 0 -5
12 -15 26 -22 42 -19 22 -23 -31 -6 -49 14 -72 12 -45 -5 8 -5 18 -6 24 -3 5
4 6 1 1 -7 -6 -9 3 -11 39 -9 25 2 46 1 46 -3 0 -5 14 -8 31 -8 17 0 28 4 24
10 -3 6 -1 10 4 10 6 0 11 -4 11 -10 0 -5 5 -10 10 -10 15 0 12 12 -10 40 -11
14 -18 18 -14 8 4 -11 0 -16 -13 -15 -10 1 -17 -4 -15 -11 1 -8 -18 1 -43 19
-33 23 -42 36 -35 44 11 13 -8 26 -33 24 -7 -1 -4 -3 6 -6z"/>
<path d="M2131 2539 c0 -19 3 -28 6 -21 2 6 9 9 15 6 5 -4 4 4 -2 17 -19 36
-20 35 -19 -2z"/>
<path d="M1090 2550 c0 -5 7 -7 15 -4 8 4 15 8 15 10 0 2 -7 4 -15 4 -8 0 -15
-4 -15 -10z"/>
<path d="M1038 2543 c6 -2 18 -2 25 0 6 3 1 5 -13 5 -14 0 -19 -2 -12 -5z"/>
<path d="M1713 2535 c0 -8 4 -12 9 -9 5 3 6 10 3 15 -9 13 -12 11 -12 -6z"/>
<path d="M1868 2543 c7 -3 16 -2 19 1 4 3 -2 6 -13 5 -11 0 -14 -3 -6 -6z"/>
<path d="M2800 2544 c0 -6 7 -19 15 -30 8 -10 14 -14 14 -9 0 6 -6 19 -14 29
-8 11 -15 15 -15 10z"/>
<path d="M635 2530 c-3 -5 1 -10 10 -10 9 0 13 5 10 10 -3 6 -8 10 -10 10 -2
0 -7 -4 -10 -10z"/>
<path d="M819 2524 c-10 -12 -9 -13 7 -7 17 6 17 5 5 -11 -8 -9 -19 -15 -26
-12 -6 2 -12 -2 -12 -9 0 -10 5 -11 18 -4 10 5 24 6 32 3 24 -9 29 14 8 35
-17 17 -21 18 -32 5z m36 -24 c3 -5 1 -10 -4 -10 -6 0 -11 5 -11 10 0 6 2 10
4 10 3 0 8 -4 11 -10z"/>
<path d="M1190 2530 c13 -9 13 -10 0 -11 -8 -1 -22 -2 -30 -3 -8 -1 -24 2 -35
7 -19 8 -19 7 -2 -6 23 -19 22 -27 -5 -27 -27 0 -16 -12 14 -15 13 -2 32 -6
43 -10 14 -4 12 -2 -5 9 -27 16 -27 17 8 21 15 2 22 -3 22 -15 0 -13 19 -21
88 -35 48 -10 93 -24 100 -33 6 -9 12 -12 12 -6 0 10 101 16 137 9 16 -4 20
-10 15 -27 -4 -16 -2 -19 8 -13 10 6 12 4 7 -9 -4 -10 -7 -27 -7 -38 0 -17 -2
-18 -15 -4 -40 39 -91 26 -131 -34 -15 -22 -28 -40 -29 -40 -2 0 2 16 8 35 6
19 13 35 17 35 18 0 -6 48 -36 74 -38 31 -68 40 -193 55 -46 6 -90 16 -98 22
-8 7 -33 10 -67 6 -34 -3 -58 -1 -66 6 -9 8 -11 8 -7 1 5 -8 -36 -17 -128 -29
-79 -10 -142 -23 -152 -32 -10 -8 -13 -12 -7 -9 17 8 215 38 220 33 2 -2 -21
-9 -51 -15 -122 -25 -146 -53 -147 -174 0 -67 39 -195 71 -232 48 -56 209 -80
372 -56 98 14 143 31 182 68 35 33 80 119 71 134 -4 6 -3 8 3 5 6 -4 15 11 22
33 7 23 19 41 31 45 11 4 20 11 20 17 0 6 -6 5 -16 -3 -14 -12 -14 -10 -2 21
16 39 54 54 89 36 15 -7 26 -28 36 -65 7 -30 18 -60 24 -67 6 -8 9 -19 7 -25
-2 -6 -18 10 -36 37 -48 73 -39 45 19 -59 71 -127 130 -185 198 -194 55 -8
267 -5 288 3 14 6 -23 9 -110 9 -73 0 -145 3 -161 7 -54 13 -118 62 -152 115
-39 61 -23 61 21 0 17 -23 45 -51 63 -63 84 -57 378 -60 481 -5 27 15 64 94
82 174 22 102 31 64 25 -113 -4 -158 2 -212 20 -158 9 30 9 92 0 107 -5 7 -5
15 -2 18 3 3 0 13 -7 21 -10 13 -9 15 6 9 20 -7 22 3 5 22 -11 11 -10 13 5 8
16 -6 16 -5 1 18 -9 14 -12 25 -7 25 5 0 10 7 10 15 0 8 -3 15 -7 15 -18 0 -8
66 15 99 21 31 24 46 22 100 l-2 63 -45 3 c-174 10 -258 19 -280 29 -14 7 -37
9 -50 6 -43 -12 -190 -22 -190 -13 0 4 16 9 37 10 20 1 41 7 47 13 5 5 15 10
20 10 6 0 4 -5 -4 -11 -12 -9 -12 -10 3 -5 10 3 23 6 29 6 12 0 -13 25 -32 32
-8 2 -23 -4 -34 -14 -11 -10 -25 -17 -31 -15 -5 2 -21 0 -35 -5 -14 -6 -63
-18 -110 -28 -47 -10 -97 -23 -112 -29 -16 -6 -28 -7 -28 -3 0 4 -30 7 -67 7
-112 0 -176 13 -206 41 -19 17 -27 20 -27 10 0 -8 8 -17 18 -19 15 -4 16 -5 0
-6 -15 -1 -68 42 -68 54 0 3 10 5 22 5 27 0 21 5 -17 14 -22 5 -26 4 -15 -4z
m-113 -66 c-3 -3 -12 -4 -19 -1 -8 3 -5 6 6 6 11 1 17 -2 13 -5z m683 -14
c-34 -11 -60 -11 -35 0 11 5 29 8 40 8 16 0 15 -2 -5 -8z m335 -12 c94 -13
122 -22 153 -50 29 -28 30 -96 2 -197 -39 -141 -63 -164 -193 -182 -83 -12
-147 -9 -292 16 -11 2 -26 4 -33 4 -7 1 -16 9 -20 19 -4 9 -20 36 -35 58 -35
52 -77 174 -77 224 0 47 29 73 106 96 108 31 225 35 389 12z m-844 -14 c36 -9
80 -24 98 -35 28 -17 31 -24 31 -67 0 -92 -54 -229 -109 -275 -16 -13 -28 -26
-26 -28 2 -2 -6 -5 -18 -6 -12 0 -67 -9 -122 -18 -68 -11 -122 -14 -170 -10
-69 7 -165 39 -165 56 0 5 -7 9 -16 9 -8 0 -13 4 -10 9 3 5 -3 34 -13 64 -11
31 -23 78 -26 104 -4 26 -9 57 -11 68 -5 20 -5 20 12 0 17 -20 17 -20 9 0 -17
47 -16 55 9 79 70 64 350 90 527 50z m444 16 c-3 -5 -12 -10 -18 -10 -7 0 -6
4 3 10 19 12 23 12 15 0z m-55 -17 c0 -4 -11 -16 -26 -28 -27 -21 -35 -67 -22
-116 6 -19 4 -26 -7 -26 -10 0 -13 7 -10 18 3 9 2 20 -4 23 -5 4 -5 22 1 48 6
24 11 52 13 63 1 11 3 20 4 20 17 5 51 3 51 -2z m671 -27 c1 -17 1 -34 0 -38
0 -5 4 -8 10 -8 6 0 9 7 5 15 -3 8 -1 15 4 15 15 0 12 -26 -3 -39 -10 -8 -17
-7 -25 1 -9 9 -12 9 -12 1 0 -6 4 -13 8 -15 5 -1 3 -16 -4 -33 -13 -29 -13
-29 -14 26 0 43 -5 60 -20 74 -22 20 -16 29 24 31 23 2 26 -2 27 -30z m23 9
c-4 -8 -8 -15 -10 -15 -2 0 -4 7 -4 15 0 8 4 15 10 15 5 0 7 -7 4 -15z m-6
-113 c-25 -31 -36 -26 -18 7 6 12 18 21 26 21 12 0 10 -6 -8 -28z m-734 -68
c3 -8 2 -12 -4 -9 -6 3 -10 10 -10 16 0 14 7 11 14 -7z"/>
<path d="M1649 2363 c-13 -16 -12 -17 4 -4 9 7 17 15 17 17 0 8 -8 3 -21 -13z"/>
<path d="M1853 2350 c-48 -10 -89 -34 -97 -57 -14 -34 1 -27 42 22 14 16 37
11 27 -6 -4 -5 -2 -9 4 -9 5 0 11 -10 13 -22 2 -19 10 -24 46 -26 43 -3 77 12
66 29 -3 5 0 9 6 9 6 0 10 10 8 22 -4 28 15 29 57 6 18 -11 24 -17 14 -18 -19
0 -34 -40 -15 -40 7 0 17 5 23 11 6 6 17 8 23 4 9 -6 9 -10 -1 -16 -10 -6 -8
-9 9 -9 13 0 21 4 18 9 -3 5 5 12 19 15 27 7 34 26 10 26 -8 0 -15 5 -15 12 0
6 -3 8 -6 5 -4 -4 -1 -14 6 -22 11 -14 10 -14 -12 -6 -14 5 -29 7 -32 4 -3 -4
-6 0 -6 8 0 44 -110 70 -207 49z m95 -22 c17 -17 -22 -62 -54 -61 -44 2 -46 3
-41 16 3 8 1 20 -4 28 -6 10 -2 16 14 21 36 10 72 9 85 -4z"/>
<path d="M1930 2321 c0 -7 -5 -9 -12 -5 -7 5 -8 3 -3 -5 5 -9 10 -10 18 -2 6
6 8 14 4 18 -4 3 -7 1 -7 -6z"/>
<path d="M1880 2300 c0 -5 5 -10 10 -10 6 0 10 5 10 10 0 6 -4 10 -10 10 -5 0
-10 -4 -10 -10z"/>
<path d="M2160 2336 c0 -2 7 -7 16 -10 8 -3 12 -2 9 4 -6 10 -25 14 -25 6z"/>
<path d="M2251 2324 c0 -11 3 -14 6 -6 3 7 2 16 -1 19 -3 4 -6 -2 -5 -13z"/>
<path d="M1630 2266 c0 -10 28 -13 41 -5 10 6 7 9 -13 9 -16 0 -28 -2 -28 -4z"/>
<path d="M1690 2251 c0 -12 5 -21 11 -21 5 0 8 4 5 9 -3 5 0 11 8 14 7 3 13 0
13 -6 0 -7 1 -50 3 -97 2 -61 4 -76 10 -55 6 25 8 27 14 13 5 -10 14 -18 21
-18 7 0 16 -6 18 -12 4 -10 6 -10 6 -1 1 6 -7 18 -18 25 -10 7 -19 16 -19 21
0 4 -4 28 -8 54 -4 26 -7 57 -8 68 -1 29 -56 35 -56 6z"/>
<path d="M1955 2240 c-8 -13 5 -13 25 0 13 8 13 10 -2 10 -9 0 -20 -4 -23 -10z"/>
<path d="M2150 2227 c0 -16 4 -26 10 -22 6 3 10 1 10 -6 0 -7 6 -4 14 6 8 11
12 24 9 28 -3 5 -9 4 -13 -3 -6 -9 -11 -7 -19 6 -9 17 -10 16 -11 -9z"/>
<path d="M1830 2231 c0 -5 5 -13 10 -16 6 -3 10 -2 10 4 0 5 -4 13 -10 16 -5
3 -10 2 -10 -4z"/>
<path d="M1770 2220 c0 -5 7 -10 16 -10 8 0 12 5 9 10 -3 6 -10 10 -16 10 -5
0 -9 -4 -9 -10z"/>
<path d="M1933 2213 c9 -2 25 -2 35 0 9 3 1 5 -18 5 -19 0 -27 -2 -17 -5z"/>
<path d="M2106 2198 c3 -4 9 -8 15 -8 5 0 9 4 9 8 0 5 -7 9 -15 9 -8 0 -12 -4
-9 -9z"/>
<path d="M1850 2189 c0 -12 41 -32 70 -35 14 -1 41 -5 60 -8 38 -7 41 -9 -45
29 -38 17 -85 25 -85 14z"/>
<path d="M1665 2180 c3 -5 8 -10 11 -10 2 0 4 5 4 10 0 6 -5 10 -11 10 -5 0
-7 -4 -4 -10z"/>
<path d="M2018 2183 c7 -3 16 -2 19 1 4 3 -2 6 -13 5 -11 0 -14 -3 -6 -6z"/>
<path d="M2083 2160 c2 -23 7 -30 22 -29 11 0 14 3 8 6 -7 2 -13 16 -13 29 0
13 -4 24 -10 24 -5 0 -8 -13 -7 -30z"/>
<path d="M1930 2135 c0 -20 17 -28 23 -11 3 8 -1 17 -9 20 -8 3 -14 -1 -14 -9z"/>
<path d="M2110 2105 c9 -10 9 -15 1 -15 -6 0 -11 -4 -11 -10 0 -5 6 -10 14
-10 8 0 17 -6 19 -12 3 -8 6 -5 6 5 1 24 -17 57 -31 57 -7 0 -6 -5 2 -15z"/>
<path d="M1960 2106 c0 -2 8 -10 18 -17 15 -13 16 -12 3 4 -13 16 -21 21 -21
13z"/>
<path d="M2008 2103 c7 -3 16 -2 19 1 4 3 -2 6 -13 5 -11 0 -14 -3 -6 -6z"/>
<path d="M2016 2061 c-3 -5 1 -12 10 -15 22 -8 25 -4 9 11 -8 7 -16 9 -19 4z"/>
<path d="M1002 2330 c-54 -8 -82 -23 -82 -45 0 -8 -5 -15 -12 -17 -13 -5 -20
-38 -8 -38 4 0 10 9 13 20 3 11 10 19 15 18 5 -2 24 9 41 25 37 32 41 33 41 7
0 -11 5 -20 11 -20 6 0 9 6 6 14 -7 18 55 29 89 16 29 -11 31 -34 4 -57 -26
-22 -61 -24 -84 -4 -18 15 -18 15 -7 -6 9 -18 20 -23 50 -23 46 0 74 27 73 71
0 22 3 28 11 21 7 -5 21 -12 32 -16 18 -7 19 -6 4 9 -30 31 -97 39 -197 25z"/>
<path d="M874 2277 c-21 -18 -24 -26 -14 -32 8 -5 11 -4 6 3 -3 5 6 20 21 31
16 11 25 21 21 21 -4 0 -19 -11 -34 -23z"/>
<path d="M1085 2270 c-3 -5 -1 -10 4 -10 6 0 11 5 11 10 0 6 -2 10 -4 10 -3 0
-8 -4 -11 -10z"/>
<path d="M1206 2264 c-3 -9 -6 -37 -6 -63 0 -35 -5 -53 -20 -66 -11 -10 -20
-28 -20 -39 1 -19 2 -19 15 4 7 14 19 25 27 25 8 0 14 14 15 40 1 22 2 46 2
53 1 6 10 12 22 12 16 0 19 4 13 23 l-6 22 23 -21 c26 -22 66 -27 62 -6 -2 6
5 12 14 12 9 0 14 3 10 6 -3 3 -37 8 -75 10 -57 3 -71 1 -76 -12z m29 -14 c3
-5 -1 -10 -10 -10 -9 0 -13 5 -10 10 3 6 8 10 10 10 2 0 7 -4 10 -10z"/>
<path d="M960 2236 c14 -9 32 -15 40 -15 13 0 13 1 0 8 -8 5 -26 12 -40 15
l-25 7 25 -15z"/>
<path d="M1170 2230 c0 -5 5 -10 10 -10 6 0 10 5 10 10 0 6 -4 10 -10 10 -5 0
-10 -4 -10 -10z"/>
<path d="M956 2204 c-9 -24 -8 -25 13 -12 11 7 17 16 15 20 -8 13 -21 9 -28
-8z"/>
<path d="M1262 2188 c-7 -7 -12 -21 -11 -32 0 -19 1 -19 10 3 7 18 15 22 33
19 17 -4 23 -1 19 9 -6 16 -35 17 -51 1z"/>
<path d="M906 2159 c-14 -11 -26 -26 -26 -32 0 -6 -15 -27 -32 -46 -18 -20
-22 -27 -9 -16 26 22 106 115 98 115 -2 0 -16 -9 -31 -21z"/>
<path d="M930 2139 c0 -5 5 -7 10 -4 6 3 10 8 10 11 0 2 -4 4 -10 4 -5 0 -10
-5 -10 -11z"/>
<path d="M1095 2140 c-8 -13 5 -13 25 0 13 8 13 10 -2 10 -9 0 -20 -4 -23 -10z"/>
<path d="M1041 2129 c-19 -4 -40 -5 -47 -2 -6 2 -15 0 -19 -6 -3 -6 -17 -11
-30 -11 -13 0 -26 -4 -29 -8 -5 -9 154 15 163 24 9 9 -6 10 -38 3z"/>
<path d="M1270 2130 c0 -5 5 -10 11 -10 5 0 7 5 4 10 -3 6 -8 10 -11 10 -2 0
-4 -4 -4 -10z"/>
<path d="M795 2090 c-3 -6 1 -7 9 -4 18 7 21 14 7 14 -6 0 -13 -4 -16 -10z"/>
<path d="M882 2045 c-7 -8 -9 -15 -4 -15 5 0 15 7 22 15 16 19 -1 19 -18 0z"/>
<path d="M1140 2035 c0 -8 2 -15 4 -15 2 0 6 7 10 15 3 8 1 15 -4 15 -6 0 -10
-7 -10 -15z"/>
<path d="M1004 2513 c-12 -12 -13 -18 -5 -21 7 -2 21 5 32 17 15 16 16 21 5
21 -8 0 -22 -8 -32 -17z"/>
<path d="M1760 2520 c-13 -9 -13 -10 0 -9 8 0 24 4 35 9 20 9 20 9 0 9 -11 0
-27 -4 -35 -9z"/>
<path d="M1830 2520 c-13 -8 -13 -10 2 -10 9 0 20 5 23 10 8 13 -5 13 -25 0z"/>
<path d="M661 2489 c-13 -10 -18 -19 -11 -19 12 0 45 29 39 35 -2 2 -15 -5
-28 -16z"/>
<path d="M1075 2500 c3 -5 8 -10 11 -10 2 0 4 5 4 10 0 6 -5 10 -11 10 -5 0
-7 -4 -4 -10z"/>
<path d="M1950 2490 c0 -5 5 -10 11 -10 5 0 7 5 4 10 -3 6 -8 10 -11 10 -2 0
-4 -4 -4 -10z"/>
<path d="M1470 2470 c0 -5 5 -10 11 -10 5 0 7 5 4 10 -3 6 -8 10 -11 10 -2 0
-4 -4 -4 -10z"/>
<path d="M2431 2450 c14 -31 19 -36 19 -24 0 6 -7 19 -16 30 -14 18 -14 18 -3
-6z"/>
<path d="M2465 2394 c0 -13 3 -24 8 -24 4 0 7 9 7 19 0 11 -3 22 -7 24 -5 3
-8 -6 -8 -19z"/>
<path d="M594 2354 c0 -47 3 -54 21 -55 14 -1 11 -4 -10 -9 -16 -4 -24 -8 -17
-9 6 0 12 -7 12 -13 0 -7 6 -25 13 -39 16 -30 19 -178 4 -196 -6 -9 -6 -13 3
-13 7 0 10 -6 7 -14 -3 -8 -1 -17 6 -20 9 -3 8 -7 -3 -15 -10 -7 -19 -6 -29 2
-12 10 -12 9 0 -10 9 -16 16 -19 21 -10 5 8 8 7 8 -5 0 -10 -4 -18 -10 -18
-15 0 -12 -28 8 -57 17 -27 17 -22 22 177 5 225 4 243 -17 214 -11 -15 -13
-16 -13 -2 0 9 5 20 12 24 8 5 6 11 -7 20 -13 9 -16 21 -12 41 3 15 0 35 -7
44 -10 14 -12 8 -12 -37z"/>
<path d="M569 2363 c-3 -24 -1 -43 3 -43 13 0 16 16 9 50 l-8 35 -4 -42z"/>
<path d="M2672 2380 c0 -14 2 -19 5 -12 2 6 2 18 0 25 -3 6 -5 1 -5 -13z"/>
<path d="M2807 2383 c-10 -9 -9 -23 1 -23 5 0 9 7 9 15 0 17 -1 18 -10 8z"/>
<path d="M2900 2363 c0 -6 8 -17 18 -24 16 -13 16 -13 2 6 -8 11 -16 22 -17
24 -2 2 -3 0 -3 -6z"/>
<path d="M1535 2350 c3 -5 8 -10 11 -10 2 0 4 5 4 10 0 6 -5 10 -11 10 -5 0
-7 -4 -4 -10z"/>
<path d="M2470 2340 c0 -5 5 -10 11 -10 5 0 7 5 4 10 -3 6 -8 10 -11 10 -2 0
-4 -4 -4 -10z"/>
<path d="M2506 2305 c4 -8 8 -15 10 -15 2 0 4 7 4 15 0 8 -4 15 -10 15 -5 0
-7 -7 -4 -15z"/>
<path d="M2770 2310 c0 -5 5 -10 11 -10 5 0 7 5 4 10 -3 6 -8 10 -11 10 -2 0
-4 -4 -4 -10z"/>
<path d="M2840 2302 c0 -4 14 -9 32 -10 37 -3 35 2 -4 12 -16 3 -28 3 -28 -2z"/>
<path d="M2590 2286 c0 -2 7 -7 16 -10 8 -3 12 -2 9 4 -6 10 -25 14 -25 6z"/>
<path d="M2720 2270 c0 -5 5 -10 11 -10 5 0 7 5 4 10 -3 6 -8 10 -11 10 -2 0
-4 -4 -4 -10z"/>
<path d="M2781 2264 c0 -11 3 -14 6 -6 3 7 2 16 -1 19 -3 4 -6 -2 -5 -13z"/>
<path d="M2368 2258 c-41 -14 -34 -27 10 -21 46 6 72 -14 71 -55 0 -25 -1 -26
-9 -6 -13 32 -28 37 -61 24 -21 -9 -27 -16 -20 -23 6 -6 11 -19 11 -28 0 -9 7
-22 15 -29 12 -10 13 -7 5 21 -10 35 0 57 19 45 15 -10 14 -36 -4 -69 -8 -16
-21 -66 -29 -112 -13 -76 -32 -125 -47 -125 -3 0 -6 -6 -6 -12 0 -7 -3 -30 -7
-50 -4 -24 -3 -39 5 -44 7 -4 9 -3 5 4 -8 13 22 92 35 92 12 0 12 0 -6 -50 -9
-25 -13 -57 -9 -75 5 -27 0 -37 -26 -63 -17 -18 -38 -32 -46 -32 -8 0 -14 -9
-14 -20 0 -11 4 -20 9 -20 6 0 -1 -25 -14 -55 -14 -30 -26 -58 -27 -63 -6 -25
-40 -92 -47 -92 -5 0 -11 -10 -15 -23 -3 -12 -13 -31 -23 -42 -10 -11 -17 -28
-15 -38 2 -10 -3 -29 -12 -42 -9 -13 -16 -33 -16 -44 0 -11 -11 -49 -23 -84
-39 -106 -225 -334 -357 -437 -24 -19 -51 -43 -59 -52 -9 -10 -19 -18 -23 -18
-5 0 -16 -8 -26 -18 -10 -9 -30 -26 -46 -37 -15 -11 -37 -28 -48 -38 l-21 -17
24 -1 c13 0 18 -3 11 -6 -7 -3 -34 -25 -60 -49 -25 -24 -53 -44 -62 -44 -9 0
1 14 24 35 22 19 36 35 31 35 -4 0 -27 -17 -50 -39 -25 -23 -56 -41 -80 -45
-28 -6 -66 -32 -145 -99 -60 -51 -109 -94 -109 -97 -1 -3 8 -6 19 -7 12 -1 20
4 20 13 0 12 5 12 33 -2 l32 -17 -19 21 c-16 19 -17 22 -3 28 9 3 13 12 10 20
-3 8 -1 14 3 14 5 0 29 -57 53 -128 48 -139 61 -163 61 -114 0 18 -4 32 -10
32 -5 0 -10 10 -10 22 0 11 -12 46 -26 77 -43 90 -42 109 8 158 48 46 141 85
186 76 15 -3 33 -6 40 -7 20 -4 82 -68 75 -79 -3 -6 -1 -7 5 -3 6 3 15 -2 21
-12 5 -10 28 -40 50 -67 23 -27 41 -55 41 -62 0 -7 4 -13 9 -13 19 0 19 -29 0
-49 -11 -12 -17 -21 -15 -21 3 0 -6 -16 -19 -37 -25 -35 -27 -52 -6 -38 6 3
18 21 27 38 9 18 24 42 34 54 l17 22 42 -60 c25 -35 49 -59 60 -59 15 0 14 5
-11 32 -16 18 -73 91 -128 161 -158 205 -174 221 -210 214 -17 -4 -30 -2 -30
3 0 6 7 10 16 10 21 0 58 32 214 184 69 66 139 133 155 148 52 47 265 327 265
348 0 6 7 35 16 63 8 29 20 70 26 92 6 22 28 67 48 100 59 96 91 169 103 234
6 34 17 61 23 61 7 0 24 14 39 32 21 25 25 38 20 64 -6 34 44 243 71 297 23
45 34 121 23 161 -12 45 -51 68 -91 54z m72 -173 c-6 -19 -16 -35 -21 -35 -5
0 -5 9 1 23 5 12 12 36 16 52 5 21 8 25 11 12 3 -9 -1 -33 -7 -52z m-40 -105
c-5 -22 -8 -27 -9 -13 -1 21 9 56 14 51 2 -2 0 -19 -5 -38z m-20 -85 c0 -8 -4
-15 -10 -15 -5 0 -7 7 -4 15 4 8 8 15 10 15 2 0 4 -7 4 -15z m-806 -1360 c-10
-8 -26 -14 -34 -15 -8 0 -2 9 15 20 33 22 49 18 19 -5z"/>
<path d="M2665 2240 c3 -5 8 -10 11 -10 2 0 4 5 4 10 0 6 -5 10 -11 10 -5 0
-7 -4 -4 -10z"/>
<path d="M497 2229 c-54 -32 -57 -119 -7 -219 15 -30 31 -71 35 -90 10 -48 46
-152 57 -167 5 -7 5 -14 -2 -18 -5 -3 -10 -21 -10 -40 0 -41 47 -85 90 -85 26
0 29 -4 39 -50 15 -70 59 -152 127 -239 50 -65 58 -80 61 -125 4 -64 27 -137
61 -196 57 -97 198 -308 249 -372 29 -37 53 -69 53 -73 0 -9 102 -146 106
-142 2 2 -2 21 -10 43 -8 21 -15 35 -15 30 -1 -5 -8 -3 -16 4 -8 7 -12 16 -9
21 3 5 0 9 -6 9 -7 0 -10 7 -6 15 3 8 1 14 -4 12 -10 -2 -34 32 -46 66 -3 9
-13 17 -21 17 -8 0 -12 4 -8 9 3 5 -3 16 -12 23 -22 16 -51 55 -147 195 -113
168 -156 263 -156 353 0 20 -5 41 -12 48 -7 7 -9 12 -4 12 4 0 -3 10 -16 23
-29 27 -78 102 -78 118 0 7 -3 9 -6 6 -8 -8 -52 72 -58 105 -3 13 -5 23 -6 23
-1 0 -3 13 -4 28 -2 32 -17 44 -64 53 -46 9 -76 70 -50 101 8 10 8 17 1 21
-10 7 -23 38 -23 55 0 4 -6 21 -15 37 -11 21 -12 28 -3 25 20 -8 61 -73 53
-84 -3 -6 1 -11 9 -11 11 0 16 9 16 30 0 17 -5 30 -12 30 -23 0 -61 73 -66
124 -3 28 -12 56 -23 67 -24 24 -44 99 -31 119 5 8 19 15 31 14 11 0 21 3 21
8 0 4 -15 8 -34 8 -42 0 -52 -22 -37 -77 11 -39 6 -57 -9 -33 -17 27 -12 115
8 132 26 23 52 29 73 17 11 -5 28 -9 37 -7 13 3 9 8 -15 21 -36 19 -60 21 -86
6z m35 -254 c3 -13 2 -22 -2 -20 -11 7 -20 45 -10 45 4 0 10 -11 12 -25z"/>
<path d="M2536 2217 c3 -10 9 -15 12 -12 3 3 0 11 -7 18 -10 9 -11 8 -5 -6z"/>
<path d="M2760 2191 c0 -5 5 -13 10 -16 6 -3 10 -2 10 4 0 5 -4 13 -10 16 -5
3 -10 2 -10 -4z"/>
<path d="M2590 2160 c0 -5 5 -10 11 -10 5 0 7 5 4 10 -3 6 -8 10 -11 10 -2 0
-4 -4 -4 -10z"/>
<path d="M2890 2160 c0 -5 5 -10 11 -10 5 0 7 5 4 10 -3 6 -8 10 -11 10 -2 0
-4 -4 -4 -10z"/>
<path d="M2660 2116 c0 -2 7 -7 16 -10 8 -3 12 -2 9 4 -6 10 -25 14 -25 6z"/>
<path d="M2802 2104 c10 -10 20 -15 24 -12 3 4 -5 12 -18 18 -22 12 -22 12 -6
-6z"/>
<path d="M546 2063 c9 -51 14 -54 14 -10 0 20 -5 39 -11 42 -7 5 -8 -5 -3 -32z"/>
<path d="M2640 2065 c7 -9 15 -13 17 -11 7 7 -7 26 -19 26 -6 0 -6 -6 2 -15z"/>
<path d="M2930 2061 c0 -6 4 -13 10 -16 6 -3 7 1 4 9 -7 18 -14 21 -14 7z"/>
<path d="M2560 2036 c0 -2 8 -10 18 -17 15 -13 16 -12 3 4 -13 16 -21 21 -21
13z"/>
<path d="M2840 2036 c0 -2 8 -10 18 -17 15 -13 16 -12 3 4 -13 16 -21 21 -21
13z"/>
<path d="M1331 2014 c0 -11 3 -14 6 -6 3 7 2 16 -1 19 -3 4 -6 -2 -5 -13z"/>
<path d="M1395 2020 c-3 -6 1 -7 9 -4 18 7 21 14 7 14 -6 0 -13 -4 -16 -10z"/>
<path d="M2500 2011 c0 -6 4 -13 10 -16 6 -3 7 1 4 9 -7 18 -14 21 -14 7z"/>
<path d="M2805 2010 c3 -5 8 -10 11 -10 2 0 4 5 4 10 0 6 -5 10 -11 10 -5 0
-7 -4 -4 -10z"/>
<path d="M2658 1963 c6 -2 12 -11 12 -18 0 -8 4 -16 9 -19 4 -3 6 6 3 19 -2
15 -11 25 -21 24 -10 0 -11 -2 -3 -6z"/>
<path d="M1146 1950 c-15 -5 -55 -10 -87 -12 -33 -1 -59 -7 -59 -12 0 -4 -6
-3 -14 3 -10 8 -16 9 -21 1 -3 -6 -11 -7 -17 -4 -7 5 -8 2 -3 -5 13 -22 191 0
235 29 18 12 6 11 -34 0z"/>
<path d="M2770 1956 c0 -2 7 -7 16 -10 8 -3 12 -2 9 4 -6 10 -25 14 -25 6z"/>
<path d="M2145 1940 c3 -5 11 -10 16 -10 6 0 7 5 4 10 -3 6 -11 10 -16 10 -6
0 -7 -4 -4 -10z"/>
<path d="M2731 1945 c1 -19 18 -51 18 -35 0 8 -4 22 -9 30 -5 8 -9 11 -9 5z"/>
<path d="M716 1931 c-4 -7 -5 -15 -2 -18 9 -9 19 4 14 18 -4 11 -6 11 -12 0z"/>
<path d="M2489 1928 c15 -21 31 -23 31 -6 0 6 -3 8 -7 5 -3 -4 -13 -1 -22 6
-14 11 -14 10 -2 -5z"/>
<path d="M907 1923 c-4 -3 -7 -11 -7 -17 0 -6 5 -5 12 2 6 6 9 14 7 17 -3 3
-9 2 -12 -2z"/>
<path d="M1242 1903 c-43 -49 -67 -113 -41 -113 5 0 7 5 4 10 -3 6 -1 10 4 10
6 0 11 6 11 13 0 7 13 28 30 47 28 34 38 60 23 60 -5 0 -18 -12 -31 -27z"/>
<path d="M1760 1923 c0 -11 90 -93 103 -93 7 0 6 -4 -3 -10 -12 -7 -10 -9 7
-8 20 2 22 28 2 28 -5 0 -23 16 -41 36 -34 37 -68 61 -68 47z"/>
<path d="M2660 1910 c8 -5 20 -10 25 -10 6 0 3 5 -5 10 -8 5 -19 10 -25 10 -5
0 -3 -5 5 -10z"/>
<path d="M825 1900 c-3 -5 -1 -10 4 -10 6 0 11 5 11 10 0 6 -2 10 -4 10 -3 0
-8 -4 -11 -10z"/>
<path d="M1329 1901 c8 -5 10 -14 6 -22 -6 -11 -5 -11 5 -2 14 12 6 33 -13 33
-8 0 -7 -3 2 -9z"/>
<path d="M1480 1895 c0 -8 2 -15 4 -15 2 0 6 7 10 15 3 8 1 15 -4 15 -6 0 -10
-7 -10 -15z"/>
<path d="M2945 1900 c3 -5 8 -10 11 -10 2 0 4 5 4 10 0 6 -5 10 -11 10 -5 0
-7 -4 -4 -10z"/>
<path d="M2738 1883 c7 -3 16 -2 19 1 4 3 -2 6 -13 5 -11 0 -14 -3 -6 -6z"/>
<path d="M2120 1870 c0 -5 5 -10 11 -10 5 0 7 5 4 10 -3 6 -8 10 -11 10 -2 0
-4 -4 -4 -10z"/>
<path d="M2770 1871 c0 -5 7 -12 16 -15 14 -5 15 -4 4 9 -14 17 -20 19 -20 6z"/>
<path d="M2955 1850 c10 -11 20 -20 23 -20 3 0 -3 9 -13 20 -10 11 -20 20 -23
20 -3 0 3 -9 13 -20z"/>
<path d="M2410 1850 c0 -5 5 -10 11 -10 5 0 7 5 4 10 -3 6 -8 10 -11 10 -2 0
-4 -4 -4 -10z"/>
<path d="M1963 1835 c0 -8 4 -12 9 -9 4 3 8 9 8 15 0 5 -4 9 -8 9 -5 0 -9 -7
-9 -15z"/>
<path d="M2510 1835 c7 -9 15 -13 17 -11 7 7 -7 26 -19 26 -6 0 -6 -6 2 -15z"/>
<path d="M1530 1830 c0 -5 4 -10 9 -10 6 0 13 5 16 10 3 6 -1 10 -9 10 -9 0
-16 -4 -16 -10z"/>
<path d="M1450 1820 c0 -5 5 -10 11 -10 5 0 7 5 4 10 -3 6 -8 10 -11 10 -2 0
-4 -4 -4 -10z"/>
<path d="M1766 1800 c-10 -17 -16 -34 -13 -37 8 -7 40 44 35 57 -2 6 -12 -3
-22 -20z"/>
<path d="M2835 1820 c3 -5 8 -10 11 -10 2 0 4 5 4 10 0 6 -5 10 -11 10 -5 0
-7 -4 -4 -10z"/>
<path d="M2936 1817 c3 -10 9 -15 12 -12 3 3 0 11 -7 18 -10 9 -11 8 -5 -6z"/>
<path d="M2757 1809 c7 -7 15 -10 18 -7 3 3 -2 9 -12 12 -14 6 -15 5 -6 -5z"/>
<path d="M2563 1795 c0 -8 4 -12 9 -9 5 3 6 10 3 15 -9 13 -12 11 -12 -6z"/>
<path d="M2600 1800 c0 -6 7 -10 15 -10 8 0 15 2 15 4 0 2 -7 6 -15 10 -8 3
-15 1 -15 -4z"/>
<path d="M1840 1795 c0 -7 94 -95 102 -95 5 0 8 -7 8 -15 0 -8 5 -15 11 -15
11 0 7 10 -24 52 -11 15 -25 24 -30 21 -6 -3 -7 -1 -3 5 3 6 -6 20 -20 31 -25
20 -44 27 -44 16z"/>
<path d="M2740 1776 c14 -8 27 -12 29 -10 6 6 -1 11 -29 18 l-25 7 25 -15z"/>
<path d="M1207 1774 c-4 -4 -2 -13 4 -21 6 -7 8 -13 5 -13 -4 0 4 -11 17 -24
27 -26 76 -39 98 -25 10 6 5 9 -17 9 -34 0 -82 32 -93 62 -4 10 -10 16 -14 12z"/>
<path d="M1038 1763 c7 -3 16 -2 19 1 4 3 -2 6 -13 5 -11 0 -14 -3 -6 -6z"/>
<path d="M1598 1742 c-34 -20 -35 -28 -5 -36 41 -11 80 -6 113 15 19 11 34 22
34 23 0 2 -23 -5 -51 -14 -28 -10 -60 -15 -70 -13 -26 7 -18 14 23 18 46 5 45
4 28 15 -22 14 -41 12 -72 -8z"/>
<path d="M2665 1750 c3 -5 8 -10 11 -10 2 0 4 5 4 10 0 6 -5 10 -11 10 -5 0
-7 -4 -4 -10z"/>
<path d="M1125 1741 c-3 -5 -2 -12 3 -15 5 -3 9 1 9 9 0 17 -3 19 -12 6z"/>
<path d="M1327 1743 c-14 -14 -5 -19 36 -19 23 0 51 -3 62 -8 11 -4 7 1 -10
13 -29 20 -75 28 -88 14z"/>
<path d="M2940 1746 c0 -2 7 -9 15 -16 13 -11 14 -10 9 4 -5 14 -24 23 -24 12z"/>
<path d="M2580 1726 c0 -2 7 -7 16 -10 8 -3 12 -2 9 4 -6 10 -25 14 -25 6z"/>
<path d="M1090 1710 c-8 -5 -10 -10 -5 -10 6 0 17 5 25 10 8 5 11 10 5 10 -5
0 -17 -5 -25 -10z"/>
<path d="M2480 1710 c0 -5 5 -10 11 -10 5 0 7 5 4 10 -3 6 -8 10 -11 10 -2 0
-4 -4 -4 -10z"/>
<path d="M645 1684 c-16 -25 -16 -25 4 -14 12 6 21 17 21 25 0 21 -5 19 -25
-11z"/>
<path d="M730 1685 c0 -14 4 -25 9 -25 4 0 6 11 3 25 -2 14 -6 25 -8 25 -2 0
-4 -11 -4 -25z"/>
<path d="M2830 1690 c0 -5 5 -10 11 -10 5 0 7 5 4 10 -3 6 -8 10 -11 10 -2 0
-4 -4 -4 -10z"/>
<path d="M1432 1678 c-7 -7 -12 -16 -12 -22 0 -5 7 -1 15 10 14 18 14 18 8 -3
-3 -14 -1 -23 6 -23 6 0 11 5 11 11 0 5 3 8 8 6 4 -3 21 1 37 9 l30 14 -33 -6
c-18 -3 -39 -1 -46 5 -9 7 -16 7 -24 -1z"/>
<path d="M2464 1655 c8 -8 18 -15 22 -15 3 0 1 7 -6 15 -7 8 -17 15 -22 15 -5
0 -3 -7 6 -15z"/>
<path d="M2875 1660 c3 -5 8 -10 11 -10 2 0 4 5 4 10 0 6 -5 10 -11 10 -5 0
-7 -4 -4 -10z"/>
<path d="M740 1612 c0 -23 5 -42 10 -42 7 0 8 14 4 38 -9 51 -14 53 -14 4z"/>
<path d="M1678 1643 c6 -2 18 -2 25 0 6 3 1 5 -13 5 -14 0 -19 -2 -12 -5z"/>
<path d="M1810 1640 c0 -5 7 -7 15 -4 8 4 15 8 15 10 0 2 -7 4 -15 4 -8 0 -15
-4 -15 -10z"/>
<path d="M2035 1640 c-3 -5 -1 -10 4 -10 6 0 11 5 11 10 0 6 -2 10 -4 10 -3 0
-8 -4 -11 -10z"/>
<path d="M1275 1629 c-4 -6 -5 -12 -2 -15 2 -3 7 2 10 11 7 17 1 20 -8 4z"/>
<path d="M1380 1630 c0 -5 7 -7 15 -4 8 4 15 8 15 10 0 2 -7 4 -15 4 -8 0 -15
-4 -15 -10z"/>
<path d="M1545 1630 c3 -5 8 -10 11 -10 2 0 4 5 4 10 0 6 -5 10 -11 10 -5 0
-7 -4 -4 -10z"/>
<path d="M2600 1636 c0 -2 7 -7 16 -10 8 -3 12 -2 9 4 -6 10 -25 14 -25 6z"/>
<path d="M1580 1620 c0 -5 5 -10 10 -10 6 0 10 5 10 10 0 6 -4 10 -10 10 -5 0
-10 -4 -10 -10z"/>
<path d="M2690 1626 c0 -2 7 -7 16 -10 8 -3 12 -2 9 4 -6 10 -25 14 -25 6z"/>
<path d="M1801 1598 c-14 -23 -14 -23 8 -4 22 20 25 26 13 26 -4 0 -13 -10
-21 -22z"/>
<path d="M2151 1572 c-7 -29 -11 -56 -8 -59 8 -7 29 74 25 95 -2 9 -9 -7 -17
-36z"/>
<path d="M1700 1595 c7 -9 15 -13 17 -11 7 7 -7 26 -19 26 -6 0 -6 -6 2 -15z"/>
<path d="M1080 1580 c0 -5 4 -10 9 -10 6 0 13 5 16 10 3 6 -1 10 -9 10 -9 0
-16 -4 -16 -10z"/>
<path d="M1468 1583 c7 -3 16 -2 19 1 4 3 -2 6 -13 5 -11 0 -14 -3 -6 -6z"/>
<path d="M2590 1586 c0 -2 7 -9 15 -16 13 -11 14 -10 9 4 -5 14 -24 23 -24 12z"/>
<path d="M1145 1570 c-3 -6 1 -7 9 -4 18 7 21 14 7 14 -6 0 -13 -4 -16 -10z"/>
<path d="M1910 1559 c7 -11 14 -19 16 -16 7 7 -7 37 -17 37 -6 0 -5 -9 1 -21z"/>
<path d="M2351 1563 c7 -12 15 -20 18 -17 3 2 -3 12 -13 22 -17 16 -18 16 -5
-5z"/>
<path d="M1183 1556 c-9 -11 -8 -15 6 -19 14 -3 17 0 14 14 -6 22 -5 22 -20 5z"/>
<path d="M2457 1539 c4 -13 8 -18 11 -10 2 7 -1 18 -6 23 -8 8 -9 4 -5 -13z"/>
<path d="M2947 1539 c7 -7 15 -10 18 -7 3 3 -2 9 -12 12 -14 6 -15 5 -6 -5z"/>
<path d="M1375 1523 c21 -22 125 -41 125 -23 0 6 -19 11 -42 12 -62 2 -64 2
-84 18 -16 12 -16 11 1 -7z"/>
<path d="M1580 1523 c-25 -9 -39 -18 -32 -21 7 -2 27 1 44 7 17 6 43 11 57 11
20 0 23 2 11 10 -19 12 -26 12 -80 -7z"/>
<path d="M1716 1525 c4 -8 10 -12 15 -9 11 6 2 24 -11 24 -5 0 -7 -7 -4 -15z"/>
<path d="M900 1520 c0 -5 5 -10 10 -10 6 0 10 5 10 10 0 6 -4 10 -10 10 -5 0
-10 -4 -10 -10z"/>
<path d="M2660 1520 c0 -5 5 -10 11 -10 5 0 7 5 4 10 -3 6 -8 10 -11 10 -2 0
-4 -4 -4 -10z"/>
<path d="M1780 1509 c0 -5 5 -7 10 -4 6 3 10 8 10 11 0 2 -4 4 -10 4 -5 0 -10
-5 -10 -11z"/>
<path d="M2526 1507 c3 -10 9 -15 12 -12 3 3 0 11 -7 18 -10 9 -11 8 -5 -6z"/>
<path d="M971 1473 c11 -34 19 -42 19 -20 0 7 -7 22 -15 33 -13 17 -14 16 -4
-13z"/>
<path d="M1027 1487 c-2 -6 6 -20 19 -30 22 -16 23 -16 21 3 -1 11 -7 20 -15
20 -7 0 -10 5 -7 10 3 6 2 10 -3 10 -6 0 -12 -6 -15 -13z"/>
<path d="M1857 1489 c-54 -8 -62 -13 -62 -37 0 -10 -9 -18 -22 -20 -13 -2 -23
-10 -23 -18 0 -12 5 -11 27 3 15 10 36 26 45 36 16 15 54 22 101 18 9 -1 17 0
17 3 0 14 -40 22 -83 15z"/>
<path d="M2102 1433 c-31 -65 -55 -133 -47 -133 2 0 12 16 21 35 10 21 21 32
28 28 7 -4 6 -1 -2 9 -10 12 -8 20 8 41 18 22 39 87 29 87 -3 0 -19 -30 -37
-67z"/>
<path d="M1623 1477 c1 -7 -14 -11 -40 -11 -24 0 -43 -4 -43 -8 0 -5 -5 -6
-11 -2 -6 3 -37 6 -68 5 -31 -1 -76 -2 -101 -3 -25 0 -39 -3 -32 -5 6 -3 12
-17 13 -31 l1 -27 7 25 c5 17 13 24 27 22 10 -1 44 -3 76 -4 54 -1 56 -2 62
-31 12 -58 9 -64 -35 -71 -53 -8 -69 5 -69 58 -1 32 -3 37 -11 24 -5 -9 -7
-29 -5 -43 6 -30 -8 -32 -31 -5 -12 14 -19 16 -24 8 -6 -9 -12 -8 -25 3 -9 8
-27 14 -38 14 -15 0 -24 10 -32 35 -13 40 -31 46 -102 35 l-44 -7 33 -28 c40
-34 54 -38 39 -11 -18 34 10 37 36 3 26 -33 104 -68 129 -58 13 4 15 1 10 -14
-4 -12 -2 -20 5 -20 6 0 8 5 5 10 -9 15 12 12 48 -6 44 -23 117 -27 117 -7 0
12 7 14 34 9 19 -4 37 -3 40 2 3 5 -8 9 -24 9 -37 0 -36 -1 -43 51 -5 41 -5
42 25 42 16 0 50 5 75 11 37 10 47 9 54 -2 5 -8 7 -20 4 -26 -2 -7 1 -13 6
-13 7 0 9 11 6 26 -4 25 -3 26 34 22 22 -2 39 0 39 4 0 5 -17 8 -37 8 -21 0
-55 4 -75 9 -26 6 -37 5 -35 -2z m-393 -37 c0 -5 -2 -10 -4 -10 -3 0 -8 5 -11
10 -3 6 -1 10 4 10 6 0 11 -4 11 -10z"/>
<path d="M1970 1480 c0 -5 5 -10 11 -10 5 0 7 5 4 10 -3 6 -8 10 -11 10 -2 0
-4 -4 -4 -10z"/>
<path d="M2680 1479 c0 -5 9 -9 20 -9 11 0 20 2 20 4 0 2 -9 6 -20 9 -11 3
-20 1 -20 -4z"/>
<path d="M1080 1470 c0 -5 7 -7 15 -4 8 4 15 8 15 10 0 2 -7 4 -15 4 -8 0 -15
-4 -15 -10z"/>
<path d="M1945 1460 c-4 -6 -16 -8 -27 -4 -14 4 -18 2 -14 -5 4 -6 2 -11 -3
-11 -6 0 -11 -4 -11 -9 0 -5 8 -7 18 -4 24 6 57 32 50 39 -3 3 -9 0 -13 -6z"/>
<path d="M1278 1435 c2 -14 6 -25 8 -25 2 0 4 11 4 25 0 14 -4 25 -9 25 -4 0
-6 -11 -3 -25z"/>
<path d="M1631 1420 c0 -8 4 -22 9 -30 12 -18 12 -2 0 25 -6 13 -9 15 -9 5z"/>
<path d="M1910 1410 c0 -5 5 -10 10 -10 6 0 10 5 10 10 0 6 -4 10 -10 10 -5 0
-10 -4 -10 -10z"/>
<path d="M1060 1405 c0 -5 5 -17 10 -25 5 -8 10 -10 10 -5 0 6 -5 17 -10 25
-5 8 -10 11 -10 5z"/>
<path d="M1710 1385 c-21 -25 -70 -47 -88 -40 -15 5 -15 4 0 -12 14 -13 21
-14 30 -5 15 15 38 16 38 2 0 -5 -7 -10 -16 -10 -8 0 -12 -4 -9 -10 8 -12 16
-12 34 -1 12 8 13 12 1 26 -11 14 -10 17 8 22 12 3 22 11 22 18 0 10 8 11 30
5 18 -5 30 -5 30 1 0 5 -3 9 -7 10 -5 0 -20 3 -34 5 -16 3 -31 -2 -39 -11z"/>
<path d="M2486 1367 c3 -10 9 -15 12 -12 3 3 0 11 -7 18 -10 9 -11 8 -5 -6z"/>
<path d="M2726 1367 c3 -10 9 -15 12 -12 3 3 0 11 -7 18 -10 9 -11 8 -5 -6z"/>
<path d="M1137 1359 c7 -7 15 -10 18 -7 3 3 -2 9 -12 12 -14 6 -15 5 -6 -5z"/>
<path d="M2227 1359 c7 -7 15 -10 18 -7 3 3 -2 9 -12 12 -14 6 -15 5 -6 -5z"/>
<path d="M2300 1361 c0 -5 5 -13 10 -16 6 -3 10 -2 10 4 0 5 -4 13 -10 16 -5
3 -10 2 -10 -4z"/>
<path d="M2355 1360 c3 -5 11 -10 16 -10 6 0 7 5 4 10 -3 6 -11 10 -16 10 -6
0 -7 -4 -4 -10z"/>
<path d="M2525 1361 c-3 -5 -1 -12 5 -16 5 -3 10 1 10 9 0 18 -6 21 -15 7z"/>
<path d="M1881 1324 c0 -11 3 -14 6 -6 3 7 2 16 -1 19 -3 4 -6 -2 -5 -13z"/>
<path d="M2635 1330 c3 -5 8 -10 11 -10 2 0 4 5 4 10 0 6 -5 10 -11 10 -5 0
-7 -4 -4 -10z"/>
<path d="M1590 1321 c0 -4 -11 -6 -24 -4 -20 4 -25 1 -23 -16 1 -14 5 -17 11
-11 14 14 43 12 49 -2 3 -10 7 -10 17 -1 16 15 6 43 -15 43 -8 0 -15 -4 -15
-9z"/>
<path d="M1950 1315 c-7 -9 -10 -18 -7 -21 3 -3 10 4 17 15 13 25 8 27 -10 6z"/>
<path d="M1425 1300 c3 -5 8 -10 11 -10 2 0 4 5 4 10 0 6 -5 10 -11 10 -5 0
-7 -4 -4 -10z"/>
<path d="M1697 1280 c-8 -11 -17 -17 -22 -12 -5 4 -5 1 0 -7 7 -12 10 -11 21
3 7 10 17 15 23 11 7 -3 8 0 5 9 -8 20 -10 20 -27 -4z"/>
<path d="M2556 1287 c3 -10 9 -15 12 -12 3 3 0 11 -7 18 -10 9 -11 8 -5 -6z"/>
<path d="M2326 1275 c-3 -9 -6 -24 -5 -33 0 -9 5 -4 10 12 9 32 6 48 -5 21z"/>
<path d="M1160 1259 c0 -5 5 -7 10 -4 6 3 10 8 10 11 0 2 -4 4 -10 4 -5 0 -10
-5 -10 -11z"/>
<path d="M1552 1245 c0 -16 2 -22 5 -12 2 9 2 23 0 30 -3 6 -5 -1 -5 -18z"/>
<path d="M1631 1234 c0 -11 3 -14 6 -6 3 7 2 16 -1 19 -3 4 -6 -2 -5 -13z"/>
<path d="M2800 1236 c0 -8 4 -17 9 -20 5 -4 7 3 4 14 -6 23 -13 26 -13 6z"/>
<path d="M845 1229 c-4 -6 -5 -12 -2 -15 2 -3 7 2 10 11 7 17 1 20 -8 4z"/>
<path d="M2235 1220 c3 -5 8 -10 11 -10 2 0 4 5 4 10 0 6 -5 10 -11 10 -5 0
-7 -4 -4 -10z"/>
<path d="M780 1209 c0 -5 5 -7 10 -4 6 3 10 8 10 11 0 2 -4 4 -10 4 -5 0 -10
-5 -10 -11z"/>
<path d="M2325 1190 c10 -11 20 -20 22 -20 2 0 -2 9 -9 20 -7 11 -17 20 -22
20 -5 0 -1 -9 9 -20z"/>
<path d="M695 1190 c-3 -6 1 -7 9 -4 18 7 21 14 7 14 -6 0 -13 -4 -16 -10z"/>
<path d="M1510 1186 c0 -2 7 -9 15 -16 9 -7 15 -8 15 -2 0 5 -7 12 -15 16 -8
3 -15 4 -15 2z"/>
<path d="M1746 1168 c3 -5 10 -6 15 -3 13 9 11 12 -6 12 -8 0 -12 -4 -9 -9z"/>
<path d="M2725 1170 c3 -5 8 -10 11 -10 2 0 4 5 4 10 0 6 -5 10 -11 10 -5 0
-7 -4 -4 -10z"/>
<path d="M831 1154 c0 -11 3 -14 6 -6 3 7 2 16 -1 19 -3 4 -6 -2 -5 -13z"/>
<path d="M1297 1153 c-10 -9 -9 -23 2 -23 5 0 11 7 15 15 5 15 -5 20 -17 8z"/>
<path d="M1975 1150 c3 -5 8 -10 11 -10 2 0 4 5 4 10 0 6 -5 10 -11 10 -5 0
-7 -4 -4 -10z"/>
<path d="M2870 1150 c0 -5 5 -10 11 -10 5 0 7 5 4 10 -3 6 -8 10 -11 10 -2 0
-4 -4 -4 -10z"/>
<path d="M1445 1140 c3 -5 8 -10 11 -10 2 0 4 5 4 10 0 6 -5 10 -11 10 -5 0
-7 -4 -4 -10z"/>
<path d="M1470 1138 c0 -3 8 -8 18 -11 13 -3 11 -6 -10 -15 -35 -14 -35 -17 1
-17 16 0 27 3 25 6 -2 3 8 11 23 18 20 9 28 9 33 0 6 -8 9 -8 14 0 4 6 1 13
-6 15 -25 9 -98 12 -98 4z"/>
<path d="M1593 1128 c-1 -13 3 -18 12 -14 8 3 16 -3 18 -12 4 -15 5 -14 6 2 1
14 7 17 26 14 14 -3 25 -1 25 3 0 5 7 6 15 3 10 -4 15 0 15 12 0 11 -3 15 -8
9 -8 -12 -77 -20 -69 -8 3 4 -5 9 -17 9 -15 1 -22 -4 -23 -18z"/>
<path d="M1140 1134 c0 -6 7 -19 16 -30 14 -18 14 -18 3 6 -14 31 -19 36 -19
24z"/>
<path d="M2620 1131 c0 -5 5 -13 10 -16 6 -3 10 -2 10 4 0 5 -4 13 -10 16 -5
3 -10 2 -10 -4z"/>
<path d="M2290 1120 c0 -5 5 -10 11 -10 5 0 7 5 4 10 -3 6 -8 10 -11 10 -2 0
-4 -4 -4 -10z"/>
<path d="M821 1104 c0 -11 3 -14 6 -6 3 7 2 16 -1 19 -3 4 -6 -2 -5 -13z"/>
<path d="M2505 1100 c3 -5 8 -10 11 -10 2 0 4 5 4 10 0 6 -5 10 -11 10 -5 0
-7 -4 -4 -10z"/>
<path d="M1656 1083 c-4 -9 -4 -18 -1 -21 3 -3 5 0 5 6 0 6 8 12 18 14 15 3
16 4 0 10 -10 4 -19 1 -22 -9z"/>
<path d="M2718 1093 c7 -3 16 -2 19 1 4 3 -2 6 -13 5 -11 0 -14 -3 -6 -6z"/>
<path d="M793 1036 c-11 -25 -16 -46 -11 -46 11 0 41 67 36 82 -2 5 -13 -11
-25 -36z"/>
<path d="M2750 1076 c0 -2 8 -10 18 -17 15 -13 16 -12 3 4 -13 16 -21 21 -21
13z"/>
<path d="M2900 1071 c0 -6 4 -13 10 -16 6 -3 7 1 4 9 -7 18 -14 21 -14 7z"/>
<path d="M2327 1059 c7 -7 15 -10 18 -7 3 3 -2 9 -12 12 -14 6 -15 5 -6 -5z"/>
<path d="M1545 1050 c3 -5 8 -10 11 -10 2 0 4 5 4 10 0 6 -5 10 -11 10 -5 0
-7 -4 -4 -10z"/>
<path d="M2400 1010 c0 -5 5 -10 11 -10 5 0 7 5 4 10 -3 6 -8 10 -11 10 -2 0
-4 -4 -4 -10z"/>
<path d="M1695 1000 c-3 -6 1 -7 9 -4 18 7 21 14 7 14 -6 0 -13 -4 -16 -10z"/>
<path d="M2465 1000 c3 -5 8 -10 11 -10 2 0 4 5 4 10 0 6 -5 10 -11 10 -5 0
-7 -4 -4 -10z"/>
<path d="M2436 985 c4 -8 11 -15 16 -15 6 0 5 6 -2 15 -7 8 -14 15 -16 15 -2
0 -1 -7 2 -15z"/>
<path d="M2660 991 c0 -5 5 -13 10 -16 6 -3 10 -2 10 4 0 5 -4 13 -10 16 -5 3
-10 2 -10 -4z"/>
<path d="M1596 975 c4 -8 8 -15 10 -15 2 0 4 7 4 15 0 8 -4 15 -10 15 -5 0 -7
-7 -4 -15z"/>
<path d="M1330 968 c0 -9 5 -20 11 -23 17 -11 20 0 4 21 -13 17 -14 17 -15 2z"/>
<path d="M1438 973 c7 -3 16 -2 19 1 4 3 -2 6 -13 5 -11 0 -14 -3 -6 -6z"/>
<path d="M2240 954 c0 -8 5 -12 10 -9 6 4 8 11 5 16 -9 14 -15 11 -15 -7z"/>
<path d="M2841 954 c0 -11 3 -14 6 -6 3 7 2 16 -1 19 -3 4 -6 -2 -5 -13z"/>
<path d="M1140 926 c0 -2 7 -9 15 -16 13 -11 14 -10 9 4 -5 14 -24 23 -24 12z"/>
<path d="M1380 925 c0 -10 29 -24 34 -17 3 6 -3 12 -14 15 -11 3 -20 4 -20 2z"/>
<path d="M1690 920 c0 -5 5 -10 11 -10 5 0 7 5 4 10 -3 6 -8 10 -11 10 -2 0
-4 -4 -4 -10z"/>
<path d="M1550 911 c0 -10 19 -25 25 -20 1 2 -3 10 -11 17 -8 7 -14 8 -14 3z"/>
<path d="M1595 910 c-3 -5 -1 -10 4 -10 6 0 11 5 11 10 0 6 -2 10 -4 10 -3 0
-8 -4 -11 -10z"/>
<path d="M544 895 c-10 -8 -14 -14 -9 -15 15 0 40 18 34 24 -3 3 -14 -1 -25
-9z"/>
<path d="M1329 893 c15 -30 47 -47 57 -31 4 7 3 8 -4 4 -7 -4 -23 5 -38 21
-22 23 -25 24 -15 6z"/>
<path d="M2251 864 c-1 -52 25 -107 78 -162 37 -38 156 -92 203 -92 78 -1 121
-16 154 -56 34 -40 76 -52 182 -53 29 -1 69 -8 89 -16 44 -18 43 -18 43 1 0 8
-4 12 -10 9 -12 -7 -50 12 -50 26 0 6 13 8 31 5 20 -3 29 -1 26 7 -2 7 -36 15
-83 18 -45 4 -111 18 -154 33 -41 14 -122 35 -180 45 -166 30 -206 49 -265
127 -36 49 -51 79 -56 113 l-6 46 -2 -51z m516 -304 c24 -10 70 -22 102 -26
40 -4 62 -12 66 -22 4 -11 2 -12 -7 -5 -7 6 -22 9 -33 7 -42 -7 -153 19 -181
42 -26 20 -27 23 -9 23 11 0 39 -8 62 -19z"/>
<path d="M1820 885 c-14 -8 -20 -14 -15 -14 6 0 21 6 35 14 14 8 21 14 15 14
-5 0 -21 -6 -35 -14z"/>
<path d="M2770 893 c0 -6 8 -17 18 -24 16 -13 16 -13 2 6 -8 11 -16 22 -17 24
-2 2 -3 0 -3 -6z"/>
<path d="M1436 877 c3 -10 9 -15 12 -12 3 3 0 11 -7 18 -10 9 -11 8 -5 -6z"/>
<path d="M1637 870 c-3 -11 -1 -20 4 -20 5 0 9 5 9 10 0 7 6 7 19 0 15 -7 22
-7 27 2 4 7 3 10 -1 5 -5 -4 -18 -1 -31 8 -20 13 -22 12 -27 -5z"/>
<path d="M653 873 c9 -2 23 -2 30 0 6 3 -1 5 -18 5 -16 0 -22 -2 -12 -5z"/>
<path d="M1610 870 c-9 -6 -10 -10 -3 -10 6 0 15 5 18 10 8 12 4 12 -15 0z"/>
<path d="M2847 862 c3 -12 9 -25 14 -28 14 -8 11 10 -6 32 -13 18 -14 18 -8
-4z"/>
<path d="M1760 860 c0 -5 5 -10 11 -10 5 0 7 5 4 10 -3 6 -8 10 -11 10 -2 0
-4 -4 -4 -10z"/>
<path d="M1200 856 c0 -3 9 -10 20 -16 11 -6 20 -8 20 -6 0 3 -9 10 -20 16
-11 6 -20 8 -20 6z"/>
<path d="M1415 841 c-3 -5 -2 -12 3 -15 5 -3 9 1 9 9 0 17 -3 19 -12 6z"/>
<path d="M1730 840 c0 -5 5 -10 11 -10 5 0 7 5 4 10 -3 6 -8 10 -11 10 -2 0
-4 -4 -4 -10z"/>
<path d="M2395 819 c-5 -15 0 -28 15 -43 l23 -21 -16 24 c-12 17 -13 29 -6 43
6 11 6 18 0 18 -5 0 -13 -10 -16 -21z"/>
<path d="M178 823 c7 -3 16 -2 19 1 4 3 -2 6 -13 5 -11 0 -14 -3 -6 -6z"/>
<path d="M295 820 c-8 -13 5 -13 25 0 13 8 13 10 -2 10 -9 0 -20 -4 -23 -10z"/>
<path d="M601 812 c7 -11 19 -18 26 -15 16 6 16 6 -15 22 -21 11 -22 11 -11
-7z"/>
<path d="M716 790 c-9 -21 -34 -54 -55 -73 l-38 -35 -108 -1 c-60 -1 -113 -5
-119 -8 -5 -4 -26 -10 -45 -14 -75 -16 -109 -28 -293 -99 -32 -13 -58 -27 -58
-31 0 -5 30 3 67 17 38 14 91 32 118 41 28 8 55 19 61 24 7 5 26 11 44 14 17
2 38 9 46 16 31 26 11 -3 -41 -58 -39 -41 -55 -66 -55 -85 0 -16 -4 -28 -8
-28 -4 0 -9 -11 -10 -25 -2 -25 -37 -99 -79 -167 -31 -50 -13 -49 20 0 34 52
88 160 93 187 10 56 47 117 77 128 9 3 17 13 17 21 0 29 38 39 205 52 69 5 86
10 122 37 23 18 43 37 43 42 0 6 9 21 20 35 23 30 24 36 7 43 -9 3 -20 -9 -31
-33z"/>
<path d="M2480 825 c0 -5 5 -17 10 -25 5 -8 10 -10 10 -5 0 6 -5 17 -10 25 -5
8 -10 11 -10 5z"/>
<path d="M2970 826 c0 -2 8 -10 18 -17 15 -13 16 -12 3 4 -13 16 -21 21 -21
13z"/>
<path d="M219 790 c-26 -16 -50 -26 -53 -23 -3 4 -6 1 -6 -5 0 -6 -16 -14 -35
-18 -19 -3 -38 -10 -41 -15 -3 -5 -16 -9 -30 -9 -13 0 -24 -6 -24 -12 0 -9 -4
-8 -10 2 -8 13 -10 12 -10 -3 0 -14 5 -16 28 -11 49 12 151 55 163 70 6 8 17
14 24 14 7 0 23 9 36 20 36 29 10 24 -42 -10z"/>
<path d="M490 780 c-6 -11 -7 -20 -2 -20 6 0 12 9 15 20 3 11 3 20 1 20 -2 0
-8 -9 -14 -20z"/>
<path d="M1595 790 c3 -5 8 -10 11 -10 2 0 4 5 4 10 0 6 -5 10 -11 10 -5 0 -7
-4 -4 -10z"/>
<path d="M1750 789 c0 -5 5 -7 10 -4 6 3 10 8 10 11 0 2 -4 4 -10 4 -5 0 -10
-5 -10 -11z"/>
<path d="M603 766 c-15 -25 -50 -37 -78 -26 -36 14 -39 13 -20 -6 21 -21 81
-13 106 15 11 11 19 23 19 26 0 10 -19 5 -27 -9z"/>
<path d="M1445 770 c-3 -5 -1 -10 4 -10 6 0 11 5 11 10 0 6 -2 10 -4 10 -3 0
-8 -4 -11 -10z"/>
<path d="M1575 740 c-3 -5 -5 -10 -3 -11 32 -8 48 -7 48 3 0 6 -3 8 -7 5 -3
-4 -12 -2 -19 4 -8 7 -14 7 -19 -1z"/>
<path d="M2478 743 c6 -2 18 -2 25 0 6 3 1 5 -13 5 -14 0 -19 -2 -12 -5z"/>
<path d="M2236 628 c-11 -69 -17 -283 -8 -269 8 11 12 10 21 -5 10 -18 10 -18
11 4 0 12 -4 22 -9 22 -14 0 -22 31 -12 44 5 6 10 62 10 124 2 111 -3 143 -13
80z"/>
<path d="M56 605 c-11 -8 -16 -15 -10 -15 5 0 18 7 28 15 11 8 16 15 10 15 -5
0 -18 -7 -28 -15z"/>
<path d="M275 610 c-3 -6 1 -7 9 -4 18 7 21 14 7 14 -6 0 -13 -4 -16 -10z"/>
<path d="M257 583 c-4 -3 -7 -11 -7 -17 0 -6 5 -5 12 2 6 6 9 14 7 17 -3 3 -9
2 -12 -2z"/>
<path d="M701 504 c0 -11 3 -14 6 -6 3 7 2 16 -1 19 -3 4 -6 -2 -5 -13z"/>
<path d="M1480 489 c0 -5 5 -7 10 -4 6 3 10 8 10 11 0 2 -4 4 -10 4 -5 0 -10
-5 -10 -11z"/>
<path d="M646 413 c-4 -27 -9 -61 -12 -78 -4 -26 -3 -28 7 -11 11 18 24 136
15 136 -2 0 -7 -21 -10 -47z"/>
<path d="M2245 410 c-3 -5 -1 -10 4 -10 6 0 11 5 11 10 0 6 -2 10 -4 10 -3 0
-8 -4 -11 -10z"/>
<path d="M671 354 c0 -11 3 -14 6 -6 3 7 2 16 -1 19 -3 4 -6 -2 -5 -13z"/>
<path d="M654 316 c-4 -10 -8 -27 -9 -39 -1 -12 -3 -31 -5 -42 -1 -11 -4 -15
-7 -7 -11 27 -20 9 -13 -28 4 -24 3 -41 -3 -43 -5 -1 -11 -20 -12 -40 -1 -21
-5 -41 -9 -44 -3 -3 -6 -22 -6 -41 0 -49 23 -36 33 19 32 180 46 273 42 277
-2 3 -8 -3 -11 -12z"/>
<path d="M701 294 c0 -11 3 -14 6 -6 3 7 2 16 -1 19 -3 4 -6 -2 -5 -13z"/>
<path d="M623 281 c0 -11 5 -18 9 -15 4 3 5 11 1 19 -7 21 -12 19 -10 -4z"/>
<path d="M2246 265 c-3 -9 0 -15 9 -15 9 0 12 6 9 15 -4 8 -7 15 -9 15 -2 0
-5 -7 -9 -15z"/>
<path d="M1746 234 c-8 -22 -4 -25 11 -9 7 8 9 16 4 19 -5 3 -12 -1 -15 -10z"/>
<path d="M100 205 c-8 -9 -8 -15 -2 -15 12 0 26 19 19 26 -2 2 -10 -2 -17 -11z"/>
<path d="M681 174 c0 -11 3 -14 6 -6 3 7 2 16 -1 19 -3 4 -6 -2 -5 -13z"/>
<path d="M1029 154 c-23 -25 -23 -26 -2 -15 23 12 38 29 31 37 -3 2 -15 -8
-29 -22z"/>
<path d="M1050 122 c0 -5 7 -15 15 -22 8 -7 15 -18 15 -25 0 -7 7 -18 15 -25
12 -10 11 -5 -2 21 -18 37 -43 66 -43 51z"/>
<path d="M2200 105 c0 -8 2 -15 4 -15 2 0 6 7 10 15 3 8 1 15 -4 15 -6 0 -10
-7 -10 -15z"/>
<path d="M928 57 c-36 -40 -43 -53 -30 -56 9 -2 18 1 20 7 2 6 19 31 38 56 47
62 30 58 -28 -7z"/>
<path d="M1160 50 c0 -26 6 -26 13 0 3 11 1 20 -4 20 -5 0 -9 -9 -9 -20z"/>
<path d="M2192 20 c0 -14 2 -19 5 -12 2 6 2 18 0 25 -3 6 -5 1 -5 -13z"/>
</g>
</svg>
