<?xml version="1.0" encoding="UTF-8" standalone="yes"?>
<!-- Created with sK1/UniConvertor (http://sk1project.org/) -->
<svg xmlns="http://www.w3.org/2000/svg" xmlns:xlink="http://www.w3.org/1999/xlink"
  width="144pt" height="144pt" viewBox="0 0 144 144"
  fill-rule="evenodd">
<g>
<path style="stroke:none; fill:none" d="M 0 0L 0 144L 144 144L 144 0L 0 0z"/>
<path style="stroke:none; fill:none" d="M 15.2 6.39999L 15.2 7.2L 128 7.2C 119.216 3.51411 103.955 6.39999 94.4 6.39999L 15.2 6.39999z"/>
<path style="stroke:none; fill:none" d="M 6.4 79.2L 7.2 79.2C 7.20426 72.7561 8.44608 69.4494 14.4 66.4C 13.8801 65.3602 14.2826 65.6 12.8 65.6L 12.8 64.8C 18.7936 63.3294 21.5204 57.8191 27.2 56C 24.8037 47.2387 23.3937 42.504 26.4 33.6L 28 33.6C 30.1715 38.2535 34.5418 41.9238 39.2 44C 39.503 41.5617 42.0617 40.6378 44 39.2L 44 38.4C 42.5626 38.4 42.7828 38.4114 41.6 39.2C 44.3117 35.7116 48.9118 36.631 50.4 31.2C 51.5828 31.9886 51.3626 32 52.8 32C 55.298 29.1225 57.7968 27.1009 58.4 23.2C 60.3536 23.1124 62.0982 22.8576 64 22.4L 63.2 20.8C 66.5537 19.4445 68.9854 18.1293 69.6 14.4C 73.5466 13.339 77.0053 10.6163 79.2 7.2L 29.6 7.2C 23.6269 7.2 14.5988 5.46448 9.8636 9.91544C 4.76051 14.7122 6.4 23.2782 6.4 29.6L 6.4 79.2z"/>
<path style="stroke:none; fill:none" d="M 69.6 14.4C 68.585 17.7858 66.1609 19.069 63.2 20.8L 64 22.4L 58.4 23.2C 57.2962 27.131 54.4794 30.3792 50.4 31.2C 48.749 35.889 42.277 36.105 41.6 39.2L 44 38.4L 44 39.2L 38.4 42.4C 43.6865 51.6952 60.5097 55.1727 70.4 55.2C 70.4 39.1007 79.4632 33.1283 92.8 26.4L 92.8 23.2C 95.716 23.0678 96.6704 22.1265 96.8 19.2C 98.1376 19.4706 97.848 19.6298 98.4 18.4C 100.355 18.6422 100.822 18.7495 100.8 16.8C 102.698 16.2792 103.97 15.5163 105.6 14.4L 105.6 13.6C 104.162 13.6 104.383 13.5886 103.2 12.8C 107.432 12.0967 110.107 10.5946 112.8 7.2C 103.376 7.2 88.9216 4.44678 80.072 7.67038C 76.2427 9.06503 73.3972 12.755 69.6 14.4z"/>
<path style="stroke:none; fill:none" d="M 103.2 12.8C 104.198 13.3478 104.438 13.399 105.6 13.6L 105.6 14.4L 100.8 16.8C 100.8 18.708 100.214 18.6688 98.4 18.4L 98.4 20L 96.8 19.2C 96.5136 21.8357 95.4576 22.9098 92.8 23.2C 92.6256 24.5492 92.6208 25.0529 92.8 26.4C 91.0944 27.0212 90.5832 27.3042 89.6 28.8C 96.7544 29.1119 101.549 34.2764 108 35.1778C 112.181 35.7619 117.068 32.7307 120.8 31.2C 118.868 34.8112 116.091 37.9021 114.4 41.6C 117.377 41.3981 123.506 40.9721 124 37.6C 135.808 35.778 143.255 15.7826 131.988 8.59384C 122.564 2.58136 111.73 10.1931 103.2 12.8z"/>
<path style="stroke:none; fill:none" d="M 136.8 15.2L 136.8 127.2L 137.6 127.2L 137.6 48.8C 137.6 39.2448 140.486 23.9839 136.8 15.2M 88 28.8L 88 29.6L 94.4 29.6C 92.3096 28.7218 90.2688 28.8058 88 28.8z"/>
<path style="stroke:none; fill:none" d="M 136 28.8C 132.254 31.9413 128.773 36.2603 124 37.6C 122.574 43.1934 116.207 45.4784 114.08 50.5358C 110.191 59.7807 111.19 70.3883 106.573 80C 96.8536 100.233 75.9701 113.496 53.6 114.368C 45.917 114.667 38.7457 111.545 31.2 111.2C 30.5522 113.98 28.2266 114.19 25.6 114.4C 26.0361 115.708 25.8918 115.564 27.2 116L 27.2 116.8C 24.0554 118.684 19.0531 121.3 16.8 124L 19.2 123.2C 17.1867 125.03 15.499 126.674 12.8 127.2C 11.643 129.026 10.9515 129.266 8.8 129.6C 10.5382 136.235 15.4716 136.79 21.6 136.8C 35.0102 136.822 56.9367 140.926 68.8 134.4L 67.2 132C 68.8259 132.258 69.5854 132.272 71.2 132L 70.4 129.6C 75.4066 130.55 80.0488 123.654 84 120.8L 84 120L 80 120L 80 119.2C 86.352 118.997 91.3928 113.806 96 109.825C 105.48 101.633 114.315 92.7752 124 84.8L 124 84L 119.2 84C 123.19 79.7091 127.769 75.015 132.8 72L 132 69.6C 136.972 68.5632 136.798 65.2663 136.8 60.8C 136.804 51.667 139.525 37.2 136 28.8z"/>
<path style="stroke:none; fill:#1DA1F2" d="M 71.2 56C 55.3803 54.7498 37.3371 46.8463 28 33.6L 26.4 33.6C 21.8223 44.2397 24.9269 53.6558 32.8 61.6C 29.6393 61.3223 26.9458 60.3344 24 59.2C 24.7978 69.2254 29.7738 77.4163 40 80L 40 80.8C 36.9529 81.032 34.2388 81.3016 31.2 80.8C 34.8414 89.4864 41.7127 94.7864 51.2 95.2L 51.2 96C 41.1908 100.673 32.9408 104.793 21.6 104.8L 21.6 105.6C 49.2214 121.722 86.0816 113.403 103.442 86.4C 110.719 75.079 108.902 63.6005 113.282 52.0118C 114.988 47.5012 120.566 44.2106 123.2 40L 112.8 42.4C 116.174 38.995 119.131 35.7509 120.8 31.2C 117.081 32.2636 112.73 35.5752 108.8 35.2068C 103.835 34.7414 99.8136 30.2798 94.4 29.7364C 78.6181 28.1523 68.4034 40.9364 71.2 56z"/>
<path style="stroke:none; fill:none" d="M 96.5336 29.8666C 96.1776 30.2222 97.0224 30.1778 97.0664 30.1334C 97.4224 29.7778 96.5776 29.8222 96.5336 29.8666z"/>
<path style="stroke:none; fill:none" d="M 104.8 33.6L 105.6 34.4L 104.8 33.6z"/>
<path style="stroke:none; fill:none" d="M 111.734 34.6666C 111.378 35.0222 112.222 34.9778 112.266 34.9334C 112.622 34.5778 111.778 34.6222 111.734 34.6666z"/>
<path style="stroke:none; fill:none" d="M 108.534 35.4666C 108.178 35.8222 109.022 35.7778 109.066 35.7334C 109.422 35.3778 108.578 35.4222 108.534 35.4666z"/>
<path style="stroke:none; fill:none" d="M 24.2666 38.9334C 24.2222 38.9778 24.1778 39.8222 24.5334 39.4666C 24.5778 39.4222 24.6222 38.5778 24.2666 38.9334z"/>
<path style="stroke:none; fill:none" d="M 122.934 39.4666C 122.578 39.8222 123.422 39.7778 123.466 39.7334C 123.822 39.3778 122.978 39.4222 122.934 39.4666z"/>
<path style="stroke:none; fill:none" d="M 112.8 42.4L 115.2 42.4L 114.4 40.8C 113.092 41.2361 113.236 41.0918 112.8 42.4z"/>
<path style="stroke:none; fill:none" d="M 118.134 41.0666C 117.778 41.4222 118.622 41.3778 118.666 41.3334C 119.022 40.9778 118.178 41.0222 118.134 41.0666z"/>
<path style="stroke:none; fill:none" d="M 120.8 42.4L 121.6 43.2L 120.8 42.4z"/>
<path style="stroke:none; fill:none" d="M 24 46.4L 24 48.8L 24.8 48.8C 24.599 47.6387 24.5478 47.3987 24 46.4z"/>
<path style="stroke:none; fill:none" d="M 115.2 48L 116 48.8L 115.2 48z"/>
<path style="stroke:none; fill:none" d="M 112.8 50.4L 112.8 56L 113.6 56C 113.585 53.9653 113.588 52.2653 112.8 50.4z"/>
<path style="stroke:none; fill:none" d="M 57.3334 53.0666C 56.9778 53.4222 57.8222 53.3778 57.8666 53.3334C 58.2222 52.9778 57.3778 53.0222 57.3334 53.0666z"/>
<path style="stroke:none; fill:none" d="M 59.7334 53.8666C 59.3778 54.2222 60.2222 54.1778 60.2666 54.1334C 60.6222 53.7778 59.7778 53.8222 59.7334 53.8666z"/>
<path style="stroke:none; fill:none" d="M 70.6666 54.1334C 70.6222 54.1778 70.5778 55.0222 70.9334 54.6666C 70.9778 54.6222 71.0222 53.7778 70.6666 54.1334z"/>
<path style="stroke:none; fill:none" d="M 62.9334 54.6666C 62.5778 55.0222 63.4222 54.9778 63.4666 54.9334C 63.8222 54.5778 62.9778 54.6222 62.9334 54.6666z"/>
<path style="stroke:none; fill:none" d="M 67.2 55.2L 67.2 56L 71.2 56C 69.7848 55.3769 68.7713 55.2701 67.2 55.2z"/>
<path style="stroke:none; fill:none" d="M 12.8 64.8L 12.8 65.6L 14.4 66.4C 6.71383 69.0434 6.58787 76.0101 6.41173 83.2C 6.04636 98.1144 6.4 113.081 6.4 128L 7.2 128L 8 99.2C 11.1857 98.2736 12.2835 96.9352 12 93.6C 16.7238 93.4472 22.7234 91.0304 22.4 85.6C 28.5418 85.3936 33.1592 80.8008 40 80.8L 40 80C 30.8577 76.6266 24.2339 69.1982 24 59.2C 26.8405 60.5905 29.6691 61.1954 32.8 61.6C 25.368 51.1752 20.908 61.6798 12.8 64.8z"/>
<path style="stroke:none; fill:none" d="M 112 60L 112 62.4L 112.8 62.4C 112.599 61.2388 112.548 60.9986 112 60z"/>
<path style="stroke:none; fill:none" d="M 29.3334 61.0666C 28.9778 61.4222 29.8222 61.3778 29.8666 61.3334C 30.2222 60.9778 29.3778 61.0222 29.3334 61.0666z"/>
<path style="stroke:none; fill:none" d="M 24 62.4L 24 64.8L 24.8 64.8C 24.599 63.6387 24.5478 63.3986 24 62.4z"/>
<path style="stroke:none; fill:none" d="M 112.266 62.9334C 112.222 62.9778 112.178 63.8222 112.534 63.4666C 112.578 63.4222 112.622 62.5778 112.266 62.9334z"/>
<path style="stroke:none; fill:none" d="M 111.466 66.1334C 111.422 66.1778 111.378 67.0222 111.734 66.6666C 111.778 66.6222 111.822 65.7778 111.466 66.1334z"/>
<path style="stroke:none; fill:none" d="M 136 68C 134.604 68.712 133.5 69.1624 132 69.6C 132 71.0374 132.011 70.8172 132.8 72C 127.706 74.0852 122.243 79.4394 119.2 84L 124 84L 124 84.8C 113.24 90.8512 104.496 101.792 95.2 109.825C 90.8384 113.594 85.9944 118.765 80 119.2L 80 120L 84 120L 84 120.8C 79.3306 123.142 75.6398 129.797 70.4 129.6C 70.4 131.038 70.4114 130.817 71.2 132L 67.2 132C 67.729 133.117 67.9715 133.451 68.8 134.4C 67.2411 135.149 66.7598 135.514 65.6 136.8L 112 136.8C 117.99 136.8 126.623 138.351 131.966 135.128C 137.672 131.686 136.8 124.928 136.8 119.2L 136.8 84C 136.8 79.0768 137.916 72.5658 136 68z"/>
<path style="stroke:none; fill:none" d="M 110.666 69.3334C 110.622 69.3778 110.578 70.2222 110.934 69.8666C 110.978 69.8222 111.022 68.9778 110.666 69.3334z"/>
<path style="stroke:none; fill:none" d="M 32 76L 32.8 76.8L 32 76z"/>
<path style="stroke:none; fill:none" d="M 32.8 80.8L 32.8 81.6L 36.8 81.6C 35.3848 80.9768 34.3713 80.8704 32.8 80.8z"/>
<path style="stroke:none; fill:none" d="M 22.4 85.6C 21.6356 90.5704 16.7462 93.2456 12 93.6C 11.7105 96.6384 10.725 97.8608 8 99.2C 8.33432 108.562 3.5634 124.148 8.8 132.8L 9.6 132.8L 8.8 129.6C 11.1947 129.549 12.2765 129.643 12.8 127.2C 15.8528 126.922 17.3343 125.605 19.2 123.2C 17.7626 123.2 17.9828 123.211 16.8 124L 27.2 116.8L 27.2 116L 25.6 114.4C 29.1008 114.277 30.2406 113.163 32.8 111.2L 32.8 110.4C 28.3028 109.105 24.3084 106.594 20 104.8L 20 104C 31.0117 104 40.1817 103.011 49.6 96.8L 49.6 96C 41.9722 92.964 35.4742 89.4984 32 81.6C 28.6175 82.604 25.873 85.2328 22.4 85.6z"/>
<path style="stroke:none; fill:none" d="M 101.6 88L 102.4 88.8L 101.6 88z"/>
<path style="stroke:none; fill:none" d="M 99.2 91.2L 100 92L 99.2 91.2z"/>
<path style="stroke:none; fill:none" d="M 46.1334 94.6664C 45.7778 95.0224 46.6222 94.9776 46.6666 94.9336C 47.0222 94.5776 46.1778 94.6224 46.1334 94.6664z"/>
<path style="stroke:none; fill:none" d="M 48.8 95.2L 49.6 96.8L 50.4 96.8L 51.2 95.2L 48.8 95.2z"/>
<path style="stroke:none; fill:none" d="M 47.2 97.6L 48 98.4L 47.2 97.6z"/>
<path style="stroke:none; fill:none" d="M 89.6 100.8L 90.4 101.6L 89.6 100.8z"/>
<path style="stroke:none; fill:none" d="M 32 103.2L 32 104L 34.4 104C 33.4013 103.452 33.1613 103.401 32 103.2z"/>
<path style="stroke:none; fill:none" d="M 86.4 103.2L 87.2 104L 86.4 103.2z"/>
<path style="stroke:none; fill:none" d="M 20 104L 20 104.8C 23.1658 105.148 26.4002 104.802 29.6 104.8C 26.642 103.558 23.1866 104 20 104z"/>
<path style="stroke:none; fill:none" d="M 35.7334 111.466C 35.3778 111.822 36.2222 111.778 36.2666 111.734C 36.6222 111.378 35.7778 111.422 35.7334 111.466z"/>
<path style="stroke:none; fill:none" d="M 69.3334 111.466C 68.9778 111.822 69.8222 111.778 69.8666 111.734C 70.2222 111.378 69.3778 111.422 69.3334 111.466z"/>
<path style="stroke:none; fill:none" d="M 38.1334 112.266C 37.7778 112.622 38.6222 112.578 38.6666 112.534C 39.0222 112.178 38.1778 112.222 38.1334 112.266z"/>
<path style="stroke:none; fill:none" d="M 66.1334 112.266C 65.7778 112.622 66.6222 112.578 66.6666 112.534C 67.0222 112.178 66.1778 112.222 66.1334 112.266z"/>
<path style="stroke:none; fill:none" d="M 42.1334 113.066C 41.7778 113.422 42.6222 113.378 42.6666 113.334C 43.0222 112.978 42.1778 113.022 42.1334 113.066z"/>
<path style="stroke:none; fill:none" d="M 62.1334 113.066C 61.7778 113.422 62.6222 113.378 62.6666 113.334C 63.0222 112.978 62.1778 113.022 62.1334 113.066z"/>
<path style="stroke:none; fill:none" d="M 47.2 113.6L 47.2 114.4L 57.6 114.4C 54.433 113.071 50.6107 113.6 47.2 113.6z"/>
<path style="stroke:none; fill:none" d="M 136 129.6L 136.8 130.4L 136 129.6z"/>
<path style="stroke:none; fill:none" d="M 135.2 131.2L 136 132L 135.2 131.2z"/>
<path style="stroke:none; fill:none" d="M 14.1334 136.266C 13.7778 136.622 14.6222 136.578 14.6666 136.534C 15.0222 136.178 14.1778 136.222 14.1334 136.266z"/>
<path style="stroke:none; fill:none" d="M 129.334 136.266C 128.978 136.622 129.822 136.578 129.866 136.534C 130.222 136.178 129.378 136.222 129.334 136.266z"/>
<path style="stroke:none; fill:none" d="M 16 136.8L 16 137.6L 127.2 137.6C 118.416 133.914 103.155 136.8 93.6 136.8L 16 136.8z"/>
</g>
</svg>